<svg width="1280" height="361" viewBox="0 0 1280 361" fill="none" xmlns="http://www.w3.org/2000/svg">
<rect width="1280" height="361" rx="50" fill="black"/>
<path d="M340 58C340 46.9543 348.954 38 360 38H610C621.046 38 630 46.9543 630 58V179H340V58Z" fill="#262626"/>
<path d="M441.249 110.2C443.595 109.709 445.718 109.464 447.617 109.464C450.006 109.464 452.118 109.827 453.953 110.552C455.787 111.256 457.323 112.237 458.561 113.496C459.819 114.733 460.758 116.205 461.377 117.912C462.017 119.597 462.337 121.432 462.337 123.416C462.337 125.848 461.91 128.056 461.057 130.04C460.203 132.024 459.03 133.72 457.537 135.128C456.043 136.536 454.273 137.624 452.225 138.392C450.198 139.139 448.011 139.512 445.665 139.512C444.278 139.512 442.955 139.373 441.697 139.096C440.459 138.819 439.297 138.456 438.209 138.008C437.121 137.539 436.107 137.005 435.169 136.408C434.251 135.811 433.43 135.181 432.705 134.52L434.625 131.832C435.03 131.235 435.574 130.936 436.257 130.936C436.705 130.936 437.195 131.107 437.729 131.448C438.283 131.768 438.934 132.131 439.681 132.536C440.427 132.941 441.313 133.315 442.337 133.656C443.361 133.976 444.577 134.136 445.985 134.136C447.542 134.136 448.939 133.891 450.177 133.4C451.435 132.888 452.491 132.173 453.345 131.256C454.219 130.339 454.881 129.24 455.329 127.96C455.798 126.68 456.033 125.261 456.033 123.704C456.033 122.317 455.83 121.069 455.425 119.96C455.019 118.851 454.411 117.901 453.601 117.112C452.79 116.323 451.777 115.725 450.561 115.32C449.345 114.893 447.926 114.68 446.305 114.68C444.043 114.68 441.633 115.085 439.073 115.896L435.137 114.744L438.881 93.048H460.897V95.768C460.897 96.664 460.609 97.4 460.033 97.976C459.478 98.5307 458.539 98.808 457.217 98.808H443.233L441.249 110.2ZM501.701 116.024C501.701 120.035 501.264 123.512 500.39 126.456C499.536 129.4 498.352 131.843 496.838 133.784C495.344 135.704 493.574 137.133 491.526 138.072C489.499 139.011 487.312 139.48 484.966 139.48C482.619 139.48 480.422 139.011 478.374 138.072C476.347 137.133 474.587 135.704 473.094 133.784C471.6 131.843 470.427 129.4 469.574 126.456C468.72 123.512 468.294 120.035 468.294 116.024C468.294 112.013 468.72 108.536 469.574 105.592C470.427 102.627 471.6 100.184 473.094 98.264C474.587 96.3227 476.347 94.8827 478.374 93.944C480.422 93.0053 482.619 92.536 484.966 92.536C487.312 92.536 489.499 93.0053 491.526 93.944C493.574 94.8827 495.344 96.3227 496.838 98.264C498.352 100.184 499.536 102.627 500.39 105.592C501.264 108.536 501.701 112.013 501.701 116.024ZM495.238 116.024C495.238 112.568 494.95 109.677 494.374 107.352C493.819 105.027 493.062 103.16 492.102 101.752C491.163 100.323 490.075 99.3093 488.838 98.712C487.6 98.1147 486.31 97.816 484.966 97.816C483.622 97.816 482.331 98.1147 481.094 98.712C479.856 99.3093 478.758 100.323 477.798 101.752C476.859 103.16 476.112 105.027 475.558 107.352C475.003 109.677 474.726 112.568 474.726 116.024C474.726 119.48 475.003 122.371 475.558 124.696C476.112 127.021 476.859 128.888 477.798 130.296C478.758 131.704 479.856 132.707 481.094 133.304C482.331 133.901 483.622 134.2 484.966 134.2C486.31 134.2 487.6 133.901 488.838 133.304C490.075 132.707 491.163 131.704 492.102 130.296C493.062 128.888 493.819 127.021 494.374 124.696C494.95 122.371 495.238 119.48 495.238 116.024ZM537.547 119.896H524.651V133.496H519.562V119.896H506.731V115.16H519.562V101.624H524.651V115.16H537.547V119.896Z" fill="white"/>
<path d="M630 302C630 313.046 621.046 322 610 322L360 322C348.954 322 340 313.046 340 302L340 181L630 181L630 302Z" fill="#262626"/>
<path d="M407.075 244.64V259H405.215V248.78C405.215 248.627 405.218 248.463 405.225 248.29C405.238 248.117 405.252 247.94 405.265 247.76L400.485 256.53C400.318 256.857 400.062 257.02 399.715 257.02H399.415C399.068 257.02 398.815 256.857 398.655 256.53L393.785 247.73C393.825 248.103 393.845 248.453 393.845 248.78V259H391.975V244.64H393.555C393.742 244.64 393.885 244.66 393.985 244.7C394.092 244.733 394.192 244.833 394.285 245L399.085 253.6C399.178 253.773 399.265 253.957 399.345 254.15C399.425 254.343 399.502 254.537 399.575 254.73C399.715 254.337 399.878 253.957 400.065 253.59L404.775 245C404.862 244.833 404.955 244.733 405.055 244.7C405.162 244.66 405.308 244.64 405.495 244.64H407.075ZM419.537 257.27L419.527 259H410.627V244.64H419.527V246.37H412.767V250.92H418.207V252.59H412.767V257.27H419.537ZM433.93 244.64V259H431.8V252.53H424.31V259H422.17V244.64H424.31V250.98H431.8V244.64H433.93ZM452.583 244.64V259H450.723V248.78C450.723 248.627 450.726 248.463 450.733 248.29C450.746 248.117 450.76 247.94 450.773 247.76L445.993 256.53C445.826 256.857 445.57 257.02 445.223 257.02H444.923C444.576 257.02 444.323 256.857 444.163 256.53L439.293 247.73C439.333 248.103 439.353 248.453 439.353 248.78V259H437.483V244.64H439.063C439.25 244.64 439.393 244.66 439.493 244.7C439.6 244.733 439.7 244.833 439.793 245L444.593 253.6C444.686 253.773 444.773 253.957 444.853 254.15C444.933 254.343 445.01 254.537 445.083 254.73C445.223 254.337 445.386 253.957 445.573 253.59L450.283 245C450.37 244.833 450.463 244.733 450.563 244.7C450.67 244.66 450.816 244.64 451.003 244.64H452.583ZM469.515 251.82C469.515 252.893 469.342 253.88 468.995 254.78C468.655 255.673 468.172 256.447 467.545 257.1C466.919 257.747 466.169 258.25 465.295 258.61C464.422 258.97 463.452 259.15 462.385 259.15C461.325 259.15 460.355 258.97 459.475 258.61C458.602 258.25 457.852 257.747 457.225 257.1C456.605 256.447 456.122 255.673 455.775 254.78C455.429 253.88 455.255 252.893 455.255 251.82C455.255 250.753 455.429 249.77 455.775 248.87C456.122 247.97 456.605 247.197 457.225 246.55C457.852 245.897 458.602 245.39 459.475 245.03C460.355 244.663 461.325 244.48 462.385 244.48C463.452 244.48 464.422 244.663 465.295 245.03C466.169 245.39 466.919 245.897 467.545 246.55C468.172 247.197 468.655 247.97 468.995 248.87C469.342 249.77 469.515 250.753 469.515 251.82ZM467.335 251.82C467.335 250.967 467.219 250.2 466.985 249.52C466.752 248.84 466.419 248.263 465.985 247.79C465.559 247.317 465.039 246.953 464.425 246.7C463.819 246.447 463.139 246.32 462.385 246.32C461.632 246.32 460.949 246.447 460.335 246.7C459.729 246.953 459.209 247.317 458.775 247.79C458.342 248.263 458.009 248.84 457.775 249.52C457.542 250.2 457.425 250.967 457.425 251.82C457.425 252.68 457.542 253.45 457.775 254.13C458.009 254.803 458.342 255.377 458.775 255.85C459.209 256.323 459.729 256.687 460.335 256.94C460.949 257.187 461.632 257.31 462.385 257.31C463.139 257.31 463.819 257.187 464.425 256.94C465.039 256.687 465.559 256.323 465.985 255.85C466.419 255.377 466.752 254.803 466.985 254.13C467.219 253.45 467.335 252.68 467.335 251.82ZM483.95 244.64V259H482.87C482.703 259 482.563 258.97 482.45 258.91C482.343 258.85 482.233 258.753 482.12 258.62L474.01 248.13C474.023 248.31 474.033 248.487 474.04 248.66C474.053 248.833 474.06 248.997 474.06 249.15V259H472.19V244.64H473.29C473.477 244.64 473.617 244.663 473.71 244.71C473.803 244.75 473.907 244.847 474.02 245L482.15 255.5C482.13 255.307 482.113 255.12 482.1 254.94C482.093 254.753 482.09 254.58 482.09 254.42V244.64H483.95ZM498.642 259H496.532C496.379 259 496.256 258.96 496.162 258.88C496.069 258.793 495.996 258.703 495.942 258.61L492.232 252.7C492.179 252.867 492.116 253.01 492.042 253.13L488.432 258.61C488.366 258.703 488.289 258.793 488.202 258.88C488.116 258.96 488.006 259 487.872 259H485.882L490.792 251.61L486.092 244.64H488.202C488.356 244.64 488.469 244.663 488.542 244.71C488.616 244.757 488.679 244.827 488.732 244.92L492.362 250.55C492.416 250.377 492.489 250.217 492.582 250.07L495.982 244.96C496.042 244.853 496.109 244.773 496.182 244.72C496.256 244.667 496.349 244.64 496.462 244.64H498.492L493.762 251.52L498.642 259ZM513.402 251.82C513.402 252.893 513.229 253.88 512.882 254.78C512.542 255.673 512.059 256.447 511.432 257.1C510.805 257.747 510.055 258.25 509.182 258.61C508.309 258.97 507.339 259.15 506.272 259.15C505.212 259.15 504.242 258.97 503.362 258.61C502.489 258.25 501.739 257.747 501.112 257.1C500.492 256.447 500.009 255.673 499.662 254.78C499.315 253.88 499.142 252.893 499.142 251.82C499.142 250.753 499.315 249.77 499.662 248.87C500.009 247.97 500.492 247.197 501.112 246.55C501.739 245.897 502.489 245.39 503.362 245.03C504.242 244.663 505.212 244.48 506.272 244.48C507.339 244.48 508.309 244.663 509.182 245.03C510.055 245.39 510.805 245.897 511.432 246.55C512.059 247.197 512.542 247.97 512.882 248.87C513.229 249.77 513.402 250.753 513.402 251.82ZM511.222 251.82C511.222 250.967 511.105 250.2 510.872 249.52C510.639 248.84 510.305 248.263 509.872 247.79C509.445 247.317 508.925 246.953 508.312 246.7C507.705 246.447 507.025 246.32 506.272 246.32C505.519 246.32 504.835 246.447 504.222 246.7C503.615 246.953 503.095 247.317 502.662 247.79C502.229 248.263 501.895 248.84 501.662 249.52C501.429 250.2 501.312 250.967 501.312 251.82C501.312 252.68 501.429 253.45 501.662 254.13C501.895 254.803 502.229 255.377 502.662 255.85C503.095 256.323 503.615 256.687 504.222 256.94C504.835 257.187 505.519 257.31 506.272 257.31C507.025 257.31 507.705 257.187 508.312 256.94C508.925 256.687 509.445 256.323 509.872 255.85C510.305 255.377 510.639 254.803 510.872 254.13C511.105 253.45 511.222 252.68 511.222 251.82ZM527.837 244.64V259H526.757C526.59 259 526.45 258.97 526.337 258.91C526.23 258.85 526.12 258.753 526.007 258.62L517.897 248.13C517.91 248.31 517.92 248.487 517.927 248.66C517.94 248.833 517.947 248.997 517.947 249.15V259H516.077V244.64H517.177C517.363 244.64 517.503 244.663 517.597 244.71C517.69 244.75 517.793 244.847 517.907 245L526.037 255.5C526.017 255.307 526 255.12 525.987 254.94C525.98 254.753 525.977 254.58 525.977 254.42V244.64H527.837ZM539.019 253.65L536.889 248.08C536.736 247.7 536.582 247.22 536.429 246.64C536.356 246.927 536.279 247.193 536.199 247.44C536.126 247.687 536.052 247.907 535.979 248.1L533.859 253.65H539.019ZM543.229 259H541.589C541.402 259 541.249 258.953 541.129 258.86C541.009 258.767 540.922 258.647 540.869 258.5L539.599 255.17H533.269L531.999 258.5C531.952 258.627 531.866 258.743 531.739 258.85C531.612 258.95 531.459 259 531.279 259H529.639L535.359 244.64H537.509L543.229 259ZM553.242 257.21V259H545.022V244.64H547.152V257.21H553.242ZM562.945 253.65L560.815 248.08C560.662 247.7 560.508 247.22 560.355 246.64C560.282 246.927 560.205 247.193 560.125 247.44C560.052 247.687 559.978 247.907 559.905 248.1L557.785 253.65H562.945ZM567.155 259H565.515C565.328 259 565.175 258.953 565.055 258.86C564.935 258.767 564.848 258.647 564.795 258.5L563.525 255.17H557.195L555.925 258.5C555.878 258.627 555.792 258.743 555.665 258.85C555.538 258.95 555.385 259 555.205 259H553.565L559.285 244.64H561.435L567.155 259ZM573.018 251.56C573.564 251.56 574.044 251.493 574.458 251.36C574.878 251.227 575.228 251.04 575.508 250.8C575.788 250.553 575.998 250.263 576.138 249.93C576.278 249.59 576.348 249.217 576.348 248.81C576.348 247.983 576.074 247.36 575.528 246.94C574.988 246.52 574.174 246.31 573.088 246.31H571.078V251.56H573.018ZM579.718 259H577.818C577.438 259 577.161 258.85 576.988 258.55L573.438 253.57C573.324 253.403 573.201 253.287 573.068 253.22C572.934 253.147 572.734 253.11 572.468 253.11H571.078V259H568.948V244.64H573.088C574.014 244.64 574.811 244.737 575.478 244.93C576.151 245.117 576.704 245.387 577.138 245.74C577.578 246.087 577.901 246.507 578.108 247C578.321 247.493 578.428 248.047 578.428 248.66C578.428 249.16 578.351 249.63 578.198 250.07C578.044 250.51 577.818 250.907 577.518 251.26C577.224 251.607 576.864 251.907 576.438 252.16C576.011 252.413 575.528 252.607 574.988 252.74C575.254 252.9 575.484 253.123 575.678 253.41L579.718 259Z" fill="white"/>
<path d="M650 58C650 46.9543 658.954 38 670 38H920C931.046 38 940 46.9543 940 58V179H650V58Z" fill="#262626"/>
<path d="M714.124 104.2C716.47 103.709 718.593 103.464 720.492 103.464C722.881 103.464 724.993 103.827 726.828 104.552C728.662 105.256 730.198 106.237 731.436 107.496C732.694 108.733 733.633 110.205 734.252 111.912C734.892 113.597 735.212 115.432 735.212 117.416C735.212 119.848 734.785 122.056 733.932 124.04C733.078 126.024 731.905 127.72 730.412 129.128C728.918 130.536 727.148 131.624 725.1 132.392C723.073 133.139 720.886 133.512 718.54 133.512C717.153 133.512 715.83 133.373 714.572 133.096C713.334 132.819 712.172 132.456 711.084 132.008C709.996 131.539 708.982 131.005 708.044 130.408C707.126 129.811 706.305 129.181 705.58 128.52L707.5 125.832C707.905 125.235 708.449 124.936 709.132 124.936C709.58 124.936 710.07 125.107 710.604 125.448C711.158 125.768 711.809 126.131 712.556 126.536C713.302 126.941 714.188 127.315 715.212 127.656C716.236 127.976 717.452 128.136 718.86 128.136C720.417 128.136 721.814 127.891 723.052 127.4C724.31 126.888 725.366 126.173 726.22 125.256C727.094 124.339 727.756 123.24 728.204 121.96C728.673 120.68 728.908 119.261 728.908 117.704C728.908 116.317 728.705 115.069 728.3 113.96C727.894 112.851 727.286 111.901 726.476 111.112C725.665 110.323 724.652 109.725 723.436 109.32C722.22 108.893 720.801 108.68 719.18 108.68C716.918 108.68 714.508 109.085 711.948 109.896L708.012 108.744L711.756 87.048H733.772V89.768C733.772 90.664 733.484 91.4 732.908 91.976C732.353 92.5307 731.414 92.808 730.092 92.808H716.108L714.124 104.2ZM774.576 110.024C774.576 114.035 774.139 117.512 773.265 120.456C772.411 123.4 771.227 125.843 769.713 127.784C768.219 129.704 766.449 131.133 764.401 132.072C762.374 133.011 760.187 133.48 757.841 133.48C755.494 133.48 753.297 133.011 751.249 132.072C749.222 131.133 747.462 129.704 745.969 127.784C744.475 125.843 743.302 123.4 742.449 120.456C741.595 117.512 741.169 114.035 741.169 110.024C741.169 106.013 741.595 102.536 742.449 99.592C743.302 96.6267 744.475 94.184 745.969 92.264C747.462 90.3227 749.222 88.8827 751.249 87.944C753.297 87.0053 755.494 86.536 757.841 86.536C760.187 86.536 762.374 87.0053 764.401 87.944C766.449 88.8827 768.219 90.3227 769.713 92.264C771.227 94.184 772.411 96.6267 773.265 99.592C774.139 102.536 774.576 106.013 774.576 110.024ZM768.113 110.024C768.113 106.568 767.825 103.677 767.249 101.352C766.694 99.0267 765.937 97.16 764.977 95.752C764.038 94.3227 762.95 93.3093 761.713 92.712C760.475 92.1147 759.185 91.816 757.841 91.816C756.497 91.816 755.206 92.1147 753.969 92.712C752.731 93.3093 751.633 94.3227 750.673 95.752C749.734 97.16 748.987 99.0267 748.433 101.352C747.878 103.677 747.601 106.568 747.601 110.024C747.601 113.48 747.878 116.371 748.433 118.696C748.987 121.021 749.734 122.888 750.673 124.296C751.633 125.704 752.731 126.707 753.969 127.304C755.206 127.901 756.497 128.2 757.841 128.2C759.185 128.2 760.475 127.901 761.713 127.304C762.95 126.707 764.038 125.704 764.977 124.296C765.937 122.888 766.694 121.021 767.249 118.696C767.825 116.371 768.113 113.48 768.113 110.024ZM811.701 110.024C811.701 114.035 811.264 117.512 810.39 120.456C809.536 123.4 808.352 125.843 806.838 127.784C805.344 129.704 803.574 131.133 801.526 132.072C799.499 133.011 797.312 133.48 794.966 133.48C792.619 133.48 790.422 133.011 788.374 132.072C786.347 131.133 784.587 129.704 783.094 127.784C781.6 125.843 780.427 123.4 779.574 120.456C778.72 117.512 778.294 114.035 778.294 110.024C778.294 106.013 778.72 102.536 779.574 99.592C780.427 96.6267 781.6 94.184 783.094 92.264C784.587 90.3227 786.347 88.8827 788.374 87.944C790.422 87.0053 792.619 86.536 794.966 86.536C797.312 86.536 799.499 87.0053 801.526 87.944C803.574 88.8827 805.344 90.3227 806.838 92.264C808.352 94.184 809.536 96.6267 810.39 99.592C811.264 102.536 811.701 106.013 811.701 110.024ZM805.238 110.024C805.238 106.568 804.95 103.677 804.374 101.352C803.819 99.0267 803.062 97.16 802.102 95.752C801.163 94.3227 800.075 93.3093 798.838 92.712C797.6 92.1147 796.31 91.816 794.966 91.816C793.622 91.816 792.331 92.1147 791.094 92.712C789.856 93.3093 788.758 94.3227 787.798 95.752C786.859 97.16 786.112 99.0267 785.558 101.352C785.003 103.677 784.726 106.568 784.726 110.024C784.726 113.48 785.003 116.371 785.558 118.696C786.112 121.021 786.859 122.888 787.798 124.296C788.758 125.704 789.856 126.707 791.094 127.304C792.331 127.901 793.622 128.2 794.966 128.2C796.31 128.2 797.6 127.901 798.838 127.304C800.075 126.707 801.163 125.704 802.102 124.296C803.062 122.888 803.819 121.021 804.374 118.696C804.95 116.371 805.238 113.48 805.238 110.024ZM848.826 110.024C848.826 114.035 848.389 117.512 847.515 120.456C846.661 123.4 845.477 125.843 843.963 127.784C842.469 129.704 840.699 131.133 838.651 132.072C836.624 133.011 834.437 133.48 832.091 133.48C829.744 133.48 827.547 133.011 825.499 132.072C823.472 131.133 821.712 129.704 820.219 127.784C818.725 125.843 817.552 123.4 816.699 120.456C815.845 117.512 815.419 114.035 815.419 110.024C815.419 106.013 815.845 102.536 816.699 99.592C817.552 96.6267 818.725 94.184 820.219 92.264C821.712 90.3227 823.472 88.8827 825.499 87.944C827.547 87.0053 829.744 86.536 832.091 86.536C834.437 86.536 836.624 87.0053 838.651 87.944C840.699 88.8827 842.469 90.3227 843.963 92.264C845.477 94.184 846.661 96.6267 847.515 99.592C848.389 102.536 848.826 106.013 848.826 110.024ZM842.363 110.024C842.363 106.568 842.075 103.677 841.499 101.352C840.944 99.0267 840.187 97.16 839.227 95.752C838.288 94.3227 837.2 93.3093 835.963 92.712C834.725 92.1147 833.435 91.816 832.091 91.816C830.747 91.816 829.456 92.1147 828.219 92.712C826.981 93.3093 825.883 94.3227 824.923 95.752C823.984 97.16 823.237 99.0267 822.683 101.352C822.128 103.677 821.851 106.568 821.851 110.024C821.851 113.48 822.128 116.371 822.683 118.696C823.237 121.021 823.984 122.888 824.923 124.296C825.883 125.704 826.981 126.707 828.219 127.304C829.456 127.901 830.747 128.2 832.091 128.2C833.435 128.2 834.725 127.901 835.963 127.304C837.2 126.707 838.288 125.704 839.227 124.296C840.187 122.888 840.944 121.021 841.499 118.696C842.075 116.371 842.363 113.48 842.363 110.024ZM884.672 113.896H871.776V127.496H866.688V113.896H853.856V109.16H866.688V95.624H871.776V109.16H884.672V113.896Z" fill="white"/>
<path d="M940 302C940 313.046 931.046 322 920 322L670 322C658.954 322 650 313.046 650 302L650 181L940 181L940 302Z" fill="#262626"/>
<path d="M689.929 257.31C690.469 257.31 690.929 257.247 691.309 257.12C691.696 256.993 692.009 256.82 692.249 256.6C692.496 256.38 692.676 256.12 692.789 255.82C692.903 255.513 692.959 255.18 692.959 254.82C692.959 254.107 692.713 253.547 692.219 253.14C691.726 252.727 690.963 252.52 689.929 252.52H686.929V257.31H689.929ZM686.929 246.31V251.01H689.379C690.426 251.01 691.203 250.8 691.709 250.38C692.223 249.953 692.479 249.38 692.479 248.66C692.479 247.84 692.236 247.243 691.749 246.87C691.263 246.497 690.506 246.31 689.479 246.31H686.929ZM689.479 244.64C690.379 244.64 691.149 244.727 691.789 244.9C692.436 245.073 692.966 245.323 693.379 245.65C693.793 245.977 694.096 246.373 694.289 246.84C694.489 247.3 694.589 247.823 694.589 248.41C694.589 248.757 694.536 249.09 694.429 249.41C694.323 249.73 694.159 250.03 693.939 250.31C693.719 250.583 693.443 250.83 693.109 251.05C692.776 251.27 692.383 251.453 691.929 251.6C694.016 252.013 695.059 253.103 695.059 254.87C695.059 255.483 694.946 256.043 694.719 256.55C694.493 257.05 694.163 257.483 693.729 257.85C693.296 258.217 692.763 258.5 692.129 258.7C691.496 258.9 690.776 259 689.969 259H684.799V244.64H689.479ZM705.203 253.65L703.073 248.08C702.919 247.7 702.766 247.22 702.613 246.64C702.539 246.927 702.463 247.193 702.383 247.44C702.309 247.687 702.236 247.907 702.163 248.1L700.043 253.65H705.203ZM709.413 259H707.773C707.586 259 707.433 258.953 707.313 258.86C707.193 258.767 707.106 258.647 707.053 258.5L705.783 255.17H699.453L698.183 258.5C698.136 258.627 698.049 258.743 697.923 258.85C697.796 258.95 697.643 259 697.463 259H695.823L701.543 244.64H703.693L709.413 259ZM722.346 259H720.236C720.082 259 719.959 258.96 719.866 258.88C719.772 258.793 719.699 258.703 719.646 258.61L715.936 252.7C715.882 252.867 715.819 253.01 715.746 253.13L712.136 258.61C712.069 258.703 711.992 258.793 711.906 258.88C711.819 258.96 711.709 259 711.576 259H709.586L714.496 251.61L709.796 244.64H711.906C712.059 244.64 712.172 244.663 712.246 244.71C712.319 244.757 712.382 244.827 712.436 244.92L716.066 250.55C716.119 250.377 716.192 250.217 716.286 250.07L719.686 244.96C719.746 244.853 719.812 244.773 719.886 244.72C719.959 244.667 720.052 244.64 720.166 244.64H722.196L717.466 251.52L722.346 259ZM734.081 246.42H729.521V259H727.401V246.42H722.821V244.64H734.081V246.42ZM744.367 257.21V259H736.147V244.64H738.277V257.21H744.367ZM748.58 259H746.44V244.64H748.58V259ZM766.852 245.43C766.852 245.67 766.779 245.9 766.632 246.12L758.702 257.27H766.712V259H755.912V258.16C755.912 258.047 755.929 257.94 755.962 257.84C756.002 257.74 756.052 257.643 756.112 257.55L764.062 246.37H756.312V244.64H766.852V245.43ZM771.373 259H769.233V244.64H771.373V259ZM780.506 253.32V259H778.386V253.32L773.126 244.64H774.996C775.183 244.64 775.333 244.687 775.446 244.78C775.56 244.867 775.653 244.983 775.726 245.13L778.846 250.5C778.973 250.747 779.086 250.98 779.186 251.2C779.293 251.42 779.386 251.637 779.466 251.85C779.54 251.637 779.623 251.42 779.716 251.2C779.816 250.98 779.93 250.747 780.056 250.5L783.166 245.13C783.233 245.01 783.323 244.9 783.436 244.8C783.556 244.693 783.706 244.64 783.886 244.64H785.766L780.506 253.32ZM800.113 251.82C800.113 252.893 799.94 253.88 799.593 254.78C799.253 255.673 798.77 256.447 798.143 257.1C797.516 257.747 796.766 258.25 795.893 258.61C795.02 258.97 794.05 259.15 792.983 259.15C791.923 259.15 790.953 258.97 790.073 258.61C789.2 258.25 788.45 257.747 787.823 257.1C787.203 256.447 786.72 255.673 786.373 254.78C786.026 253.88 785.853 252.893 785.853 251.82C785.853 250.753 786.026 249.77 786.373 248.87C786.72 247.97 787.203 247.197 787.823 246.55C788.45 245.897 789.2 245.39 790.073 245.03C790.953 244.663 791.923 244.48 792.983 244.48C794.05 244.48 795.02 244.663 795.893 245.03C796.766 245.39 797.516 245.897 798.143 246.55C798.77 247.197 799.253 247.97 799.593 248.87C799.94 249.77 800.113 250.753 800.113 251.82ZM797.933 251.82C797.933 250.967 797.816 250.2 797.583 249.52C797.35 248.84 797.016 248.263 796.583 247.79C796.156 247.317 795.636 246.953 795.023 246.7C794.416 246.447 793.736 246.32 792.983 246.32C792.23 246.32 791.546 246.447 790.933 246.7C790.326 246.953 789.806 247.317 789.373 247.79C788.94 248.263 788.606 248.84 788.373 249.52C788.14 250.2 788.023 250.967 788.023 251.82C788.023 252.68 788.14 253.45 788.373 254.13C788.606 254.803 788.94 255.377 789.373 255.85C789.806 256.323 790.326 256.687 790.933 256.94C791.546 257.187 792.23 257.31 792.983 257.31C793.736 257.31 794.416 257.187 795.023 256.94C795.636 256.687 796.156 256.323 796.583 255.85C797.016 255.377 797.35 254.803 797.583 254.13C797.816 253.45 797.933 252.68 797.933 251.82ZM806.858 251.56C807.404 251.56 807.884 251.493 808.298 251.36C808.718 251.227 809.068 251.04 809.348 250.8C809.628 250.553 809.838 250.263 809.978 249.93C810.118 249.59 810.188 249.217 810.188 248.81C810.188 247.983 809.914 247.36 809.368 246.94C808.828 246.52 808.014 246.31 806.928 246.31H804.918V251.56H806.858ZM813.558 259H811.658C811.278 259 811.001 258.85 810.828 258.55L807.278 253.57C807.164 253.403 807.041 253.287 806.908 253.22C806.774 253.147 806.574 253.11 806.308 253.11H804.918V259H802.788V244.64H806.928C807.854 244.64 808.651 244.737 809.318 244.93C809.991 245.117 810.544 245.387 810.978 245.74C811.418 246.087 811.741 246.507 811.948 247C812.161 247.493 812.268 248.047 812.268 248.66C812.268 249.16 812.191 249.63 812.038 250.07C811.884 250.51 811.658 250.907 811.358 251.26C811.064 251.607 810.704 251.907 810.278 252.16C809.851 252.413 809.368 252.607 808.828 252.74C809.094 252.9 809.324 253.123 809.518 253.41L813.558 259ZM823.035 253.65L820.905 248.08C820.751 247.7 820.598 247.22 820.445 246.64C820.371 246.927 820.295 247.193 820.215 247.44C820.141 247.687 820.068 247.907 819.995 248.1L817.875 253.65H823.035ZM827.245 259H825.605C825.418 259 825.265 258.953 825.145 258.86C825.025 258.767 824.938 258.647 824.885 258.5L823.615 255.17H817.285L816.015 258.5C815.968 258.627 815.881 258.743 815.755 258.85C815.628 258.95 815.475 259 815.295 259H813.655L819.375 244.64H821.525L827.245 259ZM837.421 246.42H832.861V259H830.741V246.42H826.161V244.64H837.421V246.42ZM848.911 255.92C849.031 255.92 849.135 255.967 849.221 256.06L850.061 256.98C849.475 257.673 848.758 258.21 847.911 258.59C847.071 258.97 846.058 259.16 844.871 259.16C843.831 259.16 842.888 258.98 842.041 258.62C841.201 258.26 840.481 257.757 839.881 257.11C839.288 256.463 838.828 255.69 838.501 254.79C838.175 253.89 838.011 252.9 838.011 251.82C838.011 250.74 838.181 249.75 838.521 248.85C838.868 247.95 839.351 247.177 839.971 246.53C840.591 245.883 841.331 245.38 842.191 245.02C843.058 244.66 844.015 244.48 845.061 244.48C846.081 244.48 846.988 244.647 847.781 244.98C848.575 245.313 849.265 245.757 849.851 246.31L849.151 247.3C849.105 247.373 849.045 247.433 848.971 247.48C848.905 247.527 848.815 247.55 848.701 247.55C848.575 247.55 848.425 247.487 848.251 247.36C848.085 247.233 847.861 247.093 847.581 246.94C847.308 246.78 846.968 246.637 846.561 246.51C846.155 246.383 845.648 246.32 845.041 246.32C844.328 246.32 843.675 246.447 843.081 246.7C842.488 246.947 841.975 247.307 841.541 247.78C841.115 248.247 840.781 248.823 840.541 249.51C840.308 250.19 840.191 250.96 840.191 251.82C840.191 252.693 840.315 253.47 840.561 254.15C840.808 254.83 841.148 255.407 841.581 255.88C842.015 256.353 842.525 256.713 843.111 256.96C843.698 257.207 844.331 257.33 845.011 257.33C845.425 257.33 845.795 257.307 846.121 257.26C846.455 257.207 846.758 257.13 847.031 257.03C847.311 256.93 847.575 256.803 847.821 256.65C848.068 256.49 848.311 256.3 848.551 256.08C848.605 256.033 848.661 255.997 848.721 255.97C848.781 255.937 848.845 255.92 848.911 255.92ZM863.962 244.64V259H861.832V252.53H854.342V259H852.202V244.64H854.342V250.98H861.832V244.64H863.962ZM869.654 259H867.514V244.64H869.654V259ZM881.418 257.21V259H873.198V244.64H875.328V257.21H881.418ZM891.121 253.65L888.991 248.08C888.837 247.7 888.684 247.22 888.531 246.64C888.457 246.927 888.381 247.193 888.301 247.44C888.227 247.687 888.154 247.907 888.081 248.1L885.961 253.65H891.121ZM895.331 259H893.691C893.504 259 893.351 258.953 893.231 258.86C893.111 258.767 893.024 258.647 892.971 258.5L891.701 255.17H885.371L884.101 258.5C884.054 258.627 883.967 258.743 883.841 258.85C883.714 258.95 883.561 259 883.381 259H881.741L887.461 244.64H889.611L895.331 259ZM901.194 251.56C901.74 251.56 902.22 251.493 902.634 251.36C903.054 251.227 903.404 251.04 903.684 250.8C903.964 250.553 904.174 250.263 904.314 249.93C904.454 249.59 904.524 249.217 904.524 248.81C904.524 247.983 904.25 247.36 903.704 246.94C903.164 246.52 902.35 246.31 901.264 246.31H899.254V251.56H901.194ZM907.894 259H905.994C905.614 259 905.337 258.85 905.164 258.55L901.614 253.57C901.5 253.403 901.377 253.287 901.244 253.22C901.11 253.147 900.91 253.11 900.644 253.11H899.254V259H897.124V244.64H901.264C902.19 244.64 902.987 244.737 903.654 244.93C904.327 245.117 904.88 245.387 905.314 245.74C905.754 246.087 906.077 246.507 906.284 247C906.497 247.493 906.604 248.047 906.604 248.66C906.604 249.16 906.527 249.63 906.374 250.07C906.22 250.51 905.994 250.907 905.694 251.26C905.4 251.607 905.04 251.907 904.614 252.16C904.187 252.413 903.704 252.607 903.164 252.74C903.43 252.9 903.66 253.123 903.854 253.41L907.894 259Z" fill="white"/>
<path d="M960 58C960 46.9543 968.954 38 980 38H1230C1241.05 38 1250 46.9543 1250 58V179H960V58Z" fill="#262626"/>
<path d="M1026.83 128.232V133H1002V128.232H1011.73V98.12C1011.73 97.16 1011.76 96.168 1011.82 95.144L1004.01 101.768C1003.71 102.003 1003.42 102.152 1003.12 102.216C1002.82 102.28 1002.53 102.291 1002.25 102.248C1002 102.205 1001.76 102.12 1001.55 101.992C1001.36 101.843 1001.2 101.693 1001.07 101.544L999.117 98.824L1012.88 86.952H1017.97V128.232H1026.83ZM1066.51 110.024C1066.51 114.035 1066.08 117.512 1065.2 120.456C1064.35 123.4 1063.16 125.843 1061.65 127.784C1060.16 129.704 1058.39 131.133 1056.34 132.072C1054.31 133.011 1052.12 133.48 1049.78 133.48C1047.43 133.48 1045.23 133.011 1043.19 132.072C1041.16 131.133 1039.4 129.704 1037.91 127.784C1036.41 125.843 1035.24 123.4 1034.39 120.456C1033.53 117.512 1033.11 114.035 1033.11 110.024C1033.11 106.013 1033.53 102.536 1034.39 99.592C1035.24 96.6267 1036.41 94.184 1037.91 92.264C1039.4 90.3227 1041.16 88.8827 1043.19 87.944C1045.23 87.0053 1047.43 86.536 1049.78 86.536C1052.12 86.536 1054.31 87.0053 1056.34 87.944C1058.39 88.8827 1060.16 90.3227 1061.65 92.264C1063.16 94.184 1064.35 96.6267 1065.2 99.592C1066.08 102.536 1066.51 106.013 1066.51 110.024ZM1060.05 110.024C1060.05 106.568 1059.76 103.677 1059.19 101.352C1058.63 99.0267 1057.87 97.16 1056.91 95.752C1055.98 94.3227 1054.89 93.3093 1053.65 92.712C1052.41 92.1147 1051.12 91.816 1049.78 91.816C1048.43 91.816 1047.14 92.1147 1045.91 92.712C1044.67 93.3093 1043.57 94.3227 1042.61 95.752C1041.67 97.16 1040.92 99.0267 1040.37 101.352C1039.82 103.677 1039.54 106.568 1039.54 110.024C1039.54 113.48 1039.82 116.371 1040.37 118.696C1040.92 121.021 1041.67 122.888 1042.61 124.296C1043.57 125.704 1044.67 126.707 1045.91 127.304C1047.14 127.901 1048.43 128.2 1049.78 128.2C1051.12 128.2 1052.41 127.901 1053.65 127.304C1054.89 126.707 1055.98 125.704 1056.91 124.296C1057.87 122.888 1058.63 121.021 1059.19 118.696C1059.76 116.371 1060.05 113.48 1060.05 110.024ZM1103.64 110.024C1103.64 114.035 1103.2 117.512 1102.33 120.456C1101.47 123.4 1100.29 125.843 1098.78 127.784C1097.28 129.704 1095.51 131.133 1093.46 132.072C1091.44 133.011 1089.25 133.48 1086.9 133.48C1084.56 133.48 1082.36 133.011 1080.31 132.072C1078.28 131.133 1076.52 129.704 1075.03 127.784C1073.54 125.843 1072.36 123.4 1071.51 120.456C1070.66 117.512 1070.23 114.035 1070.23 110.024C1070.23 106.013 1070.66 102.536 1071.51 99.592C1072.36 96.6267 1073.54 94.184 1075.03 92.264C1076.52 90.3227 1078.28 88.8827 1080.31 87.944C1082.36 87.0053 1084.56 86.536 1086.9 86.536C1089.25 86.536 1091.44 87.0053 1093.46 87.944C1095.51 88.8827 1097.28 90.3227 1098.78 92.264C1100.29 94.184 1101.47 96.6267 1102.33 99.592C1103.2 102.536 1103.64 106.013 1103.64 110.024ZM1097.18 110.024C1097.18 106.568 1096.89 103.677 1096.31 101.352C1095.76 99.0267 1095 97.16 1094.04 95.752C1093.1 94.3227 1092.01 93.3093 1090.78 92.712C1089.54 92.1147 1088.25 91.816 1086.9 91.816C1085.56 91.816 1084.27 92.1147 1083.03 92.712C1081.79 93.3093 1080.7 94.3227 1079.74 95.752C1078.8 97.16 1078.05 99.0267 1077.5 101.352C1076.94 103.677 1076.66 106.568 1076.66 110.024C1076.66 113.48 1076.94 116.371 1077.5 118.696C1078.05 121.021 1078.8 122.888 1079.74 124.296C1080.7 125.704 1081.79 126.707 1083.03 127.304C1084.27 127.901 1085.56 128.2 1086.9 128.2C1088.25 128.2 1089.54 127.901 1090.78 127.304C1092.01 126.707 1093.1 125.704 1094.04 124.296C1095 122.888 1095.76 121.021 1096.31 118.696C1096.89 116.371 1097.18 113.48 1097.18 110.024ZM1140.76 110.024C1140.76 114.035 1140.33 117.512 1139.45 120.456C1138.6 123.4 1137.41 125.843 1135.9 127.784C1134.41 129.704 1132.64 131.133 1130.59 132.072C1128.56 133.011 1126.37 133.48 1124.03 133.48C1121.68 133.48 1119.48 133.011 1117.44 132.072C1115.41 131.133 1113.65 129.704 1112.16 127.784C1110.66 125.843 1109.49 123.4 1108.64 120.456C1107.78 117.512 1107.36 114.035 1107.36 110.024C1107.36 106.013 1107.78 102.536 1108.64 99.592C1109.49 96.6267 1110.66 94.184 1112.16 92.264C1113.65 90.3227 1115.41 88.8827 1117.44 87.944C1119.48 87.0053 1121.68 86.536 1124.03 86.536C1126.37 86.536 1128.56 87.0053 1130.59 87.944C1132.64 88.8827 1134.41 90.3227 1135.9 92.264C1137.41 94.184 1138.6 96.6267 1139.45 99.592C1140.33 102.536 1140.76 106.013 1140.76 110.024ZM1134.3 110.024C1134.3 106.568 1134.01 103.677 1133.44 101.352C1132.88 99.0267 1132.12 97.16 1131.16 95.752C1130.23 94.3227 1129.14 93.3093 1127.9 92.712C1126.66 92.1147 1125.37 91.816 1124.03 91.816C1122.68 91.816 1121.39 92.1147 1120.16 92.712C1118.92 93.3093 1117.82 94.3227 1116.86 95.752C1115.92 97.16 1115.17 99.0267 1114.62 101.352C1114.07 103.677 1113.79 106.568 1113.79 110.024C1113.79 113.48 1114.07 116.371 1114.62 118.696C1115.17 121.021 1115.92 122.888 1116.86 124.296C1117.82 125.704 1118.92 126.707 1120.16 127.304C1121.39 127.901 1122.68 128.2 1124.03 128.2C1125.37 128.2 1126.66 127.901 1127.9 127.304C1129.14 126.707 1130.23 125.704 1131.16 124.296C1132.12 122.888 1132.88 121.021 1133.44 118.696C1134.01 116.371 1134.3 113.48 1134.3 110.024ZM1177.89 110.024C1177.89 114.035 1177.45 117.512 1176.58 120.456C1175.72 123.4 1174.54 125.843 1173.03 127.784C1171.53 129.704 1169.76 131.133 1167.71 132.072C1165.69 133.011 1163.5 133.48 1161.15 133.48C1158.81 133.48 1156.61 133.011 1154.56 132.072C1152.53 131.133 1150.77 129.704 1149.28 127.784C1147.79 125.843 1146.61 123.4 1145.76 120.456C1144.91 117.512 1144.48 114.035 1144.48 110.024C1144.48 106.013 1144.91 102.536 1145.76 99.592C1146.61 96.6267 1147.79 94.184 1149.28 92.264C1150.77 90.3227 1152.53 88.8827 1154.56 87.944C1156.61 87.0053 1158.81 86.536 1161.15 86.536C1163.5 86.536 1165.69 87.0053 1167.71 87.944C1169.76 88.8827 1171.53 90.3227 1173.03 92.264C1174.54 94.184 1175.72 96.6267 1176.58 99.592C1177.45 102.536 1177.89 106.013 1177.89 110.024ZM1171.43 110.024C1171.43 106.568 1171.14 103.677 1170.56 101.352C1170.01 99.0267 1169.25 97.16 1168.29 95.752C1167.35 94.3227 1166.26 93.3093 1165.03 92.712C1163.79 92.1147 1162.5 91.816 1161.15 91.816C1159.81 91.816 1158.52 92.1147 1157.28 92.712C1156.04 93.3093 1154.95 94.3227 1153.99 95.752C1153.05 97.16 1152.3 99.0267 1151.75 101.352C1151.19 103.677 1150.91 106.568 1150.91 110.024C1150.91 113.48 1151.19 116.371 1151.75 118.696C1152.3 121.021 1153.05 122.888 1153.99 124.296C1154.95 125.704 1156.04 126.707 1157.28 127.304C1158.52 127.901 1159.81 128.2 1161.15 128.2C1162.5 128.2 1163.79 127.901 1165.03 127.304C1166.26 126.707 1167.35 125.704 1168.29 124.296C1169.25 122.888 1170.01 121.021 1170.56 118.696C1171.14 116.371 1171.43 113.48 1171.43 110.024ZM1213.73 113.896H1200.84V127.496H1195.75V113.896H1182.92V109.16H1195.75V95.624H1200.84V109.16H1213.73V113.896Z" fill="white"/>
<path d="M1250 302C1250 313.046 1241.05 322 1230 322L980 322C968.954 322 960 313.046 960 302L960 181L1250 181L1250 302Z" fill="#262626"/>
<path d="M1047.55 252.82C1047.55 253.893 1047.38 254.88 1047.03 255.78C1046.69 256.673 1046.21 257.447 1045.58 258.1C1044.95 258.747 1044.2 259.25 1043.33 259.61C1042.46 259.97 1041.49 260.15 1040.42 260.15C1039.36 260.15 1038.39 259.97 1037.51 259.61C1036.64 259.25 1035.89 258.747 1035.26 258.1C1034.64 257.447 1034.16 256.673 1033.81 255.78C1033.46 254.88 1033.29 253.893 1033.29 252.82C1033.29 251.753 1033.46 250.77 1033.81 249.87C1034.16 248.97 1034.64 248.197 1035.26 247.55C1035.89 246.897 1036.64 246.39 1037.51 246.03C1038.39 245.663 1039.36 245.48 1040.42 245.48C1041.49 245.48 1042.46 245.663 1043.33 246.03C1044.2 246.39 1044.95 246.897 1045.58 247.55C1046.21 248.197 1046.69 248.97 1047.03 249.87C1047.38 250.77 1047.55 251.753 1047.55 252.82ZM1045.37 252.82C1045.37 251.967 1045.25 251.2 1045.02 250.52C1044.79 249.84 1044.45 249.263 1044.02 248.79C1043.59 248.317 1043.07 247.953 1042.46 247.7C1041.85 247.447 1041.17 247.32 1040.42 247.32C1039.67 247.32 1038.98 247.447 1038.37 247.7C1037.76 247.953 1037.24 248.317 1036.81 248.79C1036.38 249.263 1036.04 249.84 1035.81 250.52C1035.58 251.2 1035.46 251.967 1035.46 252.82C1035.46 253.68 1035.58 254.45 1035.81 255.13C1036.04 255.803 1036.38 256.377 1036.81 256.85C1037.24 257.323 1037.76 257.687 1038.37 257.94C1038.98 258.187 1039.67 258.31 1040.42 258.31C1041.17 258.31 1041.85 258.187 1042.46 257.94C1043.07 257.687 1043.59 257.323 1044.02 256.85C1044.45 256.377 1044.79 255.803 1045.02 255.13C1045.25 254.45 1045.37 253.68 1045.37 252.82ZM1055.35 258.31C1055.89 258.31 1056.35 258.247 1056.73 258.12C1057.12 257.993 1057.43 257.82 1057.67 257.6C1057.92 257.38 1058.1 257.12 1058.21 256.82C1058.33 256.513 1058.38 256.18 1058.38 255.82C1058.38 255.107 1058.14 254.547 1057.64 254.14C1057.15 253.727 1056.39 253.52 1055.35 253.52H1052.35V258.31H1055.35ZM1052.35 247.31V252.01H1054.8C1055.85 252.01 1056.63 251.8 1057.13 251.38C1057.65 250.953 1057.9 250.38 1057.9 249.66C1057.9 248.84 1057.66 248.243 1057.17 247.87C1056.69 247.497 1055.93 247.31 1054.9 247.31H1052.35ZM1054.9 245.64C1055.8 245.64 1056.57 245.727 1057.21 245.9C1057.86 246.073 1058.39 246.323 1058.8 246.65C1059.22 246.977 1059.52 247.373 1059.71 247.84C1059.91 248.3 1060.01 248.823 1060.01 249.41C1060.01 249.757 1059.96 250.09 1059.85 250.41C1059.75 250.73 1059.58 251.03 1059.36 251.31C1059.14 251.583 1058.87 251.83 1058.53 252.05C1058.2 252.27 1057.81 252.453 1057.35 252.6C1059.44 253.013 1060.48 254.103 1060.48 255.87C1060.48 256.483 1060.37 257.043 1060.14 257.55C1059.92 258.05 1059.59 258.483 1059.15 258.85C1058.72 259.217 1058.19 259.5 1057.55 259.7C1056.92 259.9 1056.2 260 1055.39 260H1050.22V245.64H1054.9ZM1068.81 258.29C1069.38 258.29 1069.9 258.193 1070.35 258C1070.8 257.807 1071.19 257.537 1071.5 257.19C1071.81 256.837 1072.05 256.42 1072.22 255.94C1072.39 255.453 1072.47 254.917 1072.47 254.33V245.64H1074.59V254.33C1074.59 255.17 1074.46 255.947 1074.19 256.66C1073.92 257.373 1073.54 257.99 1073.04 258.51C1072.54 259.03 1071.93 259.437 1071.22 259.73C1070.51 260.023 1069.7 260.17 1068.81 260.17C1067.92 260.17 1067.11 260.023 1066.4 259.73C1065.69 259.437 1065.08 259.03 1064.58 258.51C1064.08 257.99 1063.7 257.373 1063.43 256.66C1063.16 255.947 1063.03 255.17 1063.03 254.33V245.64H1065.16V254.32C1065.16 254.907 1065.24 255.443 1065.4 255.93C1065.57 256.417 1065.81 256.837 1066.12 257.19C1066.43 257.537 1066.82 257.807 1067.27 258C1067.72 258.193 1068.24 258.29 1068.81 258.29ZM1089.72 245.64V260H1088.64C1088.47 260 1088.33 259.97 1088.22 259.91C1088.11 259.85 1088 259.753 1087.89 259.62L1079.78 249.13C1079.79 249.31 1079.8 249.487 1079.81 249.66C1079.82 249.833 1079.83 249.997 1079.83 250.15V260H1077.96V245.64H1079.06C1079.24 245.64 1079.38 245.663 1079.48 245.71C1079.57 245.75 1079.67 245.847 1079.79 246L1087.92 256.5C1087.9 256.307 1087.88 256.12 1087.87 255.94C1087.86 255.753 1087.86 255.58 1087.86 255.42V245.64H1089.72ZM1100.9 254.65L1098.77 249.08C1098.62 248.7 1098.46 248.22 1098.31 247.64C1098.24 247.927 1098.16 248.193 1098.08 248.44C1098.01 248.687 1097.93 248.907 1097.86 249.1L1095.74 254.65H1100.9ZM1105.11 260H1103.47C1103.28 260 1103.13 259.953 1103.01 259.86C1102.89 259.767 1102.8 259.647 1102.75 259.5L1101.48 256.17H1095.15L1093.88 259.5C1093.83 259.627 1093.75 259.743 1093.62 259.85C1093.49 259.95 1093.34 260 1093.16 260H1091.52L1097.24 245.64H1099.39L1105.11 260ZM1116.54 256.92C1116.66 256.92 1116.77 256.967 1116.85 257.06L1117.69 257.98C1117.11 258.673 1116.39 259.21 1115.54 259.59C1114.7 259.97 1113.69 260.16 1112.5 260.16C1111.46 260.16 1110.52 259.98 1109.67 259.62C1108.83 259.26 1108.11 258.757 1107.51 258.11C1106.92 257.463 1106.46 256.69 1106.13 255.79C1105.81 254.89 1105.64 253.9 1105.64 252.82C1105.64 251.74 1105.81 250.75 1106.15 249.85C1106.5 248.95 1106.98 248.177 1107.6 247.53C1108.22 246.883 1108.96 246.38 1109.82 246.02C1110.69 245.66 1111.65 245.48 1112.69 245.48C1113.71 245.48 1114.62 245.647 1115.41 245.98C1116.21 246.313 1116.9 246.757 1117.48 247.31L1116.78 248.3C1116.74 248.373 1116.68 248.433 1116.6 248.48C1116.54 248.527 1116.45 248.55 1116.33 248.55C1116.21 248.55 1116.06 248.487 1115.88 248.36C1115.72 248.233 1115.49 248.093 1115.21 247.94C1114.94 247.78 1114.6 247.637 1114.19 247.51C1113.79 247.383 1113.28 247.32 1112.67 247.32C1111.96 247.32 1111.31 247.447 1110.71 247.7C1110.12 247.947 1109.61 248.307 1109.17 248.78C1108.75 249.247 1108.41 249.823 1108.17 250.51C1107.94 251.19 1107.82 251.96 1107.82 252.82C1107.82 253.693 1107.95 254.47 1108.19 255.15C1108.44 255.83 1108.78 256.407 1109.21 256.88C1109.65 257.353 1110.16 257.713 1110.74 257.96C1111.33 258.207 1111.96 258.33 1112.64 258.33C1113.06 258.33 1113.43 258.307 1113.75 258.26C1114.09 258.207 1114.39 258.13 1114.66 258.03C1114.94 257.93 1115.21 257.803 1115.45 257.65C1115.7 257.49 1115.94 257.3 1116.18 257.08C1116.24 257.033 1116.29 256.997 1116.35 256.97C1116.41 256.937 1116.48 256.92 1116.54 256.92ZM1131.59 245.64V260H1129.46V253.53H1121.97V260H1119.83V245.64H1121.97V251.98H1129.46V245.64H1131.59ZM1137.29 260H1135.15V245.64H1137.29V260ZM1149.05 258.21V260H1140.83V245.64H1142.96V258.21H1149.05ZM1158.75 254.65L1156.62 249.08C1156.47 248.7 1156.31 248.22 1156.16 247.64C1156.09 247.927 1156.01 248.193 1155.93 248.44C1155.86 248.687 1155.78 248.907 1155.71 249.1L1153.59 254.65H1158.75ZM1162.96 260H1161.32C1161.13 260 1160.98 259.953 1160.86 259.86C1160.74 259.767 1160.65 259.647 1160.6 259.5L1159.33 256.17H1153L1151.73 259.5C1151.68 259.627 1151.6 259.743 1151.47 259.85C1151.34 259.95 1151.19 260 1151.01 260H1149.37L1155.09 245.64H1157.24L1162.96 260ZM1168.82 252.56C1169.37 252.56 1169.85 252.493 1170.26 252.36C1170.68 252.227 1171.03 252.04 1171.31 251.8C1171.59 251.553 1171.8 251.263 1171.94 250.93C1172.08 250.59 1172.15 250.217 1172.15 249.81C1172.15 248.983 1171.88 248.36 1171.33 247.94C1170.79 247.52 1169.98 247.31 1168.89 247.31H1166.88V252.56H1168.82ZM1175.52 260H1173.62C1173.24 260 1172.97 259.85 1172.79 259.55L1169.24 254.57C1169.13 254.403 1169.01 254.287 1168.87 254.22C1168.74 254.147 1168.54 254.11 1168.27 254.11H1166.88V260H1164.75V245.64H1168.89C1169.82 245.64 1170.62 245.737 1171.28 245.93C1171.96 246.117 1172.51 246.387 1172.94 246.74C1173.38 247.087 1173.71 247.507 1173.91 248C1174.13 248.493 1174.23 249.047 1174.23 249.66C1174.23 250.16 1174.16 250.63 1174 251.07C1173.85 251.51 1173.62 251.907 1173.32 252.26C1173.03 252.607 1172.67 252.907 1172.24 253.16C1171.82 253.413 1171.33 253.607 1170.79 253.74C1171.06 253.9 1171.29 254.123 1171.48 254.41L1175.52 260Z" fill="white"/>
<path d="M30 58C30 46.9543 38.9543 38 50 38H300C311.046 38 320 46.9543 320 58V179H30V58Z" fill="#262626"/>
<path d="M320 302C320 313.046 311.046 322 300 322L50 322C38.9543 322 30 313.046 30 302L30 181L320 181L320 302Z" fill="#262626"/>
<path d="M150.865 134.08C151.547 134.08 152.081 134.283 152.465 134.688C152.849 135.072 153.041 135.584 153.041 136.224V140H122.193V137.856C122.193 137.429 122.278 136.981 122.449 136.512C122.619 136.021 122.907 135.584 123.312 135.2L137.841 120.64C139.057 119.424 140.155 118.251 141.137 117.12C142.118 115.989 142.95 114.869 143.633 113.76C144.315 112.629 144.838 111.477 145.201 110.304C145.585 109.131 145.777 107.893 145.777 106.592C145.777 105.312 145.574 104.192 145.169 103.232C144.763 102.251 144.209 101.44 143.505 100.8C142.801 100.16 141.969 99.68 141.009 99.36C140.049 99.04 139.014 98.88 137.905 98.88C136.795 98.88 135.771 99.04 134.833 99.36C133.915 99.68 133.094 100.128 132.369 100.704C131.643 101.28 131.035 101.963 130.545 102.752C130.054 103.541 129.702 104.395 129.489 105.312C129.19 106.123 128.806 106.667 128.337 106.944C127.889 107.221 127.227 107.285 126.353 107.136L123.089 106.56C123.387 104.427 123.974 102.549 124.849 100.928C125.723 99.3067 126.822 97.952 128.145 96.864C129.467 95.7547 130.982 94.9227 132.689 94.368C134.417 93.8133 136.273 93.536 138.257 93.536C140.262 93.536 142.107 93.8347 143.793 94.432C145.499 95.008 146.971 95.8507 148.209 96.96C149.446 98.0693 150.417 99.424 151.121 101.024C151.825 102.603 152.177 104.395 152.177 106.4C152.177 108.107 151.921 109.696 151.409 111.168C150.918 112.619 150.235 114.005 149.361 115.328C148.507 116.651 147.505 117.941 146.353 119.2C145.222 120.437 144.017 121.696 142.737 122.976L131.089 134.88C131.985 134.645 132.881 134.453 133.777 134.304C134.694 134.155 135.558 134.08 136.369 134.08H150.865ZM191.701 117.024C191.701 121.035 191.264 124.512 190.39 127.456C189.536 130.4 188.352 132.843 186.838 134.784C185.344 136.704 183.574 138.133 181.526 139.072C179.499 140.011 177.312 140.48 174.966 140.48C172.619 140.48 170.422 140.011 168.374 139.072C166.347 138.133 164.587 136.704 163.094 134.784C161.6 132.843 160.427 130.4 159.574 127.456C158.72 124.512 158.294 121.035 158.294 117.024C158.294 113.013 158.72 109.536 159.574 106.592C160.427 103.627 161.6 101.184 163.094 99.264C164.587 97.3227 166.347 95.8827 168.374 94.944C170.422 94.0053 172.619 93.536 174.966 93.536C177.312 93.536 179.499 94.0053 181.526 94.944C183.574 95.8827 185.344 97.3227 186.838 99.264C188.352 101.184 189.536 103.627 190.39 106.592C191.264 109.536 191.701 113.013 191.701 117.024ZM185.238 117.024C185.238 113.568 184.95 110.677 184.374 108.352C183.819 106.027 183.062 104.16 182.102 102.752C181.163 101.323 180.075 100.309 178.838 99.712C177.6 99.1147 176.31 98.816 174.966 98.816C173.622 98.816 172.331 99.1147 171.094 99.712C169.856 100.309 168.758 101.323 167.798 102.752C166.859 104.16 166.112 106.027 165.558 108.352C165.003 110.677 164.726 113.568 164.726 117.024C164.726 120.48 165.003 123.371 165.558 125.696C166.112 128.021 166.859 129.888 167.798 131.296C168.758 132.704 169.856 133.707 171.094 134.304C172.331 134.901 173.622 135.2 174.966 135.2C176.31 135.2 177.6 134.901 178.838 134.304C180.075 133.707 181.163 132.704 182.102 131.296C183.062 129.888 183.819 128.021 184.374 125.696C184.95 123.371 185.238 120.48 185.238 117.024ZM227.547 120.896H214.651V134.496H209.562V120.896H196.731V116.16H209.562V102.624H214.651V116.16H227.547V120.896Z" fill="white"/>
<path d="M125.844 239.64V254H123.714V247.53H116.224V254H114.084V239.64H116.224V245.98H123.714V239.64H125.844ZM137.027 248.65L134.897 243.08C134.744 242.7 134.59 242.22 134.437 241.64C134.364 241.927 134.287 242.193 134.207 242.44C134.134 242.687 134.06 242.907 133.987 243.1L131.867 248.65H137.027ZM141.237 254H139.597C139.41 254 139.257 253.953 139.137 253.86C139.017 253.767 138.93 253.647 138.877 253.5L137.607 250.17H131.277L130.007 253.5C129.96 253.627 129.874 253.743 129.747 253.85C129.62 253.95 129.467 254 129.287 254H127.647L133.367 239.64H135.517L141.237 254ZM158.13 239.64V254H156.27V243.78C156.27 243.627 156.273 243.463 156.28 243.29C156.293 243.117 156.306 242.94 156.32 242.76L151.54 251.53C151.373 251.857 151.116 252.02 150.77 252.02H150.47C150.123 252.02 149.87 251.857 149.71 251.53L144.84 242.73C144.88 243.103 144.9 243.453 144.9 243.78V254H143.03V239.64H144.61C144.796 239.64 144.94 239.66 145.04 239.7C145.146 239.733 145.246 239.833 145.34 240L150.14 248.6C150.233 248.773 150.32 248.957 150.4 249.15C150.48 249.343 150.556 249.537 150.63 249.73C150.77 249.337 150.933 248.957 151.12 248.59L155.83 240C155.916 239.833 156.01 239.733 156.11 239.7C156.216 239.66 156.363 239.64 156.55 239.64H158.13ZM163.812 245.85H164.512C164.765 245.85 164.969 245.82 165.122 245.76C165.282 245.693 165.425 245.583 165.552 245.43L170.122 240.12C170.269 239.94 170.419 239.817 170.572 239.75C170.725 239.677 170.915 239.64 171.142 239.64H172.962L167.642 245.76C167.509 245.933 167.375 246.073 167.242 246.18C167.115 246.287 166.982 246.377 166.842 246.45C167.209 246.577 167.529 246.833 167.802 247.22L173.332 254H171.482C171.349 254 171.232 253.99 171.132 253.97C171.039 253.95 170.955 253.923 170.882 253.89C170.815 253.85 170.752 253.803 170.692 253.75C170.639 253.697 170.589 253.633 170.542 253.56L165.812 247.96C165.745 247.873 165.679 247.8 165.612 247.74C165.545 247.68 165.469 247.633 165.382 247.6C165.295 247.56 165.195 247.533 165.082 247.52C164.969 247.5 164.835 247.49 164.682 247.49H163.812V254H161.682V239.64H163.812V245.85ZM187.621 246.82C187.621 247.893 187.447 248.88 187.101 249.78C186.761 250.673 186.277 251.447 185.651 252.1C185.024 252.747 184.274 253.25 183.401 253.61C182.527 253.97 181.557 254.15 180.491 254.15C179.431 254.15 178.461 253.97 177.581 253.61C176.707 253.25 175.957 252.747 175.331 252.1C174.711 251.447 174.227 250.673 173.881 249.78C173.534 248.88 173.361 247.893 173.361 246.82C173.361 245.753 173.534 244.77 173.881 243.87C174.227 242.97 174.711 242.197 175.331 241.55C175.957 240.897 176.707 240.39 177.581 240.03C178.461 239.663 179.431 239.48 180.491 239.48C181.557 239.48 182.527 239.663 183.401 240.03C184.274 240.39 185.024 240.897 185.651 241.55C186.277 242.197 186.761 242.97 187.101 243.87C187.447 244.77 187.621 245.753 187.621 246.82ZM185.441 246.82C185.441 245.967 185.324 245.2 185.091 244.52C184.857 243.84 184.524 243.263 184.091 242.79C183.664 242.317 183.144 241.953 182.531 241.7C181.924 241.447 181.244 241.32 180.491 241.32C179.737 241.32 179.054 241.447 178.441 241.7C177.834 241.953 177.314 242.317 176.881 242.79C176.447 243.263 176.114 243.84 175.881 244.52C175.647 245.2 175.531 245.967 175.531 246.82C175.531 247.68 175.647 248.45 175.881 249.13C176.114 249.803 176.447 250.377 176.881 250.85C177.314 251.323 177.834 251.687 178.441 251.94C179.054 252.187 179.737 252.31 180.491 252.31C181.244 252.31 181.924 252.187 182.531 251.94C183.144 251.687 183.664 251.323 184.091 250.85C184.524 250.377 184.857 249.803 185.091 249.13C185.324 248.45 185.441 247.68 185.441 246.82ZM194.365 246.56C194.912 246.56 195.392 246.493 195.805 246.36C196.225 246.227 196.575 246.04 196.855 245.8C197.135 245.553 197.345 245.263 197.485 244.93C197.625 244.59 197.695 244.217 197.695 243.81C197.695 242.983 197.422 242.36 196.875 241.94C196.335 241.52 195.522 241.31 194.435 241.31H192.425V246.56H194.365ZM201.065 254H199.165C198.785 254 198.509 253.85 198.335 253.55L194.785 248.57C194.672 248.403 194.549 248.287 194.415 248.22C194.282 248.147 194.082 248.11 193.815 248.11H192.425V254H190.295V239.64H194.435C195.362 239.64 196.159 239.737 196.825 239.93C197.499 240.117 198.052 240.387 198.485 240.74C198.925 241.087 199.249 241.507 199.455 242C199.669 242.493 199.775 243.047 199.775 243.66C199.775 244.16 199.699 244.63 199.545 245.07C199.392 245.51 199.165 245.907 198.865 246.26C198.572 246.607 198.212 246.907 197.785 247.16C197.359 247.413 196.875 247.607 196.335 247.74C196.602 247.9 196.832 248.123 197.025 248.41L201.065 254ZM211.133 252.21V254H202.913V239.64H205.043V252.21H211.133ZM220.836 248.65L218.706 243.08C218.552 242.7 218.399 242.22 218.246 241.64C218.172 241.927 218.096 242.193 218.016 242.44C217.942 242.687 217.869 242.907 217.796 243.1L215.676 248.65H220.836ZM225.046 254H223.406C223.219 254 223.066 253.953 222.946 253.86C222.826 253.767 222.739 253.647 222.686 253.5L221.416 250.17H215.086L213.816 253.5C213.769 253.627 213.682 253.743 213.556 253.85C213.429 253.95 213.276 254 213.096 254H211.456L217.176 239.64H219.326L225.046 254ZM230.908 246.56C231.455 246.56 231.935 246.493 232.348 246.36C232.768 246.227 233.118 246.04 233.398 245.8C233.678 245.553 233.888 245.263 234.028 244.93C234.168 244.59 234.238 244.217 234.238 243.81C234.238 242.983 233.965 242.36 233.418 241.94C232.878 241.52 232.065 241.31 230.978 241.31H228.968V246.56H230.908ZM237.608 254H235.708C235.328 254 235.052 253.85 234.878 253.55L231.328 248.57C231.215 248.403 231.092 248.287 230.958 248.22C230.825 248.147 230.625 248.11 230.358 248.11H228.968V254H226.838V239.64H230.978C231.905 239.64 232.702 239.737 233.368 239.93C234.042 240.117 234.595 240.387 235.028 240.74C235.468 241.087 235.792 241.507 235.998 242C236.212 242.493 236.318 243.047 236.318 243.66C236.318 244.16 236.242 244.63 236.088 245.07C235.935 245.51 235.708 245.907 235.408 246.26C235.115 246.607 234.755 246.907 234.328 247.16C233.902 247.413 233.418 247.607 232.878 247.74C233.145 247.9 233.375 248.123 233.568 248.41L237.608 254Z" fill="white"/>
</svg>
