<svg width="34" height="34" viewBox="0 0 34 34" fill="none" xmlns="http://www.w3.org/2000/svg">
<rect width="34" height="34" rx="9" fill="white"/>
<path d="M25.3077 15H8.69231C8.31385 15 8 14.5467 8 14C8 13.4533 8.31385 13 8.69231 13H25.3077C25.6862 13 26 13.4533 26 14C26 14.5467 25.6862 15 25.3077 15Z" fill="#292D32"/>
<path d="M25.3077 21H8.69231C8.31385 21 8 20.5467 8 20C8 19.4533 8.31385 19 8.69231 19H25.3077C25.6862 19 26 19.4533 26 20C26 20.5467 25.6862 21 25.3077 21Z" fill="#292D32"/>
</svg>
