<svg width="48" height="48" viewBox="0 0 48 48" fill="none" xmlns="http://www.w3.org/2000/svg">
<circle cx="24" cy="24" r="24" fill="#F3EFEF"/>
<path fill-rule="evenodd" clip-rule="evenodd" d="M23.017 14.802C21.2812 14.9876 19.6334 15.6606 18.264 16.7431C16.8946 17.8257 15.8594 19.2737 15.2782 20.9197C14.697 22.5657 14.5934 24.3427 14.9794 26.0451C15.3655 27.7475 16.2253 29.306 17.4597 30.5403C18.694 31.7747 20.2525 32.6345 21.9549 33.0206C23.6573 33.4066 25.4343 33.303 27.0803 32.7218C28.7263 32.1406 30.1743 31.1054 31.2569 29.736C32.3394 28.3666 33.0124 26.7188 33.198 24.983C32.5644 25.7881 31.7673 26.4497 30.8594 26.9243C29.9515 27.3989 28.9533 27.6757 27.9306 27.7364C26.9079 27.7972 25.8839 27.6404 24.9262 27.2766C23.9685 26.9128 23.0987 26.3501 22.3743 25.6257C21.6499 24.9013 21.0872 24.0315 20.7234 23.0738C20.3596 22.1161 20.2028 21.0921 20.2636 20.0694C20.3243 19.0467 20.6011 18.0485 21.0757 17.1406C21.5503 16.2327 22.2119 15.4356 23.017 14.802ZM13.25 24C13.25 18.063 18.063 13.25 24 13.25C24.717 13.25 25.075 13.821 25.137 14.276C25.196 14.714 25.034 15.271 24.531 15.575C23.7839 16.0259 23.1493 16.6408 22.6751 17.3733C22.201 18.1058 21.8997 18.9366 21.7942 19.8027C21.6888 20.6689 21.7818 21.5477 22.0662 22.3726C22.3507 23.1975 22.8192 23.9468 23.4362 24.5638C24.0532 25.1808 24.8025 25.6493 25.6274 25.9338C26.4523 26.2182 27.3311 26.3112 28.1973 26.2058C29.0634 26.1003 29.8942 25.799 30.6267 25.3249C31.3592 24.8507 31.9741 24.2161 32.425 23.469C32.729 22.966 33.286 22.804 33.724 22.863C34.179 22.925 34.75 23.283 34.75 24C34.75 29.937 29.937 34.75 24 34.75C18.063 34.75 13.25 29.937 13.25 24Z" fill="black"/>
</svg>
