<svg width="48" height="48" viewBox="0 0 48 48" fill="none" xmlns="http://www.w3.org/2000/svg">
<circle cx="24" cy="24" r="24" fill="#F3EFEF"/>
<path d="M30.5334 37.3334H17.4667C15.2 37.3334 13.3334 35.48 13.3334 33.2V14.8C13.3334 12.5334 15.1867 10.6667 17.4667 10.6667H30.5334C32.8 10.6667 34.6667 12.52 34.6667 14.8V33.2C34.6667 35.48 32.8134 37.3334 30.5334 37.3334Z" stroke="#292D32" stroke-width="1.5" stroke-linecap="round" stroke-linejoin="round"/>
<path d="M32.6667 25.3334H15.3334C14.2267 25.3334 13.3334 24.44 13.3334 23.3334V20.6667C13.3334 19.56 14.2267 18.6667 15.3334 18.6667H32.6667C33.7734 18.6667 34.6667 19.56 34.6667 20.6667V23.3334C34.6667 24.44 33.7734 25.3334 32.6667 25.3334Z" stroke="#292D32" stroke-width="1.5" stroke-linecap="round" stroke-linejoin="round"/>
<path d="M19.326 31.6H19.3379" stroke="#292D32" stroke-width="2.5" stroke-linecap="round" stroke-linejoin="round"/>
<path d="M28.6593 31.6H28.6713" stroke="#292D32" stroke-width="2.5" stroke-linecap="round" stroke-linejoin="round"/>
<path d="M20.6666 14.6667H27.3333" stroke="#292D32" stroke-width="1.5" stroke-linecap="round" stroke-linejoin="round"/>
</svg>
