<svg width="48" height="48" viewBox="0 0 48 48" fill="none" xmlns="http://www.w3.org/2000/svg">
<circle cx="24" cy="24" r="24" fill="#F3EFEF"/>
<path d="M33.49 24C33.81 22.98 34 21.88 34 20.69C34 17.6 31.51 15.1 28.44 15.1C26.62 15.1 25.01 15.98 24 17.34C22.99 15.98 21.37 15.1 19.56 15.1C16.49 15.1 14 17.6 14 20.69C14 27.69 20.48 31.82 23.38 32.82C23.55 32.88 23.77 32.91 24 32.91" stroke="#292D32" stroke-width="1.5" stroke-linecap="round" stroke-linejoin="round"/>
<path d="M29.74 33C31.5073 33 32.94 31.5673 32.94 29.8C32.94 28.0327 31.5073 26.6 29.74 26.6C27.9727 26.6 26.54 28.0327 26.54 29.8C26.54 31.5673 27.9727 33 29.74 33Z" stroke="#292D32" stroke-width="1.5" stroke-linecap="round" stroke-linejoin="round"/>
<path d="M33.54 33.6L32.54 32.6" stroke="#292D32" stroke-width="1.5" stroke-linecap="round" stroke-linejoin="round"/>
</svg>
