<svg width="48" height="48" viewBox="0 0 48 48" fill="none" xmlns="http://www.w3.org/2000/svg">
<circle cx="24" cy="24" r="24" fill="#F3EFEF"/>
<path d="M34.6267 21.3333H13.2933V32C13.2933 36 14.6267 37.3333 18.6267 37.3333H29.2933C33.2933 37.3333 34.6267 36 34.6267 32V21.3333Z" stroke="black" stroke-width="1.5" stroke-miterlimit="10" stroke-linecap="round" stroke-linejoin="round"/>
<path d="M36.6667 17.3334V18.6667C36.6667 20.1334 35.96 21.3334 34 21.3334H14C11.96 21.3334 11.3334 20.1334 11.3334 18.6667V17.3334C11.3334 15.8667 11.96 14.6667 14 14.6667H34C35.96 14.6667 36.6667 15.8667 36.6667 17.3334Z" stroke="black" stroke-width="1.5" stroke-miterlimit="10" stroke-linecap="round" stroke-linejoin="round"/>
<path d="M23.52 14.6666H16.16C15.7067 14.1733 15.72 13.4133 16.2 12.9333L18.0933 11.0399C18.5867 10.5466 19.4 10.5466 19.8933 11.0399L23.52 14.6666Z" stroke="black" stroke-width="1.5" stroke-miterlimit="10" stroke-linecap="round" stroke-linejoin="round"/>
<path d="M31.8267 14.6666H24.4667L28.0933 11.0399C28.5867 10.5466 29.4 10.5466 29.8933 11.0399L31.7867 12.9333C32.2667 13.4133 32.28 14.1733 31.8267 14.6666Z" stroke="black" stroke-width="1.5" stroke-miterlimit="10" stroke-linecap="round" stroke-linejoin="round"/>
<path d="M19.9199 21.3333V28.1866C19.9199 29.2533 21.0933 29.88 21.9866 29.3066L23.2399 28.48C23.6933 28.1866 24.2666 28.1866 24.7066 28.48L25.8933 29.28C26.7733 29.8666 27.9599 29.24 27.9599 28.1733V21.3333H19.9199Z" stroke="black" stroke-width="1.5" stroke-miterlimit="10" stroke-linecap="round" stroke-linejoin="round"/>
</svg>
