<svg width="48" height="48" viewBox="0 0 48 48" fill="none" xmlns="http://www.w3.org/2000/svg">
<circle cx="24" cy="24" r="24" fill="#F3EFEF"/>
<path d="M14.75 14C14.5511 14 14.3603 14.079 14.2197 14.2197C14.079 14.3603 14 14.5511 14 14.75V20.5C14 23.56 16.29 26.085 19.25 26.454V27.25C19.25 28.8413 19.8821 30.3674 21.0074 31.4926C22.1326 32.6179 23.6587 33.25 25.25 33.25C26.8413 33.25 28.3674 32.6179 29.4926 31.4926C30.6179 30.3674 31.25 28.8413 31.25 27.25V26.406C31.9566 26.2229 32.5722 25.7885 32.9816 25.1842C33.391 24.5799 33.5661 23.847 33.4741 23.1229C33.3822 22.3988 33.0295 21.7331 32.482 21.2503C31.9346 20.7675 31.2299 20.5007 30.5 20.5C29.769 20.4988 29.0626 20.7646 28.5137 21.2474C27.9648 21.7302 27.6111 22.3968 27.519 23.1221C27.4269 23.8473 27.6028 24.5812 28.0136 25.1859C28.4244 25.7906 29.0419 26.2244 29.75 26.406V27.25C29.75 28.4435 29.2759 29.5881 28.432 30.432C27.5881 31.2759 26.4435 31.75 25.25 31.75C24.0565 31.75 22.9119 31.2759 22.068 30.432C21.2241 29.5881 20.75 28.4435 20.75 27.25V26.454C22.2001 26.2713 23.5337 25.5656 24.5003 24.4693C25.467 23.373 26.0003 21.9616 26 20.5V14.75C26 14.5511 25.921 14.3603 25.7803 14.2197C25.6397 14.079 25.4489 14 25.25 14H22.75C22.5511 14 22.3603 14.079 22.2197 14.2197C22.079 14.3603 22 14.5511 22 14.75C22 14.9489 22.079 15.1397 22.2197 15.2803C22.3603 15.421 22.5511 15.5 22.75 15.5H24.5V20.5C24.5 21.6935 24.0259 22.8381 23.182 23.682C22.3381 24.5259 21.1935 25 20 25C18.8065 25 17.6619 24.5259 16.818 23.682C15.9741 22.8381 15.5 21.6935 15.5 20.5V15.5H17.25C17.4489 15.5 17.6397 15.421 17.7803 15.2803C17.921 15.1397 18 14.9489 18 14.75C18 14.5511 17.921 14.3603 17.7803 14.2197C17.6397 14.079 17.4489 14 17.25 14H14.75ZM30.5 22C30.8978 22 31.2794 22.158 31.5607 22.4393C31.842 22.7206 32 23.1022 32 23.5C32 23.8978 31.842 24.2794 31.5607 24.5607C31.2794 24.842 30.8978 25 30.5 25C30.1022 25 29.7206 24.842 29.4393 24.5607C29.158 24.2794 29 23.8978 29 23.5C29 23.1022 29.158 22.7206 29.4393 22.4393C29.7206 22.158 30.1022 22 30.5 22Z" fill="black"/>
</svg>
