<svg width="48" height="48" viewBox="0 0 48 48" fill="none" xmlns="http://www.w3.org/2000/svg">
<circle cx="24" cy="24" r="24" fill="#F3EFEF"/>
<path d="M15.5 19.75C15.5 19.5511 15.421 19.3603 15.2803 19.2197C15.1397 19.079 14.9489 19 14.75 19C14.5511 19 14.3603 19.079 14.2197 19.2197C14.079 19.3603 14 19.5511 14 19.75V32.75C14 33.44 14.56 34 15.25 34H32.75C33.44 34 34 33.44 34 32.75V19.75C34 19.5511 33.921 19.3603 33.7803 19.2197C33.6397 19.079 33.4489 19 33.25 19C33.0511 19 32.8603 19.079 32.7197 19.2197C32.579 19.3603 32.5 19.5511 32.5 19.75V25H30.002C30.3314 24.2077 30.5006 23.358 30.5 22.5C30.5 21.476 30.038 20.56 29.442 19.8C28.843 19.035 28.064 18.369 27.315 17.827C26.3903 17.1646 25.4081 16.5867 24.38 16.1L24.327 16.075L24.312 16.068L24.308 16.066H24.306C24.2094 16.0227 24.1048 16.0003 23.999 16.0003C23.8932 16.0003 23.7886 16.0227 23.692 16.066H23.69L23.686 16.068L23.671 16.075L23.618 16.1C23.5713 16.1207 23.5067 16.1517 23.424 16.193C22.4665 16.6599 21.5499 17.2065 20.684 17.827C19.935 18.369 19.156 19.035 18.557 19.799C17.962 20.56 17.5 21.476 17.5 22.5C17.5 23.386 17.677 24.23 17.998 25H15.5V19.75ZM28.331 25H19.67C19.2311 24.2399 19 23.3777 19 22.5C19 21.936 19.257 21.34 19.739 20.724C20.219 20.112 20.876 19.54 21.565 19.042C22.3352 18.4888 23.1496 17.9998 24 17.58C24.8503 17.9991 25.6647 18.4874 26.435 19.04C27.124 19.539 27.782 20.111 28.261 20.723C28.744 21.339 29 21.935 29 22.499C29 23.409 28.756 24.264 28.331 24.999M32.5 32.499H26.5V30.499C26.5 29.836 26.2366 29.2001 25.7678 28.7312C25.2989 28.2624 24.663 27.999 24 27.999C23.337 27.999 22.7011 28.2624 22.2322 28.7312C21.7634 29.2001 21.5 29.836 21.5 30.499V32.499H15.5V26.499H32.5V32.499ZM23 30.499C23 30.2338 23.1054 29.9794 23.2929 29.7919C23.4804 29.6044 23.7348 29.499 24 29.499C24.2652 29.499 24.5196 29.6044 24.7071 29.7919C24.8946 29.9794 25 30.2338 25 30.499V32.499H23V30.499ZM15.75 17C15.75 17.2652 15.6446 17.5196 15.4571 17.7071C15.2696 17.8946 15.0152 18 14.75 18C14.4848 18 14.2304 17.8946 14.0429 17.7071C13.8554 17.5196 13.75 17.2652 13.75 17C13.75 16.7348 13.8554 16.4804 14.0429 16.2929C14.2304 16.1054 14.4848 16 14.75 16C15.0152 16 15.2696 16.1054 15.4571 16.2929C15.6446 16.4804 15.75 16.7348 15.75 17ZM33.25 18C33.5152 18 33.7696 17.8946 33.9571 17.7071C34.1446 17.5196 34.25 17.2652 34.25 17C34.25 16.7348 34.1446 16.4804 33.9571 16.2929C33.7696 16.1054 33.5152 16 33.25 16C32.9848 16 32.7304 16.1054 32.5429 16.2929C32.3554 16.4804 32.25 16.7348 32.25 17C32.25 17.2652 32.3554 17.5196 32.5429 17.7071C32.7304 17.8946 32.9848 18 33.25 18Z" fill="black"/>
</svg>
