<svg width="48" height="48" viewBox="0 0 48 48" fill="none" xmlns="http://www.w3.org/2000/svg">
<circle cx="24" cy="24" r="24" fill="#F3EFEF"/>
<path d="M21 14C20.9116 14 20.8268 14.0351 20.7643 14.0976C20.7018 14.1601 20.6667 14.2449 20.6667 14.3333V19.6667C20.6667 19.9319 20.5613 20.1862 20.3738 20.3738C20.1862 20.5613 19.9319 20.6667 19.6667 20.6667H14.3333C14.2449 20.6667 14.1601 20.7018 14.0976 20.7643C14.0351 20.8268 14 20.9116 14 21V27C14 27.184 14.1493 27.3333 14.3333 27.3333H19.6667C19.9319 27.3333 20.1862 27.4387 20.3738 27.6262C20.5613 27.8138 20.6667 28.0681 20.6667 28.3333V33.6667C20.6667 33.8507 20.816 34 21 34H27C27.0884 34 27.1732 33.9649 27.2357 33.9024C27.2982 33.8399 27.3333 33.7551 27.3333 33.6667V28.3333C27.3333 28.0681 27.4387 27.8138 27.6262 27.6262C27.8138 27.4387 28.0681 27.3333 28.3333 27.3333H33.6667C33.7551 27.3333 33.8399 27.2982 33.9024 27.2357C33.9649 27.1732 34 27.0884 34 27V21C34 20.9116 33.9649 20.8268 33.9024 20.7643C33.8399 20.7018 33.7551 20.6667 33.6667 20.6667H28.3333C28.0681 20.6667 27.8138 20.5613 27.6262 20.3738C27.4387 20.1862 27.3333 19.9319 27.3333 19.6667V14.3333C27.3333 14.2449 27.2982 14.1601 27.2357 14.0976C27.1732 14.0351 27.0884 14 27 14H21ZM18.6667 14.3333C18.6667 13.0453 19.712 12 21 12H27C28.288 12 29.3333 13.0453 29.3333 14.3333V18.6667H33.6667C34.9547 18.6667 36 19.712 36 21V27C36 27.6188 35.7542 28.2123 35.3166 28.6499C34.879 29.0875 34.2855 29.3333 33.6667 29.3333H29.3333V33.6667C29.3333 34.2855 29.0875 34.879 28.6499 35.3166C28.2123 35.7542 27.6188 36 27 36H21C20.3812 36 19.7877 35.7542 19.3501 35.3166C18.9125 34.879 18.6667 34.2855 18.6667 33.6667V29.3333H14.3333C13.7145 29.3333 13.121 29.0875 12.6834 28.6499C12.2458 28.2123 12 27.6188 12 27V21C12 19.712 13.0453 18.6667 14.3333 18.6667H18.6667V14.3333Z" fill="black"/>
</svg>
