<svg width="48" height="48" viewBox="0 0 48 48" fill="none" xmlns="http://www.w3.org/2000/svg">
<circle cx="24" cy="24" r="24" fill="#F3EFEF"/>
<path d="M31.9285 31.7006H33.3034C33.7581 31.7006 34.1941 31.5199 34.5156 31.1985C34.8371 30.877 35.0177 30.4409 35.0177 29.9863V25.6406C35.0177 25.1859 34.8371 24.7499 34.5156 24.4284C34.1941 24.1069 33.7581 23.9263 33.3034 23.9263H32.3571M32.3571 23.9263V17.7857C32.3571 17.331 32.1765 16.895 31.855 16.5735C31.5335 16.252 31.0975 16.0714 30.6428 16.0714H14.8885C14.4339 16.0714 13.9978 16.252 13.6764 16.5735C13.3549 16.895 13.1743 17.331 13.1743 17.7857V30.2314C13.1743 31.0423 13.8325 31.7006 14.6434 31.7006H15.4285M32.3571 23.9263H13.1743M32.3571 19.2137H13.1743M19.6525 19.2137V23.9194M25.7674 19.2137V23.9194" stroke="black" stroke-width="1.5" stroke-linecap="round" stroke-linejoin="round"/>
<path d="M20.2046 31.6766C20.2046 32.3113 19.9524 32.92 19.5036 33.3688C19.0548 33.8176 18.4461 34.0697 17.8114 34.0697C17.1767 34.0697 16.568 33.8176 16.1192 33.3688C15.6704 32.92 15.4183 32.3113 15.4183 31.6766C15.4183 31.0419 15.6704 30.4332 16.1192 29.9844C16.568 29.5356 17.1767 29.2834 17.8114 29.2834C18.4461 29.2834 19.0548 29.5356 19.5036 29.9844C19.9524 30.4332 20.2046 31.0419 20.2046 31.6766ZM20.2046 31.6766H27.144M27.144 31.6766C27.144 32.3113 27.3961 32.92 27.8449 33.3688C28.2937 33.8176 28.9024 34.0697 29.5371 34.0697C30.1718 34.0697 30.7805 33.8176 31.2293 33.3688C31.6781 32.92 31.9303 32.3113 31.9303 31.6766C31.9303 31.0419 31.6781 30.4332 31.2293 29.9844C30.7805 29.5356 30.1718 29.2834 29.5371 29.2834C28.9024 29.2834 28.2937 29.5356 27.8449 29.9844C27.3961 30.4332 27.144 31.0419 27.144 31.6766Z" stroke="black" stroke-width="1.5" stroke-linecap="round" stroke-linejoin="round"/>
</svg>
