<svg width="48" height="48" viewBox="0 0 48 48" fill="none" xmlns="http://www.w3.org/2000/svg">
<circle cx="24" cy="24" r="24" fill="#F3EFEF"/>
<path d="M21.86 31L23.54 29.58C23.79 29.37 24.21 29.37 24.47 29.58L26.14 31C26.53 31.2 27.01 31 27.15 30.58L27.47 29.62C27.55 29.39 27.47 29.05 27.3 28.88L25.66 27.23C25.54 27.11 25.45 26.88 25.45 26.72V24.87C25.45 24.45 25.76 24.25 26.15 24.41L29.5 25.85C30.05 26.09 30.51 25.79 30.51 25.19V24.26C30.51 23.78 30.15 23.22 29.7 23.03L25.76 21.33C25.59 21.26 25.46 21.05 25.46 20.87V18.8C25.46 18.12 24.96 17.32 24.36 17.01C24.14 16.9 23.89 16.9 23.67 17.01C23.06 17.31 22.57 18.12 22.57 18.8V20.87C22.57 21.05 22.43 21.26 22.27 21.33L18.33 23.03C17.89 23.22 17.52 23.78 17.52 24.26V25.19C17.52 25.79 17.97 26.09 18.53 25.85L21.88 24.41C22.26 24.24 22.58 24.45 22.58 24.87V26.72C22.58 26.89 22.48 27.12 22.37 27.23L20.7 28.87C20.53 29.04 20.45 29.38 20.53 29.61L20.85 30.57C20.99 31 21.46 31.2 21.86 31Z" stroke="#292D32" stroke-width="1.5" stroke-linecap="round" stroke-linejoin="round"/>
<path d="M21 34H27C32 34 34 32 34 27V21C34 16 32 14 27 14H21C16 14 14 16 14 21V27C14 32 16 34 21 34Z" stroke="#292D32" stroke-width="1.5" stroke-linecap="round" stroke-linejoin="round"/>
</svg>
