<svg width="48" height="48" viewBox="0 0 48 48" fill="none" xmlns="http://www.w3.org/2000/svg">
<circle cx="24" cy="24" r="24" fill="#F3EFEF"/>
<path d="M31.9543 35.3339C30.7771 33.9027 29.2975 32.75 27.6218 31.9586C25.9461 31.1672 24.116 30.7567 22.2628 30.7567C20.4097 30.7567 18.5795 31.1672 16.9039 31.9586C15.2282 32.75 13.7486 33.9027 12.5714 35.3339" stroke="black" stroke-width="1.5" stroke-linecap="round" stroke-linejoin="round"/>
<path d="M23.9542 30.8769C24.0914 25.7112 25.6685 21.0026 29.0971 19.3112M22.2628 14.9683C23.7445 14.6765 25.2816 14.9643 26.5574 15.7723C27.8332 16.5803 28.7504 17.847 29.12 19.3112" stroke="black" stroke-width="1.5" stroke-linecap="round" stroke-linejoin="round"/>
<path d="M37.4628 20.157C36.4107 19.021 34.9802 18.3083 33.4398 18.1525C31.8994 17.9968 30.3551 18.4088 29.097 19.3113" stroke="black" stroke-width="1.5" stroke-linecap="round" stroke-linejoin="round"/>
<path d="M20.7087 21.7569C21.6044 20.4374 22.932 19.4713 24.463 19.0249C25.9941 18.5786 27.6328 18.6798 29.0973 19.3112C30.5663 19.6705 31.8381 20.5866 32.6442 21.8661C33.4502 23.1456 33.7275 24.6883 33.4173 26.1684" stroke="black" stroke-width="1.5" stroke-linecap="round" stroke-linejoin="round"/>
</svg>
