<svg width="48" height="48" viewBox="0 0 48 48" fill="none" xmlns="http://www.w3.org/2000/svg">
<circle cx="24" cy="24" r="24" fill="#F3EFEF"/>
<path d="M30 19.16C29.94 19.15 29.87 19.15 29.81 19.16C28.43 19.11 27.33 17.98 27.33 16.58C27.33 15.15 28.48 14 29.91 14C31.34 14 32.49 15.16 32.49 16.58C32.48 17.98 31.38 19.11 30 19.16Z" stroke="black" stroke-width="1.5" stroke-linecap="round" stroke-linejoin="round"/>
<path d="M28.97 26.44C30.34 26.67 31.85 26.43 32.91 25.72C34.32 24.78 34.32 23.24 32.91 22.3C31.84 21.59 30.31 21.35 28.94 21.59" stroke="black" stroke-width="1.5" stroke-linecap="round" stroke-linejoin="round"/>
<path d="M17.97 19.16C18.03 19.15 18.1 19.15 18.16 19.16C19.54 19.11 20.64 17.98 20.64 16.58C20.64 15.15 19.49 14 18.06 14C16.63 14 15.48 15.16 15.48 16.58C15.49 17.98 16.59 19.11 17.97 19.16Z" stroke="black" stroke-width="1.5" stroke-linecap="round" stroke-linejoin="round"/>
<path d="M19 26.44C17.63 26.67 16.12 26.43 15.06 25.72C13.65 24.78 13.65 23.24 15.06 22.3C16.13 21.59 17.66 21.35 19.03 21.59" stroke="black" stroke-width="1.5" stroke-linecap="round" stroke-linejoin="round"/>
<path d="M23.9999 26.3421C23.9243 26.3295 23.8361 26.3295 23.7605 26.3421C22.0213 26.2791 20.6351 24.855 20.6351 23.0907C20.6351 21.2885 22.0844 19.8392 23.8865 19.8392C25.6887 19.8392 27.1379 21.3011 27.1379 23.0907C27.1253 24.855 25.7391 26.2917 23.9999 26.3421Z" stroke="black" stroke-width="1.5" stroke-linecap="round" stroke-linejoin="round"/>
<path d="M20.3327 30.312C18.5557 31.4966 18.5557 33.4374 20.3327 34.622C22.349 35.9705 25.6509 35.9705 27.6673 34.622C29.4442 33.4374 29.4442 31.4966 27.6673 30.312C25.6635 28.9761 22.349 28.9761 20.3327 30.312Z" stroke="black" stroke-width="1.5" stroke-linecap="round" stroke-linejoin="round"/>
</svg>
