<svg width="48" height="48" viewBox="0 0 48 48" fill="none" xmlns="http://www.w3.org/2000/svg">
<circle cx="24" cy="24" r="24" fill="#F3EFEF"/>
<path d="M23.25 18.027V16.5H21C20.8011 16.5 20.6103 16.421 20.4697 16.2803C20.329 16.1397 20.25 15.9489 20.25 15.75C20.25 15.5511 20.329 15.3603 20.4697 15.2197C20.6103 15.079 20.8011 15 21 15H27C27.1989 15 27.3897 15.079 27.5303 15.2197C27.671 15.3603 27.75 15.5511 27.75 15.75C27.75 15.9489 27.671 16.1397 27.5303 16.2803C27.3897 16.421 27.1989 16.5 27 16.5H24.75V18.027C26.1889 18.1297 27.5913 18.5278 28.8695 19.1964C30.1478 19.8651 31.2746 20.79 32.1795 21.9134C33.0845 23.0368 33.7483 24.3346 34.1295 25.726C34.5107 27.1173 34.601 28.5722 34.395 30H13.605C13.399 28.5722 13.4894 27.1173 13.8705 25.726C14.2517 24.3346 14.9155 23.0368 15.8205 21.9134C16.7255 20.79 17.8522 19.8651 19.1305 19.1964C20.4088 18.5278 21.8111 18.1297 23.25 18.027ZM15 28.5H33C33 27.3181 32.7672 26.1478 32.3149 25.0558C31.8626 23.9639 31.1997 22.9718 30.364 22.136C29.5282 21.3003 28.5361 20.6374 27.4442 20.1851C26.3522 19.7328 25.1819 19.5 24 19.5C22.8181 19.5 21.6478 19.7328 20.5559 20.1851C19.4639 20.6374 18.4718 21.3003 17.6361 22.136C16.8003 22.9718 16.1374 23.9639 15.6851 25.0558C15.2328 26.1478 15 27.3181 15 28.5ZM14.25 31.5H33.75C33.9489 31.5 34.1397 31.579 34.2803 31.7197C34.421 31.8603 34.5 32.0511 34.5 32.25C34.5 32.4489 34.421 32.6397 34.2803 32.7803C34.1397 32.921 33.9489 33 33.75 33H14.25C14.0511 33 13.8603 32.921 13.7197 32.7803C13.579 32.6397 13.5 32.4489 13.5 32.25C13.5 32.0511 13.579 31.8603 13.7197 31.7197C13.8603 31.579 14.0511 31.5 14.25 31.5Z" fill="black"/>
</svg>
