<svg width="102" height="20" viewBox="0 0 102 20" fill="none" xmlns="http://www.w3.org/2000/svg">
<mask id="mask0_1437_990" style="mask-type:luminance" maskUnits="userSpaceOnUse" x="0" y="0" width="102" height="20">
<path d="M102 0.791626H0V19.2083H102V0.791626Z" fill="white"/>
</mask>
<g mask="url(#mask0_1437_990)">
<path d="M3.08353 0.933105C3.4804 0.933105 3.73719 1.0099 3.9006 1.16118C4.04067 1.31245 4.13405 1.58241 4.13405 1.96874V15.0784H10.6474C11.0209 15.0784 11.2778 15.1575 11.4412 15.3181C11.6046 15.4763 11.6746 15.7416 11.6746 16.1117V17.8013C11.6746 18.1876 11.6045 18.4576 11.4644 18.6088C11.301 18.7601 11.0442 18.8346 10.6474 18.8346H1.02923C0.655716 18.8346 0.375715 18.7601 0.235646 18.6088C0.0722318 18.4576 0.00219727 18.1876 0.00219727 17.8013V1.96874C0.00219727 1.58241 0.0722318 1.31245 0.235646 1.16118C0.375715 1.0099 0.655716 0.933105 1.02923 0.933105H3.08353Z" fill="black"/>
<path d="M24.2447 1.16223C24.6134 1.16223 24.89 1.23804 25.0283 1.38736C25.1896 1.53669 25.2587 1.80317 25.2587 2.18452V3.85006C25.2587 4.2337 25.1896 4.49334 25.0283 4.63577C24.89 4.7759 24.6134 4.8471 24.2447 4.8471H17.2394V8.05642H23.0004C23.3691 8.05642 23.6455 8.12761 23.7838 8.26775C23.9451 8.41018 24.0142 8.67211 24.0142 9.05346V10.719C24.0142 11.1027 23.9451 11.3668 23.7838 11.5162C23.6455 11.6655 23.3691 11.7413 23.0004 11.7413H17.2394V15.1252H24.4983C24.844 15.1252 25.1203 15.2033 25.2817 15.3618C25.443 15.518 25.5121 15.7799 25.5121 16.1452V17.813C25.5121 18.1944 25.443 18.4609 25.2817 18.6102C25.1434 18.7595 24.867 18.8331 24.4983 18.8331H14.1976C13.8289 18.8331 13.5522 18.7595 13.414 18.6102C13.2527 18.4609 13.1835 18.1944 13.1835 17.813V2.18452C13.1835 1.80317 13.2527 1.53669 13.414 1.38736C13.5522 1.23804 13.8289 1.16223 14.1976 1.16223H24.2447Z" fill="black"/>
<path d="M40.0438 1.16296C40.4125 1.16296 40.6889 1.23877 40.8271 1.38809C40.9884 1.53742 41.0576 1.8039 41.0576 2.18525V3.85079C41.0576 4.23444 40.9884 4.49407 40.8271 4.6365C40.6889 4.77664 40.4125 4.84783 40.0438 4.84783H36.1492V17.8138C36.1492 18.1951 36.0801 18.4616 35.9188 18.6109C35.7805 18.7602 35.504 18.8338 35.1122 18.8338H33.1074C32.7156 18.8338 32.4623 18.7602 32.324 18.6109C32.1627 18.4616 32.0936 18.1951 32.0936 17.8138V4.84783H28.1761C27.8074 4.84783 27.5308 4.77664 27.3925 4.6365C27.2312 4.49407 27.162 4.23444 27.162 3.85079V2.18525C27.162 1.8039 27.2312 1.53742 27.3925 1.38809C27.5308 1.23877 27.8074 1.16296 28.1761 1.16296H40.0438Z" fill="black"/>
<path fill-rule="evenodd" clip-rule="evenodd" d="M45.9479 1.78764C45.9479 1.55561 46.0862 1.34886 46.2936 1.27305C47.2384 0.951426 48.3444 0.790649 49.6118 0.790649C51.4092 0.790649 52.8149 1.08928 53.875 1.68657C54.9119 2.28387 55.7186 3.20509 56.3178 4.44793C56.4791 4.79711 56.5252 5.07051 56.433 5.27038C56.3638 5.47024 56.1333 5.64254 55.7646 5.79187L53.875 6.61426C53.5293 6.76358 53.2759 6.80034 53.1145 6.72682C52.9302 6.65101 52.7458 6.44887 52.5614 6.11576C52.0083 5.02225 51.0405 4.47322 49.6118 4.47322C48.5979 4.47322 47.8374 4.61101 47.3765 4.88439C46.9156 5.15777 46.6852 5.5943 46.6852 6.19159C46.6852 6.50632 46.7775 6.77511 46.9388 7.00025C47.1231 7.22308 47.4227 7.40223 47.8144 7.53548C48.2062 7.66642 48.575 7.76752 48.9437 7.83414C49.3124 7.90076 49.7962 7.9674 50.4183 8.03173C51.1097 8.11673 51.7319 8.20631 52.2389 8.30739C52.7459 8.40618 53.2988 8.58533 53.944 8.84262C54.5662 9.09762 55.0733 9.41468 55.4651 9.78684C55.8568 10.1613 56.2024 10.6621 56.4789 11.2939C56.7554 11.9233 56.8939 12.6607 56.8939 13.5084C56.8939 15.2337 56.2255 16.6144 54.889 17.6505C53.5524 18.6889 51.755 19.208 49.4736 19.208C45.7866 19.208 43.4591 17.8641 42.4452 15.1763C42.33 14.811 42.3298 14.5354 42.422 14.3539C42.5372 14.1724 42.7446 14.0139 43.1133 13.8806L44.9339 13.2351C45.3026 13.1018 45.5561 13.072 45.7405 13.1478C45.9248 13.2213 46.0862 13.4488 46.2475 13.8324C46.7775 14.9765 47.8605 15.5485 49.4736 15.5485C51.6859 15.5485 52.7918 14.8937 52.7918 13.582C52.7918 13.0191 52.4923 12.6079 51.9162 12.3506C51.3401 12.0933 50.5106 11.9072 49.4275 11.7901C48.621 11.6913 47.9988 11.604 47.5149 11.5305C47.054 11.4547 46.4548 11.2939 45.7405 11.0435C45.0261 10.7953 44.4499 10.4967 44.0351 10.1475C43.6434 9.80064 43.2747 9.30212 42.9752 8.65429C42.6526 8.00875 42.5143 7.24376 42.5143 6.36619C42.5143 5.72524 42.6065 5.13024 42.7909 4.58349C42.86 4.36295 43.0674 4.2182 43.2979 4.2205C43.874 4.2182 44.8648 4.2182 44.8648 4.2182C45.2566 4.2182 45.533 4.14469 45.6943 3.99537C45.8556 3.84604 45.9479 3.57034 45.9479 3.16602C45.9479 3.16602 45.9479 2.30453 45.9479 1.78764Z" fill="black"/>
<path fill-rule="evenodd" clip-rule="evenodd" d="M59.4839 11.9392V2.18487C59.4839 1.80251 59.5588 1.53728 59.7087 1.38779C59.8586 1.23829 60.1252 1.16357 60.5083 1.16357H70.5526C70.9357 1.16357 71.2023 1.23829 71.3521 1.38779C71.5021 1.53728 71.5771 1.80251 71.5771 2.18487V3.8537C71.5771 4.23534 71.5021 4.49695 71.3521 4.63853C71.2023 4.7794 70.9357 4.84987 70.5526 4.84987H63.5565V8.41179H69.3033C69.6864 8.41179 69.9529 8.48654 70.1029 8.63604C70.2528 8.78553 70.3278 9.05148 70.3278 9.43312V11.102C70.3278 11.4527 70.2645 11.7021 70.1381 11.8494C66.8153 12.0578 63.2676 12.1038 59.4839 11.9392ZM74.2622 11.4987V2.18487C74.2622 1.80251 74.3371 1.53728 74.4871 1.38779C74.637 1.23829 74.9035 1.16357 75.2866 1.16357H77.3105C77.6936 1.16357 77.9601 1.23829 78.11 1.38779C78.26 1.53728 78.3349 1.80251 78.3349 2.18487V10.9625C77.0206 11.1674 75.6634 11.347 74.2622 11.4987ZM89.7239 8.37013L85.9946 2.18487C85.8114 1.90241 85.7614 1.66162 85.8447 1.46254C85.928 1.26345 86.1529 1.16357 86.5193 1.16357H88.843C89.4926 1.16357 89.9299 1.20883 90.1547 1.30082C90.3797 1.3921 90.6004 1.64511 90.8169 2.06053L93.5353 7.11164C92.3277 7.54287 91.0579 7.9655 89.7239 8.37013ZM94.5546 6.74007L97.1133 2.06053C97.3466 1.64511 97.5756 1.3921 97.8005 1.30082C98.0253 1.20883 98.4626 1.16357 99.1122 1.16357H101.286C101.652 1.16357 101.877 1.26345 101.961 1.46254C102.044 1.66162 101.994 1.90241 101.811 2.18487L100.573 4.24756C98.7792 5.06258 96.7777 5.91283 94.5546 6.74007ZM99.5744 5.91285L95.939 11.9737V17.8277C95.939 18.2093 95.8641 18.4752 95.7141 18.6247C95.5642 18.7742 95.2977 18.849 94.9146 18.849H92.8907C92.5076 18.849 92.2411 18.7742 92.0912 18.6247C91.9412 18.4752 91.8663 18.2093 91.8663 17.8277V11.9242L90.6782 9.95345C93.779 8.74241 96.7761 7.39196 99.5744 5.91285ZM78.3349 13.9179V15.1375H84.7812C85.1477 15.1375 85.41 15.2159 85.5683 15.374C85.7265 15.5314 85.8057 15.793 85.8057 16.1588V17.8277C85.8057 18.2093 85.7307 18.4752 85.5808 18.6247C85.4309 18.7742 85.1643 18.849 84.7812 18.849H75.2866C74.9035 18.849 74.637 18.7742 74.4871 18.6247C74.3371 18.4752 74.2622 18.2093 74.2622 17.8277V14.886C75.6115 14.592 76.9714 14.2693 78.3349 13.9179ZM63.5565 16.6245V17.8277C63.5565 18.2093 63.4816 18.4752 63.3317 18.6247C63.1818 18.7742 62.9153 18.849 62.5322 18.849H60.5083C60.1252 18.849 59.8586 18.7742 59.7087 18.6247C59.5588 18.4752 59.4839 18.2093 59.4839 17.8277V16.9322C60.7949 16.8711 62.156 16.7683 63.5565 16.6245Z" fill="black"/>
<path d="M44.4674 1.1355C44.7092 1.1355 44.8657 1.18229 44.9653 1.27446C45.0506 1.36663 45.1075 1.53112 45.1075 1.76651V2.79458C45.1075 3.03139 45.0506 3.19166 44.9653 3.27957C44.8657 3.36607 44.7092 3.41002 44.4674 3.41002H43.3723C43.1447 3.41002 42.9739 3.36607 42.8886 3.27957C42.789 3.19166 42.7463 3.03139 42.7463 2.79458V1.76651C42.7463 1.53112 42.789 1.36663 42.8886 1.27446C42.9739 1.18229 43.1447 1.1355 43.3723 1.1355H44.4674Z" fill="black"/>
<path fill-rule="evenodd" clip-rule="evenodd" d="M87.2764 12.3761C87.5304 12.3038 87.8832 12.1962 87.9834 12.1657C87.9877 12.1644 87.9921 12.1631 87.9964 12.1617C87.9964 12.1617 87.9964 12.1617 88.0008 12.1604C88.0051 12.1591 88.0051 12.1591 88.0095 12.1578C88.114 12.1259 88.1404 11.9167 88.0709 11.6903C88.0015 11.4639 87.8623 11.3051 87.7578 11.337C87.7578 11.337 87.7578 11.337 87.7535 11.3383C87.7491 11.3396 87.7404 11.3423 87.736 11.3436C87.6881 11.3582 87.5967 11.3861 87.4921 11.418C87.4921 11.418 87.5679 11.0906 87.6175 10.864C87.6452 10.7369 87.7382 10.6364 87.8645 10.5979C88.557 10.3868 89.2059 10.189 89.6937 10.0404C90.0988 9.91691 90.4794 9.55846 90.3622 9.17639C90.245 8.79432 89.7285 8.70936 89.3234 8.83281C88.8356 8.98149 88.1867 9.17928 87.4942 9.39034C87.3679 9.42884 87.2344 9.39731 87.1401 9.30741C86.9734 9.15192 86.7255 8.91801 86.7255 8.91801C86.8314 8.89087 86.9229 8.863 86.9693 8.84368C86.9737 8.84235 86.9824 8.83972 86.9882 8.84311C86.9926 8.84178 86.9926 8.84179 86.9926 8.84179C87.0971 8.80993 87.122 8.59604 87.0526 8.36963C86.9831 8.14322 86.844 7.98447 86.7394 8.01633C86.7351 8.01766 86.7351 8.01766 86.7307 8.01899C86.7264 8.02031 86.7264 8.02031 86.7264 8.02031C86.722 8.02164 86.7177 8.02296 86.7133 8.02429C86.6131 8.05482 86.2604 8.16236 86.0106 8.24878L84.291 6.63243C84.2489 6.58851 84.188 6.57612 84.1314 6.59338C84.1314 6.59338 84.0443 6.61993 83.9485 6.64913C83.8875 6.66772 83.8352 6.71458 83.8061 6.77503C83.777 6.83547 83.7798 6.90683 83.8074 6.96549C84.0666 7.54669 84.7341 9.00919 85.0483 9.70772C85.0918 9.80279 85.0917 9.91112 85.0495 10.0065C85.0073 10.1019 84.9245 10.1735 84.8244 10.2041C84.415 10.3289 84.0447 10.4417 83.7399 10.5346C83.6092 10.5744 83.4669 10.623 83.3232 10.6823C83.2462 10.7109 83.1621 10.7004 83.0997 10.6524C82.7661 10.4033 81.7698 9.65476 81.7698 9.65476C81.7278 9.62631 81.677 9.61601 81.6248 9.63194L81.3983 9.70097L82.2021 11.3128C82.0583 11.4494 81.9783 11.5924 82.0174 11.7198C82.0565 11.8471 82.203 11.9212 82.3989 11.9543L82.6365 13.7387L82.863 13.6696C82.9153 13.6537 82.9516 13.6168 82.9705 13.5698C82.9705 13.5698 83.3766 12.3939 83.5134 12.0014C83.5382 11.9268 83.6021 11.8712 83.6819 11.852C83.8343 11.8211 83.9795 11.782 84.1102 11.7422C84.4194 11.6479 84.7896 11.5351 85.199 11.4103C85.2992 11.3798 85.4037 11.3943 85.4922 11.4499C85.5806 11.5055 85.6415 11.5952 85.6588 11.6983C85.7887 12.4478 86.0585 14.0419 86.1681 14.6635C86.1782 14.7275 86.2159 14.7882 86.2739 14.8221C86.3276 14.8573 86.3972 14.867 86.4626 14.8471C86.5584 14.8179 86.6455 14.7913 86.6455 14.7913C86.7021 14.7741 86.7457 14.7298 86.7559 14.67L87.2764 12.3761Z" fill="black"/>
</g>
</svg>
