<svg width="102" height="102" viewBox="0 0 102 102" fill="none" xmlns="http://www.w3.org/2000/svg">
<g clip-path="url(#clip0_680_1868)">
<path d="M15.1701 38.0309H81.7838C82.5512 38.0309 83.2282 38.3403 83.6122 38.936L90.3644 49.6433C90.8836 50.4821 90.7944 51.4967 90.0481 52.3365L80.5416 63.0438C80.0225 63.6174 79.3454 63.971 78.5758 63.971H12.1629C10.8314 63.971 9.85946 62.9554 10.0167 61.6746L12.5256 40.3253C12.6848 39.0234 13.8355 38.029 15.1681 38.029H15.1691L15.1701 38.0309Z" fill="#00C0C9"/>
<path d="M49.4943 45.2469L46.0371 52.924L44.2407 45.2469H40.6921L43.8535 56.3627L42.0119 60.0018H45.5143L52.9515 45.2469H49.4933H49.4943ZM16.015 60.0018H19.1991L19.7219 55.8095C20.2221 56.1863 21.1547 56.6081 22.3369 56.6081C26.0221 56.6081 28.2735 53.4349 28.2735 49.9751C28.2735 47.0243 26.8407 44.9613 24.1569 44.9613C22.8823 44.9613 21.7227 45.3601 20.8362 46.0714L20.9493 45.2508H17.8567L16.015 60.0057V60.0028V60.0018ZM19.9951 53.6334L20.7007 48.1757C21.3827 47.6436 22.1561 47.4212 22.838 47.4433C24.2021 47.4643 24.9529 48.5304 24.9529 50.1946C24.9529 52.3468 23.7933 54.1884 21.8367 54.1884C21.2225 54.1884 20.5179 53.9891 19.9951 53.6334ZM28.8877 53.3458C28.8641 55.1423 30.3667 56.6081 32.6623 56.6081C34.2779 56.6081 35.4591 55.9428 36.1411 55.2104L36.0045 56.3416H39.0971L39.8479 50.3298C40.2125 47.3569 39.2111 44.9382 35.2989 44.9382C33.7069 44.9382 31.7739 45.2939 30.7273 45.9592L30.4079 48.4441C31.2501 47.9993 32.8874 47.4586 34.388 47.4586C36.1844 47.4586 36.8221 48.3329 36.7533 49.2657H34.843C32.0678 49.2657 28.9064 50.3077 28.8838 53.3477H28.8867L28.8877 53.3458ZM32.0953 53.1003C32.0953 51.902 33.5281 51.4582 35.0051 51.4582H36.5057L36.2777 53.2547C35.6409 53.7427 34.5039 54.2527 33.5477 54.2527C32.6839 54.2527 32.0923 53.7868 32.0923 53.0984H32.0933L32.0953 53.1003ZM71.1415 51.2587C71.0967 54.0322 73.166 56.6053 77.3957 56.6053C78.8961 56.6053 80.1709 56.3167 81.3068 55.6284L81.535 53.0102C80.6031 53.5653 79.1919 53.942 77.9647 53.942C76.3491 53.942 74.8936 53.2538 74.4858 51.6566H82.3556C82.4686 51.3681 82.56 50.6797 82.56 50.0144C82.56 47.0866 80.899 44.9555 77.4871 44.9555C74.0752 44.9555 71.187 46.9304 71.1415 51.2559V51.2578V51.2587ZM74.5074 49.7719C74.8265 48.3079 75.9164 47.4413 77.2588 47.4413C78.6013 47.4413 79.3288 48.1737 79.3288 49.35C79.3288 49.4833 79.3288 49.6386 79.3072 49.7719H74.5085H74.5074ZM55.5439 56.3397L56.5905 48.2198C57.2961 47.7539 58.0911 47.3771 58.7751 47.3771C59.6615 47.3771 60.0939 48.0213 59.9583 49.1295L59.0483 56.3406H62.2559L63.2573 48.4642L63.2789 48.2418C63.9845 47.7759 64.8031 47.3771 65.4852 47.3771C66.3717 47.3771 66.8038 48.0213 66.6681 49.1295L65.7583 56.3406H68.9658L69.9675 48.4642C70.2406 46.2679 69.0799 44.9373 67.0111 44.9373C65.5783 44.9373 64.0542 45.7358 63.0312 46.4683C62.5988 45.4914 61.6437 44.9373 60.3012 44.9373C58.9588 44.9373 57.6627 45.5815 56.6396 46.2468L56.7762 45.2488H53.775L52.3422 56.3426H55.5498H55.5458L55.5439 56.3397Z" fill="white"/>
</g>
<defs>
<clipPath id="clip0_680_1868">
<rect width="82" height="25.942" fill="white" transform="translate(10 38.029)"/>
</clipPath>
</defs>
</svg>
