<svg width="358" height="62" viewBox="0 0 358 62" fill="none" xmlns="http://www.w3.org/2000/svg">
<path d="M16 31L343 31" stroke="#D9D9D9" stroke-dasharray="7 7"/>
<g opacity="0.5">
<path d="M24.5604 22.9101C25.1504 23.5001 25.1504 24.4501 24.5604 25.0301L20.6704 28.9201L22.7904 38.1101L21.3804 39.5301L17.5004 32.1001L13.6004 36.0001L13.9604 38.4701L12.8904 39.5301L11.1304 36.3501L7.94043 34.5801L9.00043 33.5001L11.5004 33.8701L15.3704 30.0001L7.94043 26.0901L9.36043 24.6801L18.5504 26.8001L22.4404 22.9101C23.0004 22.3301 24.0004 22.3301 24.5604 22.9101Z" fill="black"/>
</g>
<g opacity="0.5" clip-path="url(#clip0_71_203)">
<path d="M190.774 31.3322C190.774 32.1666 190.102 32.8383 189.275 32.8312L183.773 32.8312L178.774 40.8286L176.773 40.8357L179.283 32.8383L173.768 32.8383L172.276 34.8394L170.77 34.8323L171.774 31.3392L170.77 27.832L172.283 27.8178L173.789 29.8472L179.262 29.8472L176.773 21.8287L178.774 21.8357L183.773 29.8331L189.275 29.8331C190.081 29.819 190.788 30.5261 190.774 31.3322Z" fill="black"/>
</g>
<path opacity="0.5" d="M4.67614 4.91193V3.81818H12.3125V4.91193H9.1108V14H7.87784V4.91193H4.67614ZM15.2644 14.179C14.7805 14.179 14.3413 14.0878 13.9469 13.9055C13.5525 13.7199 13.2393 13.4531 13.0073 13.1051C12.7753 12.7538 12.6593 12.3295 12.6593 11.8324C12.6593 11.3949 12.7454 11.0402 12.9178 10.7685C13.0901 10.4934 13.3205 10.2779 13.6088 10.1222C13.8972 9.96638 14.2154 9.85038 14.5634 9.77415C14.9147 9.6946 15.2677 9.63163 15.6223 9.58523C16.0864 9.52557 16.4625 9.48082 16.7509 9.45099C17.0426 9.41785 17.2547 9.36316 17.3873 9.28693C17.5231 9.2107 17.5911 9.07812 17.5911 8.8892V8.84943C17.5911 8.3589 17.4569 7.97775 17.1884 7.70597C16.9232 7.43419 16.5205 7.2983 15.9803 7.2983C15.4202 7.2983 14.981 7.42093 14.6628 7.66619C14.3446 7.91146 14.1209 8.1733 13.9917 8.4517L12.878 8.05398C13.0769 7.58996 13.342 7.22869 13.6735 6.97017C14.0082 6.70833 14.3728 6.52604 14.7672 6.4233C15.165 6.31723 15.556 6.2642 15.9405 6.2642C16.1858 6.2642 16.4675 6.29403 16.7857 6.35369C17.1072 6.41004 17.4171 6.5277 17.7154 6.70668C18.017 6.88565 18.2672 7.15578 18.4661 7.51705C18.665 7.87831 18.7644 8.36222 18.7644 8.96875V14H17.5911V12.9659H17.5314C17.4519 13.1316 17.3193 13.3089 17.1337 13.4979C16.9481 13.6868 16.7012 13.8475 16.3929 13.9801C16.0847 14.1127 15.7085 14.179 15.2644 14.179ZM15.4434 13.125C15.9074 13.125 16.2985 13.0339 16.6167 12.8516C16.9382 12.6693 17.1801 12.4339 17.3425 12.1456C17.5082 11.8572 17.5911 11.554 17.5911 11.2358V10.1619C17.5414 10.2216 17.432 10.2763 17.263 10.326C17.0972 10.3724 16.905 10.4138 16.6863 10.4503C16.4708 10.4834 16.2604 10.5133 16.0549 10.5398C15.8527 10.563 15.6886 10.5829 15.5627 10.5994C15.2578 10.6392 14.9727 10.7038 14.7076 10.7933C14.4457 10.8795 14.2336 11.0104 14.0712 11.1861C13.9121 11.3584 13.8326 11.5937 13.8326 11.892C13.8326 12.2997 13.9834 12.608 14.285 12.8168C14.5899 13.0223 14.976 13.125 15.4434 13.125ZM26.315 8.07386L25.261 8.37216C25.1947 8.1965 25.0969 8.0258 24.9677 7.86009C24.8417 7.69105 24.6694 7.55185 24.4506 7.44247C24.2319 7.3331 23.9518 7.27841 23.6104 7.27841C23.1431 7.27841 22.7537 7.38613 22.4421 7.60156C22.1339 7.81368 21.9798 8.08381 21.9798 8.41193C21.9798 8.7036 22.0858 8.93395 22.2979 9.10298C22.5101 9.27202 22.8415 9.41288 23.2923 9.52557L24.4258 9.80398C25.1085 9.9697 25.6173 10.2232 25.9521 10.5646C26.2868 10.9027 26.4542 11.3385 26.4542 11.8722C26.4542 12.3097 26.3282 12.7008 26.0763 13.0455C25.8278 13.3902 25.4798 13.6619 25.0323 13.8608C24.5849 14.0597 24.0645 14.1591 23.4712 14.1591C22.6924 14.1591 22.0477 13.9901 21.5373 13.652C21.0269 13.3139 20.7037 12.8201 20.5678 12.1705L21.6815 11.892C21.7875 12.303 21.988 12.6113 22.283 12.8168C22.5813 13.0223 22.9708 13.125 23.4513 13.125C23.9982 13.125 24.4324 13.009 24.7539 12.777C25.0787 12.5417 25.2411 12.2599 25.2411 11.9318C25.2411 11.6667 25.1483 11.4446 24.9627 11.2656C24.7771 11.0833 24.4921 10.9474 24.1076 10.858L22.8349 10.5597C22.1355 10.3939 21.6218 10.1371 21.2937 9.78906C20.9689 9.43774 20.8065 8.99858 20.8065 8.47159C20.8065 8.04072 20.9274 7.65956 21.1694 7.32812C21.4147 6.99669 21.7478 6.73651 22.1687 6.54758C22.5929 6.35866 23.0735 6.2642 23.6104 6.2642C24.3661 6.2642 24.9594 6.42992 25.3903 6.76136C25.8245 7.0928 26.1327 7.5303 26.315 8.07386ZM29.3936 9.40625V14H28.2203V3.81818H29.3936V7.55682H29.4931C29.6721 7.16241 29.9405 6.84919 30.2985 6.61719C30.6597 6.38187 31.1403 6.2642 31.7402 6.2642C32.2606 6.2642 32.7163 6.36861 33.1074 6.57741C33.4985 6.78291 33.8018 7.09943 34.0172 7.52699C34.236 7.95123 34.3453 8.49148 34.3453 9.14773V14H33.1721V9.22727C33.1721 8.62074 33.0146 8.15175 32.6998 7.82031C32.3882 7.48556 31.9557 7.31818 31.4022 7.31818C31.0177 7.31818 30.673 7.39938 30.3681 7.56179C30.0665 7.72419 29.8278 7.96117 29.6522 8.27273C29.4798 8.58428 29.3936 8.96212 29.3936 9.40625Z" fill="black"/>
<path opacity="0.5" d="M164.375 14H161.233V3.81818H164.514C165.502 3.81818 166.347 4.02202 167.05 4.42969C167.752 4.83404 168.291 5.41572 168.665 6.17472C169.04 6.9304 169.227 7.83523 169.227 8.8892C169.227 9.94981 169.038 10.8629 168.661 11.6286C168.283 12.3909 167.732 12.9775 167.01 13.3885C166.287 13.7962 165.409 14 164.375 14ZM162.466 12.9062H164.295C165.137 12.9062 165.835 12.7438 166.388 12.419C166.942 12.0942 167.355 11.6319 167.626 11.032C167.898 10.4321 168.034 9.7178 168.034 8.8892C168.034 8.06723 167.9 7.35961 167.631 6.76633C167.363 6.16974 166.962 5.71236 166.428 5.39418C165.895 5.07268 165.23 4.91193 164.435 4.91193H162.466V12.9062ZM175.949 10.8778V6.36364H177.122V14H175.949V12.7074H175.869C175.69 13.0952 175.412 13.425 175.034 13.6967C174.656 13.9652 174.179 14.0994 173.602 14.0994C173.125 14.0994 172.701 13.995 172.33 13.7862C171.958 13.5741 171.667 13.2559 171.455 12.8317C171.242 12.4041 171.136 11.8655 171.136 11.2159V6.36364H172.31V11.1364C172.31 11.6932 172.465 12.1373 172.777 12.4688C173.092 12.8002 173.493 12.9659 173.98 12.9659C174.272 12.9659 174.568 12.8913 174.87 12.7422C175.175 12.593 175.43 12.3643 175.636 12.0561C175.844 11.7479 175.949 11.3551 175.949 10.8778ZM179.43 14V3.81818H180.604V7.5767H180.703C180.789 7.44413 180.908 7.27509 181.061 7.0696C181.217 6.8608 181.439 6.67519 181.727 6.51278C182.019 6.34706 182.413 6.2642 182.91 6.2642C183.553 6.2642 184.12 6.42495 184.611 6.74645C185.101 7.06794 185.484 7.52367 185.759 8.11364C186.034 8.7036 186.172 9.39962 186.172 10.2017C186.172 11.0104 186.034 11.7114 185.759 12.3047C185.484 12.8946 185.103 13.352 184.616 13.6768C184.128 13.9983 183.567 14.1591 182.93 14.1591C182.44 14.1591 182.047 14.0779 181.752 13.9155C181.457 13.7498 181.23 13.5625 181.071 13.3537C180.912 13.1416 180.789 12.9659 180.703 12.8267H180.564V14H179.43ZM180.584 10.1818C180.584 10.7585 180.668 11.2673 180.837 11.7081C181.006 12.1456 181.253 12.4886 181.578 12.7372C181.903 12.9825 182.3 13.1051 182.771 13.1051C183.262 13.1051 183.671 12.9759 183.999 12.7173C184.331 12.4555 184.579 12.1042 184.745 11.6634C184.914 11.2192 184.998 10.7254 184.998 10.1818C184.998 9.64489 184.916 9.16098 184.75 8.73011C184.587 8.29593 184.34 7.95289 184.009 7.70099C183.681 7.44579 183.268 7.31818 182.771 7.31818C182.294 7.31818 181.893 7.43916 181.568 7.68111C181.243 7.91974 180.998 8.2545 180.832 8.68537C180.666 9.11293 180.584 9.61174 180.584 10.1818ZM190.214 14.179C189.73 14.179 189.291 14.0878 188.896 13.9055C188.502 13.7199 188.189 13.4531 187.956 13.1051C187.724 12.7538 187.608 12.3295 187.608 11.8324C187.608 11.3949 187.695 11.0402 187.867 10.7685C188.039 10.4934 188.27 10.2779 188.558 10.1222C188.846 9.96638 189.165 9.85038 189.513 9.77415C189.864 9.6946 190.217 9.63163 190.572 9.58523C191.036 9.52557 191.412 9.48082 191.7 9.45099C191.992 9.41785 192.204 9.36316 192.336 9.28693C192.472 9.2107 192.54 9.07812 192.54 8.8892V8.84943C192.54 8.3589 192.406 7.97775 192.138 7.70597C191.872 7.43419 191.47 7.2983 190.93 7.2983C190.369 7.2983 189.93 7.42093 189.612 7.66619C189.294 7.91146 189.07 8.1733 188.941 8.4517L187.827 8.05398C188.026 7.58996 188.291 7.22869 188.623 6.97017C188.957 6.70833 189.322 6.52604 189.716 6.4233C190.114 6.31723 190.505 6.2642 190.89 6.2642C191.135 6.2642 191.417 6.29403 191.735 6.35369C192.056 6.41004 192.366 6.5277 192.665 6.70668C192.966 6.88565 193.216 7.15578 193.415 7.51705C193.614 7.87831 193.714 8.36222 193.714 8.96875V14H192.54V12.9659H192.481C192.401 13.1316 192.269 13.3089 192.083 13.4979C191.897 13.6868 191.65 13.8475 191.342 13.9801C191.034 14.1127 190.658 14.179 190.214 14.179ZM190.393 13.125C190.857 13.125 191.248 13.0339 191.566 12.8516C191.887 12.6693 192.129 12.4339 192.292 12.1456C192.457 11.8572 192.54 11.554 192.54 11.2358V10.1619C192.491 10.2216 192.381 10.2763 192.212 10.326C192.046 10.3724 191.854 10.4138 191.635 10.4503C191.42 10.4834 191.21 10.5133 191.004 10.5398C190.802 10.563 190.638 10.5829 190.512 10.5994C190.207 10.6392 189.922 10.7038 189.657 10.7933C189.395 10.8795 189.183 11.0104 189.02 11.1861C188.861 11.3584 188.782 11.5937 188.782 11.892C188.782 12.2997 188.933 12.608 189.234 12.8168C189.539 13.0223 189.925 13.125 190.393 13.125ZM195.855 14V6.36364H197.028V14H195.855ZM196.452 5.09091C196.223 5.09091 196.026 5.01302 195.86 4.85724C195.698 4.70147 195.616 4.5142 195.616 4.29545C195.616 4.0767 195.698 3.88944 195.86 3.73366C196.026 3.57789 196.223 3.5 196.452 3.5C196.68 3.5 196.876 3.57789 197.038 3.73366C197.204 3.88944 197.287 4.0767 197.287 4.29545C197.287 4.5142 197.204 4.70147 197.038 4.85724C196.876 5.01302 196.68 5.09091 196.452 5.09091Z" fill="black"/>
<path opacity="0.5" d="M4.61284 48.679C5.03045 48.6823 5.44806 48.7618 5.86568 48.9176C6.28329 49.0734 6.66445 49.3319 7.00914 49.6932C7.35384 50.0511 7.63059 50.54 7.8394 51.1598C8.04821 51.7796 8.15261 52.5568 8.15261 53.4915C8.15261 54.3963 8.06644 55.2 7.89409 55.9027C7.72505 56.602 7.47979 57.192 7.15829 57.6726C6.84011 58.1532 6.45233 58.5178 5.99494 58.7663C5.54087 59.0149 5.02714 59.1392 4.45375 59.1392C3.88367 59.1392 3.37491 59.0265 2.92747 58.8011C2.48334 58.5724 2.11876 58.2559 1.83372 57.8516C1.55199 57.4439 1.37136 56.9716 1.29181 56.4347H2.50488C2.61426 56.902 2.83135 57.2881 3.15616 57.593C3.48429 57.8946 3.91681 58.0455 4.45375 58.0455C5.23926 58.0455 5.85905 57.7024 6.31312 57.0163C6.77051 56.3303 6.9992 55.3608 6.9992 54.108H6.91966C6.73405 54.3864 6.51364 54.6267 6.25843 54.8288C6.00323 55.031 5.71985 55.1868 5.40829 55.2962C5.09674 55.4055 4.7653 55.4602 4.41397 55.4602C3.83064 55.4602 3.29537 55.3161 2.80815 55.0277C2.32425 54.736 1.93646 54.3366 1.6448 53.8295C1.35645 53.3191 1.21227 52.7358 1.21227 52.0795C1.21227 51.4564 1.35147 50.8864 1.62988 50.3693C1.91161 49.849 2.30602 49.4347 2.81312 49.1264C3.32354 48.8182 3.92344 48.669 4.61284 48.679ZM4.61284 49.7727C4.19522 49.7727 3.81904 49.8771 3.48429 50.0859C3.15285 50.2914 2.88935 50.5698 2.6938 50.9212C2.50157 51.2692 2.40545 51.6553 2.40545 52.0795C2.40545 52.5038 2.49825 52.8899 2.68386 53.2379C2.87278 53.5826 3.12965 53.8577 3.45446 54.0632C3.78258 54.2654 4.15545 54.3665 4.57306 54.3665C4.88793 54.3665 5.18126 54.3052 5.45304 54.1825C5.72482 54.0566 5.9618 53.8859 6.16397 53.6705C6.36947 53.4517 6.53021 53.2048 6.64622 52.9297C6.76222 52.6513 6.82022 52.3613 6.82022 52.0597C6.82022 51.6619 6.72411 51.2891 6.53187 50.9411C6.34295 50.593 6.08111 50.3113 5.74636 50.0959C5.41492 49.8804 5.03708 49.7727 4.61284 49.7727ZM22.298 48.8182V59H21.1048L15.5566 51.0057H15.4571V59H14.2242V48.8182H15.4173L20.9855 56.8324H21.085V48.8182H22.298ZM27.7084 59.1591C27.019 59.1591 26.4141 58.995 25.8937 58.6669C25.3767 58.3388 24.9723 57.8797 24.6807 57.2898C24.3923 56.6998 24.2481 56.0104 24.2481 55.2216C24.2481 54.4261 24.3923 53.7318 24.6807 53.1385C24.9723 52.5452 25.3767 52.0845 25.8937 51.7564C26.4141 51.4283 27.019 51.2642 27.7084 51.2642C28.3978 51.2642 29.001 51.4283 29.518 51.7564C30.0384 52.0845 30.4427 52.5452 30.7311 53.1385C31.0228 53.7318 31.1686 54.4261 31.1686 55.2216C31.1686 56.0104 31.0228 56.6998 30.7311 57.2898C30.4427 57.8797 30.0384 58.3388 29.518 58.6669C29.001 58.995 28.3978 59.1591 27.7084 59.1591ZM27.7084 58.1051C28.232 58.1051 28.6629 57.9709 29.001 57.7024C29.339 57.4339 29.5893 57.081 29.7517 56.6435C29.9141 56.206 29.9953 55.732 29.9953 55.2216C29.9953 54.7112 29.9141 54.2356 29.7517 53.7947C29.5893 53.3539 29.339 52.9976 29.001 52.7259C28.6629 52.4541 28.232 52.3182 27.7084 52.3182C27.1847 52.3182 26.7538 52.4541 26.4157 52.7259C26.0777 52.9976 25.8274 53.3539 25.665 53.7947C25.5026 54.2356 25.4214 54.7112 25.4214 55.2216C25.4214 55.732 25.5026 56.206 25.665 56.6435C25.8274 57.081 26.0777 57.4339 26.4157 57.7024C26.7538 57.9709 27.1847 58.1051 27.7084 58.1051ZM38.9305 51.3636L36.1066 59H34.9134L32.0896 51.3636H33.3623L35.4703 57.4489H35.5498L37.6578 51.3636H38.9305ZM47.9763 48.8182V59H46.7433V50.1108H46.6837L44.1979 51.7614V50.5085L46.7433 48.8182H47.9763ZM50.9046 59V58.1051L54.2654 54.4261C54.6598 53.9953 54.9846 53.6207 55.2398 53.3026C55.495 52.9811 55.6839 52.6795 55.8066 52.3977C55.9325 52.1127 55.9955 51.8144 55.9955 51.5028C55.9955 51.1449 55.9093 50.835 55.7369 50.5732C55.5679 50.3113 55.3359 50.1091 55.0409 49.9666C54.7459 49.8241 54.4145 49.7528 54.0466 49.7528C53.6555 49.7528 53.3141 49.834 53.0225 49.9964C52.7341 50.1555 52.5104 50.3793 52.3513 50.6676C52.1955 50.956 52.1176 51.294 52.1176 51.6818H50.9443C50.9443 51.0852 51.0819 50.5616 51.357 50.1108C51.6321 49.66 52.0066 49.3087 52.4806 49.0568C52.9578 48.8049 53.4931 48.679 54.0864 48.679C54.683 48.679 55.2116 48.8049 55.6723 49.0568C56.133 49.3087 56.4943 49.6484 56.7561 50.076C57.018 50.5036 57.1489 50.9792 57.1489 51.5028C57.1489 51.8774 57.0809 52.2436 56.945 52.6016C56.8125 52.9562 56.5805 53.3523 56.249 53.7898C55.9209 54.224 55.4652 54.7543 54.8818 55.3807L52.5949 57.8267V57.9062H57.3279V59H50.9046ZM60.2561 57.6974C60.0109 57.6974 59.8004 57.6096 59.6247 57.4339C59.4491 57.2583 59.3612 57.0478 59.3612 56.8026C59.3612 56.5573 59.4491 56.3468 59.6247 56.1712C59.8004 55.9955 60.0109 55.9077 60.2561 55.9077C60.5014 55.9077 60.7119 55.9955 60.8875 56.1712C61.0632 56.3468 61.151 56.5573 61.151 56.8026C61.151 56.965 61.1096 57.1141 61.0267 57.25C60.9472 57.3859 60.8395 57.4953 60.7036 57.5781C60.571 57.6577 60.4218 57.6974 60.2561 57.6974ZM60.2561 52.5469C60.0109 52.5469 59.8004 52.459 59.6247 52.2834C59.4491 52.1077 59.3612 51.8973 59.3612 51.652C59.3612 51.4067 59.4491 51.1963 59.6247 51.0206C59.8004 50.8449 60.0109 50.7571 60.2561 50.7571C60.5014 50.7571 60.7119 50.8449 60.8875 51.0206C61.0632 51.1963 61.151 51.4067 61.151 51.652C61.151 51.8144 61.1096 51.9635 61.0267 52.0994C60.9472 52.2353 60.8395 52.3447 60.7036 52.4276C60.571 52.5071 60.4218 52.5469 60.2561 52.5469ZM66.5576 59.1392C65.8086 59.1392 65.1705 58.9354 64.6436 58.5277C64.1166 58.1167 63.7139 57.5218 63.4355 56.7429C63.157 55.9607 63.0178 55.0161 63.0178 53.9091C63.0178 52.8087 63.157 51.8691 63.4355 51.0902C63.7172 50.308 64.1215 49.7114 64.6485 49.3004C65.1788 48.8861 65.8152 48.679 66.5576 48.679C67.3 48.679 67.9347 48.8861 68.4617 49.3004C68.992 49.7114 69.3964 50.308 69.6748 51.0902C69.9565 51.8691 70.0974 52.8087 70.0974 53.9091C70.0974 55.0161 69.9582 55.9607 69.6798 56.7429C69.4014 57.5218 68.9987 58.1167 68.4717 58.5277C67.9447 58.9354 67.3067 59.1392 66.5576 59.1392ZM66.5576 58.0455C67.3 58.0455 67.8767 57.6875 68.2877 56.9716C68.6987 56.2557 68.9042 55.2348 68.9042 53.9091C68.9042 53.0275 68.8097 52.2768 68.6208 51.657C68.4352 51.0372 68.1668 50.5649 67.8154 50.2401C67.4674 49.9152 67.0481 49.7528 66.5576 49.7528C65.8218 49.7528 65.2468 50.1158 64.8325 50.8416C64.4182 51.5642 64.211 52.5866 64.211 53.9091C64.211 54.7907 64.3038 55.5398 64.4894 56.1562C64.675 56.7727 64.9419 57.2417 65.2899 57.5632C65.6412 57.8847 66.0638 58.0455 66.5576 58.0455ZM75.3076 59.1392C74.5586 59.1392 73.9205 58.9354 73.3936 58.5277C72.8666 58.1167 72.4639 57.5218 72.1855 56.7429C71.907 55.9607 71.7678 55.0161 71.7678 53.9091C71.7678 52.8087 71.907 51.8691 72.1855 51.0902C72.4672 50.308 72.8715 49.7114 73.3985 49.3004C73.9288 48.8861 74.5652 48.679 75.3076 48.679C76.05 48.679 76.6847 48.8861 77.2117 49.3004C77.742 49.7114 78.1464 50.308 78.4248 51.0902C78.7065 51.8691 78.8474 52.8087 78.8474 53.9091C78.8474 55.0161 78.7082 55.9607 78.4298 56.7429C78.1514 57.5218 77.7487 58.1167 77.2217 58.5277C76.6947 58.9354 76.0567 59.1392 75.3076 59.1392ZM75.3076 58.0455C76.05 58.0455 76.6267 57.6875 77.0377 56.9716C77.4487 56.2557 77.6542 55.2348 77.6542 53.9091C77.6542 53.0275 77.5597 52.2768 77.3708 51.657C77.1852 51.0372 76.9168 50.5649 76.5654 50.2401C76.2174 49.9152 75.7981 49.7528 75.3076 49.7528C74.5718 49.7528 73.9968 50.1158 73.5825 50.8416C73.1682 51.5642 72.961 52.5866 72.961 53.9091C72.961 54.7907 73.0538 55.5398 73.2394 56.1562C73.425 56.7727 73.6919 57.2417 74.0399 57.5632C74.3912 57.8847 74.8138 58.0455 75.3076 58.0455Z" fill="black"/>
<path opacity="0.5" d="M271.119 59V58.1051L274.48 54.4261C274.875 53.9953 275.199 53.6207 275.455 53.3026C275.71 52.9811 275.899 52.6795 276.021 52.3977C276.147 52.1127 276.21 51.8144 276.21 51.5028C276.21 51.1449 276.124 50.835 275.952 50.5732C275.783 50.3113 275.551 50.1091 275.256 49.9666C274.961 49.8241 274.629 49.7528 274.261 49.7528C273.87 49.7528 273.529 49.834 273.237 49.9964C272.949 50.1555 272.725 50.3793 272.566 50.6676C272.41 50.956 272.332 51.294 272.332 51.6818H271.159C271.159 51.0852 271.297 50.5616 271.572 50.1108C271.847 49.66 272.221 49.3087 272.695 49.0568C273.173 48.8049 273.708 48.679 274.301 48.679C274.898 48.679 275.426 48.8049 275.887 49.0568C276.348 49.3087 276.709 49.6484 276.971 50.076C277.233 50.5036 277.364 50.9792 277.364 51.5028C277.364 51.8774 277.296 52.2436 277.16 52.6016C277.027 52.9562 276.795 53.3523 276.464 53.7898C276.136 54.224 275.68 54.7543 275.097 55.3807L272.81 57.8267V57.9062H277.543V59H271.119ZM279.139 56.9119V55.8977L283.613 48.8182H284.349V50.3892H283.852L280.471 55.7386V55.8182H286.497V56.9119H279.139ZM283.931 59V56.6037V56.1314V48.8182H285.104V59H283.931ZM300.55 48.8182V59H299.357L293.809 51.0057H293.709V59H292.476V48.8182H293.669L299.237 56.8324H299.337V48.8182H300.55ZM305.96 59.1591C305.271 59.1591 304.666 58.995 304.146 58.6669C303.629 58.3388 303.224 57.8797 302.933 57.2898C302.644 56.6998 302.5 56.0104 302.5 55.2216C302.5 54.4261 302.644 53.7318 302.933 53.1385C303.224 52.5452 303.629 52.0845 304.146 51.7564C304.666 51.4283 305.271 51.2642 305.96 51.2642C306.65 51.2642 307.253 51.4283 307.77 51.7564C308.29 52.0845 308.695 52.5452 308.983 53.1385C309.275 53.7318 309.421 54.4261 309.421 55.2216C309.421 56.0104 309.275 56.6998 308.983 57.2898C308.695 57.8797 308.29 58.3388 307.77 58.6669C307.253 58.995 306.65 59.1591 305.96 59.1591ZM305.96 58.1051C306.484 58.1051 306.915 57.9709 307.253 57.7024C307.591 57.4339 307.841 57.081 308.004 56.6435C308.166 56.206 308.247 55.732 308.247 55.2216C308.247 54.7112 308.166 54.2356 308.004 53.7947C307.841 53.3539 307.591 52.9976 307.253 52.7259C306.915 52.4541 306.484 52.3182 305.96 52.3182C305.437 52.3182 305.006 52.4541 304.668 52.7259C304.33 52.9976 304.079 53.3539 303.917 53.7947C303.755 54.2356 303.673 54.7112 303.673 55.2216C303.673 55.732 303.755 56.206 303.917 56.6435C304.079 57.081 304.33 57.4339 304.668 57.7024C305.006 57.9709 305.437 58.1051 305.96 58.1051ZM317.182 51.3636L314.359 59H313.165L310.342 51.3636H311.614L313.722 57.4489H313.802L315.91 51.3636H317.182ZM326.228 48.8182V59H324.995V50.1108H324.936L322.45 51.7614V50.5085L324.995 48.8182H326.228ZM329.157 59V58.1051L332.517 54.4261C332.912 53.9953 333.237 53.6207 333.492 53.3026C333.747 52.9811 333.936 52.6795 334.059 52.3977C334.184 52.1127 334.247 51.8144 334.247 51.5028C334.247 51.1449 334.161 50.835 333.989 50.5732C333.82 50.3113 333.588 50.1091 333.293 49.9666C332.998 49.8241 332.666 49.7528 332.299 49.7528C331.907 49.7528 331.566 49.834 331.274 49.9964C330.986 50.1555 330.762 50.3793 330.603 50.6676C330.447 50.956 330.37 51.294 330.37 51.6818H329.196C329.196 51.0852 329.334 50.5616 329.609 50.1108C329.884 49.66 330.259 49.3087 330.733 49.0568C331.21 48.8049 331.745 48.679 332.338 48.679C332.935 48.679 333.464 48.8049 333.924 49.0568C334.385 49.3087 334.746 49.6484 335.008 50.076C335.27 50.5036 335.401 50.9792 335.401 51.5028C335.401 51.8774 335.333 52.2436 335.197 52.6016C335.064 52.9562 334.832 53.3523 334.501 53.7898C334.173 54.224 333.717 54.7543 333.134 55.3807L330.847 57.8267V57.9062H335.58V59H329.157ZM338.508 57.6974C338.263 57.6974 338.052 57.6096 337.877 57.4339C337.701 57.2583 337.613 57.0478 337.613 56.8026C337.613 56.5573 337.701 56.3468 337.877 56.1712C338.052 55.9955 338.263 55.9077 338.508 55.9077C338.753 55.9077 338.964 55.9955 339.139 56.1712C339.315 56.3468 339.403 56.5573 339.403 56.8026C339.403 56.965 339.362 57.1141 339.279 57.25C339.199 57.3859 339.091 57.4953 338.956 57.5781C338.823 57.6577 338.674 57.6974 338.508 57.6974ZM338.508 52.5469C338.263 52.5469 338.052 52.459 337.877 52.2834C337.701 52.1077 337.613 51.8973 337.613 51.652C337.613 51.4067 337.701 51.1963 337.877 51.0206C338.052 50.8449 338.263 50.7571 338.508 50.7571C338.753 50.7571 338.964 50.8449 339.139 51.0206C339.315 51.1963 339.403 51.4067 339.403 51.652C339.403 51.8144 339.362 51.9635 339.279 52.0994C339.199 52.2353 339.091 52.3447 338.956 52.4276C338.823 52.5071 338.674 52.5469 338.508 52.5469ZM344.81 59.1392C344.061 59.1392 343.422 58.9354 342.896 58.5277C342.369 58.1167 341.966 57.5218 341.687 56.7429C341.409 55.9607 341.27 55.0161 341.27 53.9091C341.27 52.8087 341.409 51.8691 341.687 51.0902C341.969 50.308 342.373 49.7114 342.9 49.3004C343.431 48.8861 344.067 48.679 344.81 48.679C345.552 48.679 346.187 48.8861 346.714 49.3004C347.244 49.7114 347.648 50.308 347.927 51.0902C348.208 51.8691 348.349 52.8087 348.349 53.9091C348.349 55.0161 348.21 55.9607 347.932 56.7429C347.653 57.5218 347.251 58.1167 346.724 58.5277C346.197 58.9354 345.559 59.1392 344.81 59.1392ZM344.81 58.0455C345.552 58.0455 346.129 57.6875 346.54 56.9716C346.951 56.2557 347.156 55.2348 347.156 53.9091C347.156 53.0275 347.062 52.2768 346.873 51.657C346.687 51.0372 346.419 50.5649 346.067 50.2401C345.719 49.9152 345.3 49.7528 344.81 49.7528C344.074 49.7528 343.499 50.1158 343.084 50.8416C342.67 51.5642 342.463 52.5866 342.463 53.9091C342.463 54.7907 342.556 55.5398 342.741 56.1562C342.927 56.7727 343.194 57.2417 343.542 57.5632C343.893 57.8847 344.316 58.0455 344.81 58.0455ZM353.56 59.1392C352.811 59.1392 352.172 58.9354 351.646 58.5277C351.119 58.1167 350.716 57.5218 350.437 56.7429C350.159 55.9607 350.02 55.0161 350.02 53.9091C350.02 52.8087 350.159 51.8691 350.437 51.0902C350.719 50.308 351.123 49.7114 351.65 49.3004C352.181 48.8861 352.817 48.679 353.56 48.679C354.302 48.679 354.937 48.8861 355.464 49.3004C355.994 49.7114 356.398 50.308 356.677 51.0902C356.958 51.8691 357.099 52.8087 357.099 53.9091C357.099 55.0161 356.96 55.9607 356.682 56.7429C356.403 57.5218 356.001 58.1167 355.474 58.5277C354.947 58.9354 354.309 59.1392 353.56 59.1392ZM353.56 58.0455C354.302 58.0455 354.879 57.6875 355.29 56.9716C355.701 56.2557 355.906 55.2348 355.906 53.9091C355.906 53.0275 355.812 52.2768 355.623 51.657C355.437 51.0372 355.169 50.5649 354.817 50.2401C354.469 49.9152 354.05 49.7528 353.56 49.7528C352.824 49.7528 352.249 50.1158 351.834 50.8416C351.42 51.5642 351.213 52.5866 351.213 53.9091C351.213 54.7907 351.306 55.5398 351.491 56.1562C351.677 56.7727 351.944 57.2417 352.292 57.5632C352.643 57.8847 353.066 58.0455 353.56 58.0455Z" fill="black"/>
<path opacity="0.5" d="M326.233 3.81818H327.705L331.165 12.2699H331.284L334.744 3.81818H336.216V14H335.062V6.2642H334.963L331.781 14H330.668L327.486 6.2642H327.386V14H326.233V3.81818ZM340.776 14.179C340.292 14.179 339.853 14.0878 339.459 13.9055C339.064 13.7199 338.751 13.4531 338.519 13.1051C338.287 12.7538 338.171 12.3295 338.171 11.8324C338.171 11.3949 338.257 11.0402 338.43 10.7685C338.602 10.4934 338.832 10.2779 339.121 10.1222C339.409 9.96638 339.727 9.85038 340.075 9.77415C340.426 9.6946 340.779 9.63163 341.134 9.58523C341.598 9.52557 341.974 9.48082 342.263 9.45099C342.554 9.41785 342.766 9.36316 342.899 9.28693C343.035 9.2107 343.103 9.07812 343.103 8.8892V8.84943C343.103 8.3589 342.969 7.97775 342.7 7.70597C342.435 7.43419 342.032 7.2983 341.492 7.2983C340.932 7.2983 340.493 7.42093 340.175 7.66619C339.856 7.91146 339.633 8.1733 339.503 8.4517L338.39 8.05398C338.589 7.58996 338.854 7.22869 339.185 6.97017C339.52 6.70833 339.885 6.52604 340.279 6.4233C340.677 6.31723 341.068 6.2642 341.452 6.2642C341.698 6.2642 341.979 6.29403 342.297 6.35369C342.619 6.41004 342.929 6.5277 343.227 6.70668C343.529 6.88565 343.779 7.15578 343.978 7.51705C344.177 7.87831 344.276 8.36222 344.276 8.96875V14H343.103V12.9659H343.043C342.964 13.1316 342.831 13.3089 342.645 13.4979C342.46 13.6868 342.213 13.8475 341.905 13.9801C341.596 14.1127 341.22 14.179 340.776 14.179ZM340.955 13.125C341.419 13.125 341.81 13.0339 342.128 12.8516C342.45 12.6693 342.692 12.4339 342.854 12.1456C343.02 11.8572 343.103 11.554 343.103 11.2358V10.1619C343.053 10.2216 342.944 10.2763 342.775 10.326C342.609 10.3724 342.417 10.4138 342.198 10.4503C341.983 10.4834 341.772 10.5133 341.567 10.5398C341.364 10.563 341.2 10.5829 341.074 10.5994C340.769 10.6392 340.484 10.7038 340.219 10.7933C339.957 10.8795 339.745 11.0104 339.583 11.1861C339.424 11.3584 339.344 11.5937 339.344 11.892C339.344 12.2997 339.495 12.608 339.797 12.8168C340.102 13.0223 340.488 13.125 340.955 13.125ZM349.301 14.1591C348.665 14.1591 348.103 13.9983 347.616 13.6768C347.129 13.352 346.747 12.8946 346.472 12.3047C346.197 11.7114 346.06 11.0104 346.06 10.2017C346.06 9.39962 346.197 8.7036 346.472 8.11364C346.747 7.52367 347.13 7.06794 347.621 6.74645C348.111 6.42495 348.678 6.2642 349.321 6.2642C349.818 6.2642 350.211 6.34706 350.499 6.51278C350.791 6.67519 351.013 6.8608 351.165 7.0696C351.321 7.27509 351.442 7.44413 351.528 7.5767H351.628V3.81818H352.801V14H351.668V12.8267H351.528C351.442 12.9659 351.32 13.1416 351.161 13.3537C351.001 13.5625 350.774 13.7498 350.479 13.9155C350.184 14.0779 349.792 14.1591 349.301 14.1591ZM349.46 13.1051C349.931 13.1051 350.329 12.9825 350.653 12.7372C350.978 12.4886 351.225 12.1456 351.394 11.7081C351.563 11.2673 351.648 10.7585 351.648 10.1818C351.648 9.61174 351.565 9.11293 351.399 8.68537C351.233 8.2545 350.988 7.91974 350.663 7.68111C350.339 7.43916 349.938 7.31818 349.46 7.31818C348.963 7.31818 348.549 7.44579 348.217 7.70099C347.889 7.95289 347.642 8.29593 347.477 8.73011C347.314 9.16098 347.233 9.64489 347.233 10.1818C347.233 10.7254 347.316 11.2192 347.482 11.6634C347.651 12.1042 347.899 12.4555 348.227 12.7173C348.559 12.9759 348.97 13.1051 349.46 13.1051Z" fill="black"/>
<defs>
<clipPath id="clip0_71_203">
<rect width="24" height="24" fill="white" transform="translate(179 14.0293) rotate(45)"/>
</clipPath>
</defs>
</svg>
