<svg width="193" height="20" viewBox="0 0 193 20" fill="none" xmlns="http://www.w3.org/2000/svg">
<path fill-rule="evenodd" clip-rule="evenodd" d="M67.1965 14.8251V17.1099H72.4026L71.4834 4.31543H66.7452L57.4948 17.1099H60.6533L62.2325 14.8251H67.1965ZM63.5865 12.7687L66.971 7.97113V12.7687H63.5865Z" fill="black"/>
<path fill-rule="evenodd" clip-rule="evenodd" d="M77.1241 4.31543L73.0627 17.1099H75.9959L78.0264 10.7127L84.1186 17.1099H86.8259L90.8873 4.31543H87.9541L85.6978 11.1693L79.6059 4.31543H77.1241Z" fill="black"/>
<path fill-rule="evenodd" clip-rule="evenodd" d="M90.3289 10.6892C89.0497 14.5746 91.6081 17.165 95.6584 17.165C99.7087 17.165 103.759 14.5746 104.825 10.6892C106.104 6.80397 103.546 4.21338 99.4956 4.21338C95.6584 4.21338 91.6081 6.80397 90.3289 10.6892ZM96.0845 15.4382C94.1662 15.4382 93.9968 13.1457 95.0188 10.2577C95.928 7.68693 97.5769 5.9402 99.0691 5.9402C100.561 5.9402 101.201 7.66738 100.348 10.2577C99.4956 13.0636 98.0033 15.4382 96.0845 15.4382Z" fill="black"/>
<path fill-rule="evenodd" clip-rule="evenodd" d="M118.505 4.31543H107.321L105.742 6.37149H109.577L106.193 17.1099H110.931L114.09 6.37149H116.717L118.505 4.31543Z" fill="black"/>
<path fill-rule="evenodd" clip-rule="evenodd" d="M55.466 10.2834C54.8868 12.043 54.1097 13.801 53.0007 14.7428C52.9043 14.3791 52.6977 14.0065 52.1884 13.6259C51.6261 13.2176 50.6759 13.2001 49.7487 13.3218C49.7735 12.4329 50.0139 11.3594 50.3683 10.2834C51.0054 7.70218 52.7049 5.76622 54.1917 5.76622C55.6788 5.76622 56.316 7.70218 55.466 10.2834ZM51.2178 15.4453C50.4365 15.4453 50.0146 15.0103 49.8415 14.3243C50.5075 14.2565 51.131 14.3388 51.2916 14.833C51.3588 15.0389 51.4061 15.2369 51.4437 15.4285C51.3689 15.4348 51.2951 15.4453 51.2178 15.4453ZM54.8289 4.26074C50.7931 4.26074 46.7573 6.8419 45.4826 10.7134C44.4206 14.5854 46.7573 17.1662 50.7931 17.1662C51.1038 17.1662 51.4137 17.1459 51.723 17.116C51.8402 17.5132 52.045 17.8843 52.4625 18.2427C53.6173 19.2338 55.8212 19.1026 55.8212 19.1026L57.5899 17.0375C57.5899 17.0375 55.3023 17.8006 53.9921 16.9629C53.8704 16.8852 53.7711 16.8067 53.6814 16.7277C56.608 15.8378 59.122 13.6476 59.927 10.7134C61.2017 6.8419 58.6526 4.26074 54.8289 4.26074Z" fill="black"/>
<path fill-rule="evenodd" clip-rule="evenodd" d="M188.208 10.2834C187.628 12.0426 186.852 13.8005 185.743 14.7428C185.645 14.3791 185.439 14.0065 184.931 13.6259C184.367 13.2176 183.417 13.2001 182.49 13.3218C182.515 12.4329 182.755 11.3594 183.109 10.2834C183.747 7.70218 185.446 5.76622 186.934 5.76622C188.42 5.76622 189.057 7.70218 188.208 10.2834ZM183.96 15.4453C183.179 15.4453 182.757 15.0103 182.583 14.3243C183.249 14.2565 183.872 14.3388 184.034 14.833C184.101 15.0389 184.148 15.2369 184.186 15.4285C184.111 15.4348 184.037 15.4453 183.96 15.4453ZM187.571 4.26074C183.535 4.26074 179.499 6.8419 178.224 10.7134C177.163 14.5854 179.499 17.1662 183.535 17.1662C183.845 17.1662 184.156 17.1459 184.465 17.116C184.582 17.5132 184.786 17.8843 185.204 18.2427C186.359 19.2338 188.562 19.1026 188.562 19.1026L190.331 17.0375C190.331 17.0375 188.044 17.8006 186.734 16.9629C186.612 16.8852 186.512 16.8067 186.423 16.7277C189.35 15.8378 191.863 13.6476 192.669 10.7134C193.943 6.8419 191.394 4.26074 187.571 4.26074Z" fill="black"/>
<path fill-rule="evenodd" clip-rule="evenodd" d="M130.143 4.19873C127.799 4.19873 124.094 4.88199 123.152 8.35907C122.384 11.1898 124.819 11.9541 126.307 12.3999C127.918 12.8825 129.291 13.2631 129.077 14.3422C128.864 15.2055 127.372 15.2055 126.733 15.2055C125.028 15.2055 123.536 14.1264 122.896 13.2631L120.766 14.774C121.404 15.6372 122.896 17.1479 126.094 17.1479C129.291 17.1479 132.488 15.8529 133.554 13.0472C134.406 10.2415 131.903 9.33351 130.143 8.73083C128.228 8.07526 126.926 8.07812 127.159 7.22016C127.376 6.42238 128.651 6.14098 129.717 6.14098C130.569 6.14098 132.061 6.57251 132.915 7.65169L134.832 6.14098C133.98 4.84603 132.488 4.19873 130.143 4.19873Z" fill="black"/>
<path fill-rule="evenodd" clip-rule="evenodd" d="M137.364 4.31543L133.528 17.1099H138.041L139.846 11.6267H144.358L142.78 17.1099H147.291L151.353 4.31543H146.615L145.036 9.57022H140.297L142.102 4.31543H137.364Z" fill="black"/>
<path fill-rule="evenodd" clip-rule="evenodd" d="M157.562 14.8251L157.787 17.1099H162.751V16.8815L161.849 4.31543H157.336L147.917 17.1099H148.086H151.244L152.824 14.8251H157.562ZM153.952 12.7687L157.336 7.97113L157.562 12.7687H153.952Z" fill="black"/>
<path fill-rule="evenodd" clip-rule="evenodd" d="M170.08 12.7687L171.885 17.1099H177.196L174.368 11.6267C175.946 10.941 177.751 10.2557 178.428 7.74259C179.331 4.77245 176.397 4.31543 173.465 4.31543C172.11 4.31543 167.147 4.31543 167.147 4.31543L163.312 17.1099H167.824L169.403 12.312C169.403 12.312 169.855 12.312 170.08 12.7687ZM169.855 10.7127L171.208 6.37149C171.208 6.37149 172.11 6.37149 172.337 6.37149C173.465 6.37149 174.015 7.06488 173.69 8.42802C173.356 9.83248 172.11 10.7127 169.855 10.7127Z" fill="black"/>
<path d="M33.8331 14.7407C32.1461 14.721 8.52785 14.3026 0 6.46968C0.397616 6.40893 0.748339 6.22842 0.748339 6.22842C0.748339 6.22842 1.72238 4.70304 3.13521 4.74424C4.16717 4.77427 6.8746 5.48302 6.8746 5.48302C6.8746 5.48302 5.48763 3.45279 6.57749 2.08452C9.69411 -1.45782 18.7456 0.493509 21.3266 0.919106C23.9076 1.34505 29.4473 2.37256 31.9492 2.68225C34.451 2.99193 39.6085 3.28137 40.5469 3.2688C41.4855 3.25587 40.0228 4.40698 36.8263 4.37905C33.63 4.35181 30.7652 4.01001 30.7652 4.01001C30.7652 4.01001 30.7941 4.87202 29.3987 5.12445C26.9186 5.51584 23.8334 4.76834 23.8334 4.76834C23.8334 4.76834 24.7271 5.78118 22.9114 6.39496C20.8102 7.10545 18.3678 6.72803 18.3678 6.72803C18.3678 6.72803 19.062 7.45599 18.4386 7.99767C17.6086 8.71941 15.2935 8.97826 15.2935 8.97826C15.2935 8.97826 18.6167 11.0863 22.5665 11.1121C26.8814 11.1405 32.0761 9.78713 32.0761 9.78713L31.946 10.4104L27.3037 11.3835C27.3037 11.3835 26.6266 11.5395 26.3155 11.7389C25.9857 11.9435 25.8536 12.13 25.8363 12.4525C25.758 13.494 27.2179 13.6333 27.2179 13.6333C27.2179 13.6333 30.1711 14.165 34.7123 13.8362C34.4296 14.1524 34.1362 14.4541 33.8331 14.7407Z" fill="black"/>
<path d="M26.0787 19.0388C20.4853 17.9764 9.43523 15.156 0.827116 8.25807C0.744951 8.19642 0.667648 8.13668 0.602173 8.08252C0.614447 8.0989 0.629652 8.11702 0.642444 8.13395C7.06691 14.6589 15.672 18.3343 20.8102 19.8978C22.9776 19.7459 25.317 19.1879 26.0787 19.0388Z" fill="black"/>
<path d="M0.53125 7.9917C9.6664 14.77 25.0999 16.5799 31.0141 17.0365C29.4777 17.9288 27.8086 18.5788 26.0788 19.0384C20.4213 17.9638 9.18005 15.0629 0.53125 7.9917Z" fill="black"/>
<path d="M15.3592 19.9198C10.9849 17.6712 5.0564 14.0671 0.53125 7.9917C6.98293 14.6033 15.7268 18.3259 20.8895 19.8918C19.0064 20.0367 17.1346 20.0255 15.3592 19.9198Z" fill="black"/>
</svg>
