<svg width="183" height="39" viewBox="0 0 183 39" fill="none" xmlns="http://www.w3.org/2000/svg">
<path d="M19.4672 0C31.6183 -7.74403e-06 32 22.9015 19.4672 22.9015L32 38C25.8658 37.9023 23.1467 36.87 19.4672 33.4324L5.59841 16.6845H16.668C23.4751 16.6845 23.9205 6.21703 16.668 6.21703H11.4513C6.38327 5.63865 3.90441 4.18929 0 0H19.4672Z" fill="black"/>
<path d="M6.42545 38H0V31.8464C3.37177 31.8464 6.42545 34.6377 6.42545 38Z" fill="black"/>
<path d="M43.68 38.36C42.46 38.36 41.35 38.12 40.35 37.64C39.37 37.14 38.59 36.38 38.01 35.36C37.43 34.34 37.14 33.04 37.14 31.46C37.14 29.98 37.44 28.7 38.04 27.62C38.64 26.54 39.43 25.71 40.41 25.13C41.39 24.53 42.43 24.23 43.53 24.23C44.83 24.23 45.81 24.45 46.47 24.89C47.15 25.31 47.71 25.78 48.15 26.3L47.97 26.81L48.36 24.89H52.26V38H48.06V35.15L48.39 36.05C48.35 36.05 48.23 36.17 48.03 36.41C47.83 36.63 47.53 36.9 47.13 37.22C46.75 37.52 46.27 37.78 45.69 38C45.13 38.24 44.46 38.36 43.68 38.36ZM44.88 34.94C45.38 34.94 45.83 34.87 46.23 34.73C46.63 34.57 46.98 34.35 47.28 34.07C47.58 33.77 47.84 33.4 48.06 32.96V29.75C47.9 29.31 47.66 28.94 47.34 28.64C47.02 28.32 46.64 28.08 46.2 27.92C45.76 27.74 45.27 27.65 44.73 27.65C44.13 27.65 43.57 27.81 43.05 28.13C42.55 28.43 42.15 28.85 41.85 29.39C41.55 29.93 41.4 30.55 41.4 31.25C41.4 31.95 41.56 32.58 41.88 33.14C42.2 33.7 42.62 34.14 43.14 34.46C43.68 34.78 44.26 34.94 44.88 34.94Z" fill="black"/>
<path d="M60.8477 38.27C59.7677 38.27 58.7577 38.08 57.8177 37.7C56.8977 37.32 56.1177 36.79 55.4777 36.11L57.2177 33.8C57.8577 34.38 58.4477 34.8 58.9877 35.06C59.5477 35.3 60.0477 35.42 60.4877 35.42C60.8277 35.42 61.1277 35.39 61.3877 35.33C61.6677 35.25 61.8877 35.14 62.0477 35C62.2077 34.84 62.2878 34.64 62.2878 34.4C62.2878 34.06 62.1478 33.79 61.8678 33.59C61.6077 33.39 61.2677 33.23 60.8477 33.11C60.4277 32.97 59.9777 32.83 59.4977 32.69C58.2977 32.31 57.4277 31.76 56.8877 31.04C56.3677 30.3 56.1077 29.5 56.1077 28.64C56.1077 27.98 56.2777 27.32 56.6177 26.66C56.9777 25.98 57.5377 25.42 58.2977 24.98C59.0777 24.52 60.0777 24.29 61.2977 24.29C62.3977 24.29 63.3277 24.4 64.0877 24.62C64.8477 24.84 65.5677 25.2 66.2477 25.7L64.6577 28.16C64.2778 27.86 63.8477 27.61 63.3677 27.41C62.9077 27.19 62.4777 27.07 62.0777 27.05C61.7177 27.03 61.4077 27.07 61.1477 27.17C60.9077 27.27 60.7177 27.4 60.5777 27.56C60.4377 27.72 60.3678 27.89 60.3678 28.07C60.3477 28.45 60.4878 28.75 60.7878 28.97C61.1077 29.19 61.5077 29.36 61.9877 29.48C62.4677 29.6 62.9377 29.74 63.3977 29.9C64.0377 30.1 64.5877 30.37 65.0477 30.71C65.5077 31.05 65.8577 31.46 66.0977 31.94C66.3577 32.4 66.4877 32.96 66.4877 33.62C66.4877 34.42 66.2778 35.18 65.8577 35.9C65.4578 36.6 64.8377 37.17 63.9977 37.61C63.1777 38.05 62.1278 38.27 60.8477 38.27Z" fill="black"/>
<path d="M70.0057 38V14.33H74.1157V27.53L74.0857 27.02C74.5457 26.2 75.1957 25.54 76.0357 25.04C76.8757 24.52 77.9057 24.26 79.1257 24.26C80.3657 24.26 81.3957 24.63 82.2157 25.37C83.0557 26.09 83.4857 27.03 83.5057 28.19V38H79.3057V29.75C79.2857 29.17 79.1257 28.71 78.8257 28.37C78.5457 28.01 78.0657 27.83 77.3857 27.83C76.7457 27.83 76.1857 28.04 75.7057 28.46C75.2257 28.88 74.8557 29.45 74.5957 30.17C74.3357 30.89 74.2057 31.72 74.2057 32.66V38H70.0057Z" fill="black"/>
<path d="M93.3382 38.36C92.1182 38.36 91.0082 38.12 90.0082 37.64C89.0282 37.14 88.2482 36.38 87.6682 35.36C87.0882 34.34 86.7982 33.04 86.7982 31.46C86.7982 29.98 87.0982 28.7 87.6982 27.62C88.2982 26.54 89.0882 25.71 90.0682 25.13C91.0482 24.53 92.0882 24.23 93.1882 24.23C94.4882 24.23 95.4682 24.45 96.1282 24.89C96.8082 25.31 97.3682 25.78 97.8082 26.3L97.6282 26.81L98.0182 24.89H101.918V38H97.7182V35.15L98.0482 36.05C98.0082 36.05 97.8882 36.17 97.6882 36.41C97.4882 36.63 97.1882 36.9 96.7882 37.22C96.4082 37.52 95.9282 37.78 95.3482 38C94.7882 38.24 94.1182 38.36 93.3382 38.36ZM94.5382 34.94C95.0382 34.94 95.4882 34.87 95.8882 34.73C96.2882 34.57 96.6382 34.35 96.9382 34.07C97.2382 33.77 97.4982 33.4 97.7182 32.96V29.75C97.5582 29.31 97.3182 28.94 96.9982 28.64C96.6782 28.32 96.2982 28.08 95.8582 27.92C95.4182 27.74 94.9282 27.65 94.3882 27.65C93.7882 27.65 93.2282 27.81 92.7082 28.13C92.2082 28.43 91.8082 28.85 91.5082 29.39C91.2082 29.93 91.0582 30.55 91.0582 31.25C91.0582 31.95 91.2182 32.58 91.5382 33.14C91.8582 33.7 92.2782 34.14 92.7982 34.46C93.3382 34.78 93.9182 34.94 94.5382 34.94Z" fill="black"/>
<path d="M110.056 24.89L110.386 27.23L110.326 27.02C110.786 26.2 111.436 25.54 112.276 25.04C113.116 24.52 114.146 24.26 115.366 24.26C116.606 24.26 117.636 24.63 118.456 25.37C119.296 26.09 119.726 27.03 119.746 28.19V38H115.546V29.75C115.526 29.17 115.366 28.71 115.066 28.37C114.786 28.01 114.306 27.83 113.626 27.83C112.986 27.83 112.426 28.04 111.946 28.46C111.466 28.88 111.096 29.45 110.836 30.17C110.576 30.89 110.446 31.72 110.446 32.66V38H106.246V24.89H110.056Z" fill="black"/>
<path d="M132.794 31.28C132.794 29.94 133.104 28.74 133.724 27.68C134.364 26.62 135.254 25.79 136.394 25.19C137.534 24.57 138.844 24.26 140.324 24.26C141.824 24.26 143.124 24.57 144.224 25.19C145.324 25.79 146.164 26.62 146.744 27.68C147.344 28.74 147.644 29.94 147.644 31.28C147.644 32.62 147.344 33.83 146.744 34.91C146.164 35.97 145.324 36.81 144.224 37.43C143.124 38.05 141.804 38.36 140.264 38.36C138.824 38.36 137.534 38.08 136.394 37.52C135.274 36.96 134.394 36.15 133.754 35.09C133.114 34.03 132.794 32.76 132.794 31.28ZM137.024 31.31C137.024 31.99 137.164 32.61 137.444 33.17C137.724 33.71 138.104 34.14 138.584 34.46C139.064 34.78 139.604 34.94 140.204 34.94C140.864 34.94 141.434 34.78 141.914 34.46C142.394 34.14 142.764 33.71 143.024 33.17C143.284 32.61 143.414 31.99 143.414 31.31C143.414 30.61 143.284 29.99 143.024 29.45C142.764 28.91 142.394 28.48 141.914 28.16C141.434 27.84 140.864 27.68 140.204 27.68C139.604 27.68 139.064 27.84 138.584 28.16C138.104 28.48 137.724 28.91 137.444 29.45C137.164 29.99 137.024 30.61 137.024 31.31Z" fill="black"/>
<path d="M156.293 38.36C155.073 38.36 153.983 38.08 153.023 37.52C152.063 36.94 151.303 36.11 150.743 35.03C150.203 33.95 149.933 32.67 149.933 31.19C149.933 29.71 150.233 28.45 150.833 27.41C151.433 26.37 152.253 25.58 153.293 25.04C154.333 24.5 155.513 24.23 156.833 24.23C157.673 24.23 158.473 24.36 159.233 24.62C160.013 24.88 160.663 25.28 161.183 25.82V27.14V14.33H165.353V38H161.153V35.45L161.483 36.35C160.803 36.91 160.043 37.39 159.203 37.79C158.363 38.17 157.393 38.36 156.293 38.36ZM157.673 34.82C158.233 34.82 158.723 34.75 159.143 34.61C159.583 34.45 159.963 34.23 160.283 33.95C160.623 33.65 160.913 33.28 161.153 32.84V29.63C160.993 29.19 160.743 28.82 160.403 28.52C160.083 28.2 159.683 27.96 159.203 27.8C158.743 27.62 158.233 27.53 157.673 27.53C157.053 27.53 156.473 27.69 155.933 28.01C155.413 28.31 154.993 28.73 154.673 29.27C154.353 29.81 154.193 30.43 154.193 31.13C154.193 31.83 154.353 32.46 154.673 33.02C154.993 33.58 155.413 34.02 155.933 34.34C156.473 34.66 157.053 34.82 157.673 34.82Z" fill="black"/>
<path d="M169.674 24.89H173.874V38H169.674V24.89ZM169.584 20.24C169.584 19.62 169.824 19.11 170.304 18.71C170.804 18.31 171.334 18.11 171.894 18.11C172.454 18.11 172.964 18.31 173.424 18.71C173.904 19.11 174.144 19.62 174.144 20.24C174.144 20.86 173.904 21.37 173.424 21.77C172.964 22.15 172.454 22.34 171.894 22.34C171.334 22.34 170.804 22.15 170.304 21.77C169.824 21.37 169.584 20.86 169.584 20.24Z" fill="black"/>
<path d="M178.199 14.33H182.399V38H178.199V14.33Z" fill="black"/>
</svg>
