<svg width="358" height="20" viewBox="0 0 358 20" fill="none" xmlns="http://www.w3.org/2000/svg">
<path opacity="0.5" d="M4.2358 16.1392C3.65246 16.1392 3.12713 16.0232 2.6598 15.7912C2.19247 15.5592 1.81795 15.241 1.53622 14.8366C1.2545 14.4323 1.10038 13.9716 1.07386 13.4545H2.26705C2.31345 13.9152 2.52225 14.2964 2.89347 14.598C3.26799 14.8963 3.71544 15.0455 4.2358 15.0455C4.65341 15.0455 5.02462 14.9477 5.34943 14.7521C5.67756 14.5566 5.93442 14.2881 6.12003 13.9467C6.30895 13.602 6.40341 13.2126 6.40341 12.7784C6.40341 12.3343 6.30563 11.9382 6.11009 11.5902C5.91785 11.2389 5.6527 10.9621 5.31463 10.7599C4.97656 10.5578 4.59044 10.455 4.15625 10.4517C3.8447 10.4484 3.52486 10.4964 3.19673 10.5959C2.86861 10.692 2.59848 10.8163 2.38636 10.9688L1.23295 10.8295L1.84943 5.81818H7.1392V6.91193H2.88352L2.52557 9.91477H2.58523C2.79403 9.74905 3.05587 9.61151 3.37074 9.50213C3.68561 9.39276 4.01373 9.33807 4.35511 9.33807C4.97822 9.33807 5.53338 9.48722 6.0206 9.78551C6.51113 10.0805 6.8956 10.4848 7.17401 10.9986C7.45573 11.5123 7.59659 12.099 7.59659 12.7585C7.59659 13.4081 7.45076 13.9882 7.15909 14.4986C6.87074 15.0057 6.47301 15.4067 5.96591 15.7017C5.45881 15.9934 4.8821 16.1392 4.2358 16.1392ZM19.2562 8.36364C19.1966 7.85985 18.9546 7.46875 18.5304 7.19034C18.1061 6.91193 17.5858 6.77273 16.9693 6.77273C16.5185 6.77273 16.1241 6.84564 15.786 6.99148C15.4513 7.13731 15.1895 7.33783 15.0005 7.59304C14.8149 7.84825 14.7221 8.13826 14.7221 8.46307C14.7221 8.73485 14.7868 8.96851 14.916 9.16406C15.0486 9.3563 15.2176 9.51705 15.4231 9.64631C15.6286 9.77225 15.844 9.87666 16.0694 9.95952C16.2948 10.0391 16.502 10.1037 16.6909 10.1534L17.725 10.4318C17.9901 10.5014 18.2851 10.5975 18.6099 10.7202C18.938 10.8428 19.2512 11.0102 19.5495 11.2223C19.8511 11.4311 20.0997 11.6996 20.2953 12.0277C20.4908 12.3558 20.5886 12.7585 20.5886 13.2358C20.5886 13.786 20.4444 14.2831 20.1561 14.7273C19.871 15.1714 19.4534 15.5244 18.9032 15.7862C18.3564 16.0481 17.6918 16.179 16.9096 16.179C16.1805 16.179 15.5491 16.0613 15.0154 15.826C14.4851 15.5907 14.0675 15.2625 13.7626 14.8416C13.461 14.4207 13.2903 13.9318 13.2505 13.375H14.5233C14.5564 13.7595 14.6857 14.0777 14.911 14.3295C15.1397 14.5781 15.4281 14.7637 15.7761 14.8864C16.1274 15.0057 16.5053 15.0653 16.9096 15.0653C17.3803 15.0653 17.8029 14.9891 18.1774 14.8366C18.5519 14.6809 18.8485 14.4654 19.0673 14.1903C19.286 13.9119 19.3954 13.5871 19.3954 13.2159C19.3954 12.8778 19.301 12.6027 19.112 12.3906C18.9231 12.1785 18.6745 12.0062 18.3663 11.8736C18.0581 11.741 17.725 11.625 17.367 11.5256L16.1142 11.1676C15.3187 10.9389 14.689 10.6125 14.225 10.1882C13.7609 9.76397 13.5289 9.20881 13.5289 8.52273C13.5289 7.95265 13.6831 7.45549 13.9913 7.03125C14.3029 6.60369 14.7205 6.27225 15.2441 6.03693C15.7711 5.7983 16.3594 5.67898 17.0091 5.67898C17.6653 5.67898 18.2486 5.79664 18.7591 6.03196C19.2695 6.26397 19.6738 6.58215 19.9721 6.98651C20.2737 7.39086 20.4328 7.8499 20.4494 8.36364H19.2562ZM25.6584 16.1591C24.9226 16.1591 24.2879 15.9967 23.7543 15.6719C23.224 15.3438 22.8146 14.8864 22.5263 14.2997C22.2412 13.7098 22.0987 13.0237 22.0987 12.2415C22.0987 11.4593 22.2412 10.7699 22.5263 10.1733C22.8146 9.57339 23.2157 9.10606 23.7294 8.77131C24.2464 8.43324 24.8497 8.2642 25.5391 8.2642C25.9368 8.2642 26.3295 8.33049 26.7173 8.46307C27.1051 8.59564 27.4581 8.81108 27.7763 9.10938C28.0945 9.40436 28.348 9.79545 28.5369 10.2827C28.7259 10.7699 28.8203 11.3698 28.8203 12.0824V12.5795H22.9339V11.5653H27.6271C27.6271 11.1345 27.541 10.75 27.3686 10.4119C27.1996 10.0739 26.9576 9.80705 26.6428 9.61151C26.3312 9.41596 25.9633 9.31818 25.5391 9.31818C25.0717 9.31818 24.6674 9.43419 24.326 9.66619C23.9879 9.89489 23.7277 10.1932 23.5455 10.5611C23.3632 10.929 23.272 11.3234 23.272 11.7443V12.4205C23.272 12.9972 23.3714 13.486 23.5703 13.8871C23.7725 14.2848 24.0526 14.5881 24.4105 14.7969C24.7685 15.0024 25.1844 15.1051 25.6584 15.1051C25.9666 15.1051 26.245 15.062 26.4936 14.9759C26.7455 14.8864 26.9626 14.7538 27.1449 14.5781C27.3272 14.3991 27.468 14.1771 27.5675 13.9119L28.701 14.2301C28.5817 14.6146 28.3812 14.9527 28.0994 15.2443C27.8177 15.5327 27.4697 15.758 27.0554 15.9205C26.6411 16.0795 26.1754 16.1591 25.6584 16.1591ZM32.8523 16.179C32.3684 16.179 31.9292 16.0878 31.5348 15.9055C31.1404 15.7199 30.8272 15.4531 30.5952 15.1051C30.3632 14.7538 30.2472 14.3295 30.2472 13.8324C30.2472 13.3949 30.3333 13.0402 30.5057 12.7685C30.678 12.4934 30.9084 12.2779 31.1967 12.1222C31.4851 11.9664 31.8033 11.8504 32.1513 11.7741C32.5026 11.6946 32.8556 11.6316 33.2102 11.5852C33.6742 11.5256 34.0504 11.4808 34.3388 11.451C34.6304 11.4179 34.8426 11.3632 34.9751 11.2869C35.111 11.2107 35.179 11.0781 35.179 10.8892V10.8494C35.179 10.3589 35.0447 9.97775 34.7763 9.70597C34.5111 9.43419 34.1084 9.2983 33.5682 9.2983C33.008 9.2983 32.5689 9.42093 32.2507 9.66619C31.9325 9.91146 31.7088 10.1733 31.5795 10.4517L30.4659 10.054C30.6648 9.58996 30.9299 9.22869 31.2614 8.97017C31.5961 8.70833 31.9607 8.52604 32.3551 8.4233C32.7528 8.31723 33.1439 8.2642 33.5284 8.2642C33.7737 8.2642 34.0554 8.29403 34.3736 8.35369C34.6951 8.41004 35.005 8.5277 35.3033 8.70668C35.6049 8.88565 35.8551 9.15578 36.054 9.51705C36.2528 9.87831 36.3523 10.3622 36.3523 10.9688V16H35.179V14.9659H35.1193C35.0398 15.1316 34.9072 15.3089 34.7216 15.4979C34.536 15.6868 34.2891 15.8475 33.9808 15.9801C33.6726 16.1127 33.2964 16.179 32.8523 16.179ZM33.0312 15.125C33.4953 15.125 33.8864 15.0339 34.2045 14.8516C34.526 14.6693 34.768 14.4339 34.9304 14.1456C35.0961 13.8572 35.179 13.554 35.179 13.2358V12.1619C35.1293 12.2216 35.0199 12.2763 34.8509 12.326C34.6851 12.3724 34.4929 12.4138 34.2741 12.4503C34.0587 12.4834 33.8482 12.5133 33.6428 12.5398C33.4406 12.563 33.2765 12.5829 33.1506 12.5994C32.8456 12.6392 32.5606 12.7038 32.2955 12.7933C32.0336 12.8795 31.8215 13.0104 31.6591 13.1861C31.5 13.3584 31.4205 13.5937 31.4205 13.892C31.4205 14.2997 31.5713 14.608 31.8729 14.8168C32.1778 15.0223 32.5639 15.125 33.0312 15.125ZM41.8148 8.36364V9.35795H37.8574V8.36364H41.8148ZM39.0108 6.53409H40.1841V13.8125C40.1841 14.1439 40.2322 14.3925 40.3283 14.5582C40.4277 14.7206 40.5537 14.83 40.7061 14.8864C40.8619 14.9394 41.026 14.9659 41.1983 14.9659C41.3276 14.9659 41.4337 14.9593 41.5165 14.946C41.5994 14.9295 41.6657 14.9162 41.7154 14.9062L41.954 15.9602C41.8745 15.9901 41.7634 16.0199 41.6209 16.0497C41.4784 16.0829 41.2978 16.0994 41.079 16.0994C40.7476 16.0994 40.4228 16.0282 40.1046 15.8857C39.7897 15.7431 39.5279 15.526 39.3191 15.2344C39.1136 14.9427 39.0108 14.5748 39.0108 14.1307V6.53409ZM48.8521 10.0739L47.7981 10.3722C47.7318 10.1965 47.6341 10.0258 47.5048 9.86009C47.3788 9.69105 47.2065 9.55185 46.9877 9.44247C46.769 9.3331 46.4889 9.27841 46.1475 9.27841C45.6802 9.27841 45.2908 9.38613 44.9792 9.60156C44.671 9.81368 44.5169 10.0838 44.5169 10.4119C44.5169 10.7036 44.6229 10.9339 44.835 11.103C45.0472 11.272 45.3786 11.4129 45.8294 11.5256L46.9629 11.804C47.6457 11.9697 48.1544 12.2232 48.4892 12.5646C48.8239 12.9027 48.9913 13.3385 48.9913 13.8722C48.9913 14.3097 48.8654 14.7008 48.6135 15.0455C48.3649 15.3902 48.0169 15.6619 47.5694 15.8608C47.122 16.0597 46.6016 16.1591 46.0083 16.1591C45.2295 16.1591 44.5848 15.9901 44.0744 15.652C43.564 15.3139 43.2408 14.8201 43.1049 14.1705L44.2186 13.892C44.3246 14.303 44.5252 14.6113 44.8201 14.8168C45.1184 15.0223 45.5079 15.125 45.9885 15.125C46.5353 15.125 46.9695 15.009 47.291 14.777C47.6158 14.5417 47.7782 14.2599 47.7782 13.9318C47.7782 13.6667 47.6854 13.4446 47.4998 13.2656C47.3142 13.0833 47.0292 12.9474 46.6447 12.858L45.372 12.5597C44.6726 12.3939 44.1589 12.1371 43.8308 11.7891C43.506 11.4377 43.3436 10.9986 43.3436 10.4716C43.3436 10.0407 43.4645 9.65956 43.7065 9.32812C43.9518 8.99669 44.2849 8.73651 44.7058 8.54758C45.13 8.35866 45.6106 8.2642 46.1475 8.2642C46.9032 8.2642 47.4965 8.42992 47.9274 8.76136C48.3616 9.0928 48.6698 9.5303 48.8521 10.0739ZM54.854 16V5.81818H56.087V14.9062H60.82V16H54.854ZM65.7717 16.1591C65.0359 16.1591 64.4012 15.9967 63.8675 15.6719C63.3372 15.3438 62.9279 14.8864 62.6396 14.2997C62.3545 13.7098 62.212 13.0237 62.212 12.2415C62.212 11.4593 62.3545 10.7699 62.6396 10.1733C62.9279 9.57339 63.329 9.10606 63.8427 8.77131C64.3597 8.43324 64.9629 8.2642 65.6523 8.2642C66.0501 8.2642 66.4428 8.33049 66.8306 8.46307C67.2184 8.59564 67.5714 8.81108 67.8896 9.10938C68.2077 9.40436 68.4613 9.79545 68.6502 10.2827C68.8391 10.7699 68.9336 11.3698 68.9336 12.0824V12.5795H63.0472V11.5653H67.7404C67.7404 11.1345 67.6542 10.75 67.4819 10.4119C67.3129 10.0739 67.0709 9.80705 66.756 9.61151C66.4445 9.41596 66.0766 9.31818 65.6523 9.31818C65.185 9.31818 64.7807 9.43419 64.4393 9.66619C64.1012 9.89489 63.841 10.1932 63.6587 10.5611C63.4764 10.929 63.3853 11.3234 63.3853 11.7443V12.4205C63.3853 12.9972 63.4847 13.486 63.6836 13.8871C63.8858 14.2848 64.1658 14.5881 64.5238 14.7969C64.8817 15.0024 65.2977 15.1051 65.7717 15.1051C66.0799 15.1051 66.3583 15.062 66.6069 14.9759C66.8588 14.8864 67.0759 14.7538 67.2582 14.5781C67.4405 14.3991 67.5813 14.1771 67.6808 13.9119L68.8143 14.2301C68.695 14.6146 68.4944 14.9527 68.2127 15.2443C67.931 15.5327 67.583 15.758 67.1687 15.9205C66.7544 16.0795 66.2887 16.1591 65.7717 16.1591ZM74.119 8.36364V9.35795H70.0025V8.36364H74.119ZM71.2354 16V7.30966C71.2354 6.87216 71.3382 6.50758 71.5437 6.21591C71.7492 5.92424 72.016 5.70549 72.3441 5.55966C72.6722 5.41383 73.0186 5.34091 73.3832 5.34091C73.6715 5.34091 73.9068 5.36411 74.0891 5.41051C74.2714 5.45691 74.4073 5.5 74.4968 5.53977L74.1587 6.55398C74.0991 6.53409 74.0162 6.50923 73.9102 6.4794C73.8074 6.44957 73.6715 6.43466 73.5025 6.43466C73.1147 6.43466 72.8346 6.53243 72.6623 6.72798C72.4933 6.92353 72.4087 7.21023 72.4087 7.58807V16H71.2354ZM79.0843 8.36364V9.35795H75.127V8.36364H79.0843ZM76.2804 6.53409H77.4537V13.8125C77.4537 14.1439 77.5017 14.3925 77.5978 14.5582C77.6973 14.7206 77.8232 14.83 77.9757 14.8864C78.1315 14.9394 78.2955 14.9659 78.4679 14.9659C78.5971 14.9659 78.7032 14.9593 78.786 14.946C78.8689 14.9295 78.9352 14.9162 78.9849 14.9062L79.2235 15.9602C79.144 15.9901 79.033 16.0199 78.8904 16.0497C78.7479 16.0829 78.5673 16.0994 78.3485 16.0994C78.0171 16.0994 77.6923 16.0282 77.3741 15.8857C77.0592 15.7431 76.7974 15.526 76.5886 15.2344C76.3831 14.9427 76.2804 14.5748 76.2804 14.1307V6.53409Z" fill="black"/>
<path d="M100.716 9.33333C100.525 9.08333 100.291 8.86667 100.075 8.65C99.5165 8.15 98.8831 7.79167 98.3498 7.26667C97.1081 6.05 96.8331 4.04167 97.6248 2.5C96.8331 2.69167 96.1415 3.125 95.5498 3.6C93.3915 5.33333 92.5415 8.39167 93.5581 11.0167C93.5915 11.1 93.6248 11.1833 93.6248 11.2917C93.6248 11.475 93.4998 11.6417 93.3331 11.7083C93.1415 11.7917 92.9415 11.7417 92.7831 11.6083C92.7358 11.5687 92.6963 11.5207 92.6665 11.4667C91.7248 10.275 91.5748 8.56667 92.2081 7.2C90.8165 8.33333 90.0581 10.25 90.1665 12.0583C90.2165 12.475 90.2665 12.8917 90.4081 13.3083C90.5248 13.8083 90.7498 14.3083 90.9998 14.75C91.8998 16.1917 93.4581 17.225 95.1331 17.4333C96.9165 17.6583 98.8248 17.3333 100.191 16.1C101.716 14.7167 102.25 12.5 101.466 10.6L101.358 10.3833C101.183 10 100.716 9.33333 100.716 9.33333ZM98.0831 14.5833C97.8498 14.7833 97.4665 15 97.1665 15.0833C96.2331 15.4167 95.2998 14.95 94.7498 14.4C95.7415 14.1667 96.3331 13.4333 96.5081 12.6917C96.6498 12.025 96.3831 11.475 96.2748 10.8333C96.1748 10.2167 96.1915 9.69167 96.4165 9.11667C96.5748 9.43333 96.7415 9.75 96.9415 10C97.5831 10.8333 98.5915 11.2 98.8081 12.3333C98.8415 12.45 98.8581 12.5667 98.8581 12.6917C98.8831 13.375 98.5831 14.125 98.0831 14.5833Z" fill="#D65200"/>
<rect x="116" y="7" width="242" height="5" rx="2" fill="#D9D9D9"/>
<rect x="116" y="7" width="202" height="5" rx="2" fill="#00A819"/>
</svg>
