<svg width="125" height="19" viewBox="0 0 125 19" fill="none" xmlns="http://www.w3.org/2000/svg">
<path d="M9.5 0L11.6329 6.56434H18.535L12.9511 10.6213L15.084 17.1857L9.5 13.1287L3.91604 17.1857L6.04892 10.6213L0.464963 6.56434H7.36712L9.5 0Z" fill="black"/>
<path d="M32.5 0L34.6329 6.56434H41.535L35.9511 10.6213L38.084 17.1857L32.5 13.1287L26.916 17.1857L29.0489 10.6213L23.465 6.56434H30.3671L32.5 0Z" fill="black"/>
<path d="M55.5 0L57.6329 6.56434H64.535L58.9511 10.6213L61.084 17.1857L55.5 13.1287L49.916 17.1857L52.0489 10.6213L46.465 6.56434H53.3671L55.5 0Z" fill="black"/>
<path d="M78.5 0L80.6329 6.56434H87.535L81.9511 10.6213L84.084 17.1857L78.5 13.1287L72.916 17.1857L75.0489 10.6213L69.465 6.56434H76.3671L78.5 0Z" fill="black"/>
<path d="M101.5 0L103.633 6.56434H110.535L104.951 10.6213L107.084 17.1857L101.5 13.1287L95.916 17.1857L98.0489 10.6213L92.465 6.56434H99.3671L101.5 0Z" fill="black"/>
<path d="M118.248 8.632C118.504 8.57867 118.749 8.54133 118.984 8.52C119.219 8.49333 119.445 8.48 119.664 8.48C120.272 8.48 120.808 8.57067 121.272 8.752C121.736 8.93333 122.125 9.184 122.44 9.504C122.755 9.824 122.992 10.2 123.152 10.632C123.312 11.0587 123.392 11.52 123.392 12.016C123.392 12.6293 123.283 13.1893 123.064 13.696C122.851 14.2027 122.552 14.6373 122.168 15C121.784 15.3573 121.328 15.6347 120.8 15.832C120.277 16.0293 119.707 16.128 119.088 16.128C118.725 16.128 118.381 16.0907 118.056 16.016C117.731 15.9413 117.424 15.8427 117.136 15.72C116.853 15.592 116.589 15.448 116.344 15.288C116.104 15.1227 115.888 14.9493 115.696 14.768L116.304 13.928C116.432 13.7467 116.6 13.656 116.808 13.656C116.941 13.656 117.077 13.6987 117.216 13.784C117.355 13.8693 117.512 13.9627 117.688 14.064C117.869 14.1653 118.08 14.2587 118.32 14.344C118.565 14.4293 118.859 14.472 119.2 14.472C119.563 14.472 119.883 14.4133 120.16 14.296C120.437 14.1787 120.667 14.016 120.848 13.808C121.035 13.5947 121.173 13.344 121.264 13.056C121.36 12.7627 121.408 12.4453 121.408 12.104C121.408 11.4747 121.224 10.984 120.856 10.632C120.493 10.2747 119.955 10.096 119.24 10.096C118.691 10.096 118.128 10.1973 117.552 10.4L116.32 10.048L117.28 4.432H122.992V5.272C122.992 5.55467 122.904 5.784 122.728 5.96C122.552 6.136 122.253 6.224 121.832 6.224H118.656L118.248 8.632Z" fill="black"/>
</svg>
