<svg width="115" height="27" viewBox="0 0 115 27" fill="none" xmlns="http://www.w3.org/2000/svg">
<path d="M12.7563 24.082C19.249 24.082 24.5125 18.9149 24.5125 12.541C24.5125 6.16709 19.249 1 12.7563 1C6.26345 1 1 6.16709 1 12.541C1 18.9149 6.26345 24.082 12.7563 24.082Z" stroke="black" stroke-width="1.5"/>
<path d="M20.9141 15.7254C20.5144 16.1477 20.1511 16.3751 19.4971 16.4725H12.3032C11.9399 16.3101 11.9036 16.0828 12.3032 15.9203H16.3725C16.7358 15.9203 17.0628 15.8229 17.3171 15.5306C18.5161 14.1013 19.8967 12.7371 20.9504 11.1779C20.4781 11.5677 20.1874 11.7951 19.4971 11.8925H14.5195C14.0108 11.8925 13.6112 12.0549 13.2842 12.4447C12.3032 13.5816 11.2859 14.686 10.3049 15.8229C7.72529 18.5839 5.94499 12.5097 9.43293 13.4842C8.9606 12.932 8.45195 12.4122 7.97962 11.86C7.6163 11.5352 7.0713 11.5027 6.70798 11.86C4.52802 14.3287 4.49168 18.1291 9.03327 18.4865H18.6978C19.4244 17.5445 20.1874 16.635 20.9141 15.7254ZM19.4244 7.99463C19.0974 8.22201 18.8794 8.31945 18.3708 8.31945H13.9745C13.5385 8.31945 12.9935 8.48187 12.7029 8.80669L9.90525 11.99L10.7046 12.8995L11.6856 11.8276C12.0126 11.5027 12.3759 11.3728 12.8845 11.3728H15.6095C16.9901 11.3728 18.7704 8.70924 19.4244 7.99463Z" fill="black"/>
<path fill-rule="evenodd" clip-rule="evenodd" d="M107.886 9.53903L106.234 15.4772H103.863L106.593 5.72161H109L110.976 11.6245L112.629 5.72161H115L112.233 15.4772H109.862L107.886 9.53903ZM98.3299 12.0133H100.665L100.521 8.51399L98.3299 12.0133ZM102.461 5.72161L103.252 15.4772H100.773L100.665 13.6746H97.3959L96.2822 15.4772H93.8032L100.054 5.72161H102.461ZM91.6117 7.63032H88.7736L89.3125 5.72161H97.324L96.7851 7.63032H93.9829L91.7555 15.4772H89.4202L91.6117 7.63032ZM81.6243 12.3314C81.6243 13.4271 82.1991 14.1694 83.4565 13.9573C85.2169 13.6039 85.0732 11.4831 82.9894 11.271C81.2291 11.0589 80.3309 9.64507 80.762 7.98379C81.5165 6.3932 82.7739 5.72161 84.6061 5.50953H84.6421C86.0073 5.22676 88.055 5.58023 88.2706 7.27686C88.3065 7.55963 88.3784 8.12518 88.1988 8.40795H85.9713C85.9713 7.9131 85.8635 7.45359 85.3606 7.31221C83.708 6.8527 81.6243 8.76141 85.1091 9.64507C86.0073 9.85715 87.2287 10.1753 87.4802 11.165C87.8395 12.897 86.7976 14.5229 85.3965 15.3005C84.1032 15.8307 82.235 15.8661 80.9057 15.6186C79.2531 15.0531 78.9298 14.028 79.2172 12.3314H81.6243ZM79.9716 5.72161C79.0376 8.97349 78.1394 12.2254 77.2413 15.4772H74.8701L77.6005 5.72161H79.9716ZM68.9782 9.53903L73.5409 5.72161H76.4149L71.529 9.75111L74.0079 15.4772H71.0979L69.4812 11.3417L68.1878 12.4021L67.2897 15.4772H64.9545L67.7208 5.72161H70.056L68.9782 9.53903ZM59.9248 9.60973H64.5952L64.0923 11.3771H59.4578L58.847 13.5685H64.1641L63.6611 15.4772H55.937L58.6674 5.72161H66.2838L65.7449 7.63032H60.4996L59.9248 9.60973ZM51.0151 7.52428L50.4403 9.60973H52.2366C52.8833 9.60973 53.494 9.32696 53.7455 8.58468C53.8892 8.12518 53.7814 7.77171 53.3144 7.59498C52.7036 7.41825 51.6977 7.52428 51.0151 7.52428ZM49.9373 11.3064L49.2906 13.7099C50.6199 13.7099 52.524 14.0987 53.027 12.4728C53.1707 11.6245 52.5599 11.3064 51.8055 11.3064H49.9373ZM54.0329 5.72161C55.2544 5.72161 56.5837 6.18112 56.3322 7.63032C56.1526 8.76141 55.1466 9.82181 54.1048 10.2106V10.2813C55.6137 10.2813 55.6137 12.2254 55.2544 13.2151C54.7155 14.7703 53.027 15.4772 51.4462 15.4772H46.4165L49.1469 5.72161H54.0329ZM44.1173 7.66567H39.5906L40.1654 5.72161H47.5662L47.0991 7.52428L40.5606 13.5332H45.698L45.1951 15.4772H37.1476L37.7224 13.4271L44.1173 7.66567ZM32.9442 5.72161C32.4053 7.63032 31.8305 9.53903 31.2916 11.4124C31.076 12.4021 31.112 14.0634 32.5849 13.8513C33.7705 13.7099 34.7046 12.5081 34.9561 11.4124C35.459 9.53903 35.962 7.63032 36.5009 5.72161H38.8361C38.1176 8.30191 37.7224 11.8012 36.0339 14.0634C34.8483 15.1945 33.7705 15.6893 32.0101 15.6893C29.172 15.6893 28.4894 14.4169 28.8486 11.7659C29.3875 9.75111 29.9623 7.73636 30.5371 5.72161H32.9442Z" fill="black"/>
<path fill-rule="evenodd" clip-rule="evenodd" d="M82.8096 22.9352C82.1629 22.9352 81.0492 23.1826 80.8336 23.8542C80.6899 24.137 80.9414 24.349 81.1929 24.4551C82.2707 24.4551 82.4503 23.7128 82.8096 22.9352ZM80.0432 21.8394C80.0432 20.7083 81.5521 20.2842 82.5221 20.1428C83.4562 20.1428 84.1388 20.1075 84.6059 20.9204C84.6418 21.1679 84.6777 21.3092 84.6418 21.5567C84.4622 22.4403 83.5281 24.3844 83.8873 25.1974V25.2327H82.3066V24.8085C79.1092 27.0707 77.9595 22.8998 81.2647 22.4757C81.5521 22.405 83.1329 22.2636 83.1329 21.6627C83.1329 20.673 81.9473 21.0618 81.5881 21.592C81.5881 21.6627 81.5162 21.8041 81.5162 21.8394H80.0432Z" fill="black"/>
<path fill-rule="evenodd" clip-rule="evenodd" d="M102.713 22.9352C102.066 22.9352 100.952 23.1826 100.737 23.8542C100.593 24.137 100.845 24.349 101.096 24.4551C102.174 24.4551 102.354 23.7128 102.713 22.9352ZM99.9466 21.8394C99.9466 20.7083 101.455 20.2842 102.425 20.1428C103.36 20.1428 104.042 20.1075 104.509 20.9204C104.545 21.1679 104.581 21.3092 104.545 21.5567C104.365 22.4403 103.431 24.3844 103.791 25.1974V25.2327H102.21V24.8085C99.0125 27.0707 97.8628 22.8998 101.168 22.4757C101.455 22.405 103.036 22.2636 103.036 21.6627C103.036 20.673 101.851 21.0618 101.491 21.592C101.491 21.6627 101.42 21.8041 101.42 21.8394H99.9466Z" fill="black"/>
<path fill-rule="evenodd" clip-rule="evenodd" d="M95.6354 22.1927L94.0188 25.2325H92.438L92.2943 20.284H93.911L93.8391 23.3238L95.4199 20.284H96.8929L96.7492 23.3238L98.3658 20.284H100.054L97.1084 25.2325H95.4917L95.6354 22.1927ZM92.1506 20.178L91.8273 21.3444H91.7554C91.2524 21.3444 91.1447 21.3091 90.6776 21.4858C89.995 21.8746 89.6717 22.4048 89.4561 23.2178L88.9172 25.2325H87.1209L88.7735 20.284H90.2106L89.995 20.9556C90.6058 20.39 91.3602 20.178 92.1506 20.178ZM86.2946 19.5771L86.582 18.4106H88.1628L87.8394 19.5771H86.2946ZM87.6239 20.284L86.2587 25.2325H84.7139L86.115 20.284H87.6239ZM104.437 26.0101C105.443 26.0101 105.371 26.0101 105.91 25.1618L105.156 20.284H106.988L107.204 23.3592L108.856 20.284H110.473L107.383 25.5153C106.557 26.8231 105.803 26.9998 104.15 26.9998L104.437 26.0101ZM109.754 23.6066H111.227C111.156 23.9247 111.156 24.0661 111.371 24.3135C111.91 24.7377 112.521 24.3842 112.808 23.8894C112.952 23.0057 111.192 23.2885 110.581 22.6876C110.437 22.5108 110.365 22.4048 110.365 22.1574C110.365 21.6625 110.509 21.203 110.832 20.8142C111.048 20.6021 111.299 20.4607 111.587 20.3547C112.054 20.178 112.521 20.1426 112.988 20.1426C113.311 20.1426 113.563 20.1426 113.886 20.178C114.784 20.3194 114.784 20.9556 114.784 21.6272H113.383L113.419 21.4858C113.419 21.0263 113.06 21.0263 112.736 21.0263C112.305 21.0263 111.982 21.203 111.91 21.6625C111.91 21.8746 112.018 21.9806 112.197 22.0513C113.491 22.2634 114.856 22.5108 114.317 23.9247C114.066 24.5256 113.599 24.9497 112.988 25.1972C112.593 25.3386 112.09 25.3739 111.659 25.3739C111.299 25.3739 110.94 25.3739 110.581 25.2679C110.257 25.1265 110.042 24.9851 109.826 24.7377C109.611 24.3135 109.575 24.1014 109.647 23.6066H109.754Z" fill="black"/>
</svg>
