<svg width="222" height="53" viewBox="0 0 222 53" fill="none" xmlns="http://www.w3.org/2000/svg">
<path d="M24.6875 47.2763C37.2175 47.2763 47.375 37.1408 47.375 24.6381C47.375 12.1354 37.2175 2 24.6875 2C12.1575 2 2 12.1354 2 24.6381C2 37.1408 12.1575 47.2763 24.6875 47.2763Z" stroke="white" stroke-width="3"/>
<path d="M40.4299 30.8844C39.6586 31.7127 38.9575 32.1587 37.6954 32.3498H23.8125C23.1113 32.0313 23.0412 31.5852 23.8125 31.2667H31.6654C32.3666 31.2667 32.9976 31.0755 33.4884 30.5021C35.8022 27.6986 38.4666 25.0225 40.5 21.9642C39.5885 22.7288 39.0276 23.1748 37.6954 23.3659H28.0895C27.1079 23.3659 26.3366 23.6845 25.7056 24.4491C23.8125 26.6792 21.8492 28.8455 19.9561 31.0755C14.9779 36.4913 11.5422 24.5765 18.2733 26.488C17.3618 25.4048 16.3802 24.3854 15.4687 23.3022C14.7675 22.6651 13.7158 22.6014 13.0146 23.3022C8.8077 28.1446 8.73758 35.5993 17.502 36.3002H36.1528C37.5551 34.4524 39.0276 32.6684 40.4299 30.8844ZM37.5551 15.7201C36.9241 16.1661 36.5034 16.3572 35.5218 16.3572H27.0378C26.1964 16.3572 25.1447 16.6758 24.5837 17.313L19.1848 23.5571L20.7274 25.3411L22.6205 23.2385C23.2515 22.6014 23.9527 22.3465 24.9343 22.3465H30.193C32.8574 22.3465 36.2931 17.1218 37.5551 15.7201Z" fill="white"/>
<path fill-rule="evenodd" clip-rule="evenodd" d="M208.272 18.7495L205.083 30.3975H200.507L205.776 11.2615H210.422L214.235 22.8402L217.424 11.2615H222L216.661 30.3975H212.086L208.272 18.7495ZM189.83 23.6028H194.337L194.059 16.7388L189.83 23.6028ZM197.803 11.2615L199.329 30.3975H194.545L194.337 26.8615H188.028L185.878 30.3975H181.094L193.158 11.2615H197.803ZM176.865 15.0055H171.388L172.428 11.2615H187.889L186.849 15.0055H181.441L177.143 30.3975H172.636L176.865 15.0055ZM157.591 24.2268C157.591 26.3762 158.7 27.8322 161.127 27.4162C164.524 26.7229 164.247 22.5628 160.226 22.1468C156.829 21.7308 155.095 18.9575 155.927 15.6988C157.383 12.5788 159.81 11.2615 163.346 10.8455H163.415C166.05 10.2908 170.001 10.9841 170.417 14.3122C170.487 14.8668 170.625 15.9762 170.279 16.5308H165.98C165.98 15.5602 165.772 14.6588 164.802 14.3815C161.612 13.4802 157.591 17.2242 164.316 18.9575C166.05 19.3735 168.407 19.9975 168.892 21.9388C169.585 25.3362 167.575 28.5255 164.871 30.0509C162.375 31.0909 158.77 31.1602 156.205 30.6749C153.015 29.5655 152.391 27.5549 152.946 24.2268H157.591ZM154.402 11.2615C152.599 17.6402 150.866 24.0188 149.133 30.3975H144.557L149.826 11.2615H154.402ZM133.187 18.7495L141.992 11.2615H147.538L138.109 19.1655L142.893 30.3975H137.277L134.157 22.2855L131.661 24.3655L129.928 30.3975H125.421L130.76 11.2615H135.266L133.187 18.7495ZM115.715 18.8882H124.728L123.757 22.3548H114.814L113.635 26.6535H123.896L122.925 30.3975H108.019L113.288 11.2615H127.987L126.947 15.0055H116.824L115.715 18.8882ZM98.5209 14.7975L97.4116 18.8882H100.878C102.126 18.8882 103.305 18.3335 103.79 16.8775C104.067 15.9762 103.859 15.2828 102.958 14.9362C101.779 14.5895 99.8382 14.7975 98.5209 14.7975ZM96.4409 22.2162L95.193 26.9309C97.7582 26.9309 101.433 27.6935 102.403 24.5042C102.681 22.8402 101.502 22.2162 100.046 22.2162H96.4409ZM104.345 11.2615C106.702 11.2615 109.267 12.1628 108.782 15.0055C108.435 17.2242 106.494 19.3042 104.483 20.0668V20.2055C107.395 20.2055 107.395 24.0188 106.702 25.9602C105.662 29.0109 102.403 30.3975 99.3528 30.3975H89.6465L94.9156 11.2615H104.345ZM85.2092 15.0748H76.4735L77.5828 11.2615H91.8651L90.9638 14.7975L78.3454 26.5842H88.2598L87.2892 30.3975H71.759L72.8683 26.3762L85.2092 15.0748ZM63.6472 11.2615C62.6072 15.0055 61.4979 18.7495 60.458 22.4242C60.042 24.3655 60.1113 27.6242 62.9539 27.2082C65.2418 26.9309 67.0444 24.5735 67.5298 22.4242C68.5004 18.7495 69.471 15.0055 70.511 11.2615H75.0175C73.6309 16.3228 72.8683 23.1868 69.6097 27.6242C67.3218 29.8429 65.2418 30.8135 61.8446 30.8135C56.3674 30.8135 55.0501 28.3175 55.7434 23.1175C56.7834 19.1655 57.8927 15.2135 59.002 11.2615H63.6472Z" fill="white"/>
<path fill-rule="evenodd" clip-rule="evenodd" d="M159.879 45.027C158.631 45.027 156.482 45.5123 156.066 46.8296C155.789 47.3843 156.274 47.8003 156.759 48.0083C158.839 48.0083 159.186 46.5523 159.879 45.027ZM154.541 42.8776C154.541 40.659 157.453 39.827 159.325 39.5496C161.127 39.5496 162.444 39.4803 163.346 41.075C163.415 41.5603 163.484 41.8376 163.415 42.323C163.068 44.0563 161.266 47.8696 161.959 49.4643V49.5336H158.909V48.7016C152.738 53.139 150.519 44.9576 156.898 44.1256C157.453 43.987 160.503 43.7096 160.503 42.531C160.503 40.5896 158.215 41.3523 157.522 42.3923C157.522 42.531 157.383 42.8083 157.383 42.8776H154.541Z" fill="white"/>
<path fill-rule="evenodd" clip-rule="evenodd" d="M198.289 45.027C197.041 45.027 194.891 45.5123 194.476 46.8296C194.198 47.3843 194.683 47.8003 195.169 48.0083C197.249 48.0083 197.595 46.5523 198.289 45.027ZM192.95 42.8776C192.95 40.659 195.862 39.827 197.734 39.5496C199.537 39.5496 200.854 39.4803 201.755 41.075C201.825 41.5603 201.894 41.8376 201.825 42.323C201.478 44.0563 199.675 47.8696 200.369 49.4643V49.5336H197.318V48.7016C191.148 53.139 188.929 44.9576 195.307 44.1256C195.862 43.987 198.913 43.7096 198.913 42.531C198.913 40.5896 196.625 41.3523 195.931 42.3923C195.931 42.531 195.793 42.8083 195.793 42.8776H192.95Z" fill="white"/>
<path fill-rule="evenodd" clip-rule="evenodd" d="M184.63 43.5706L181.51 49.5333H178.46L178.182 39.8266H181.302L181.164 45.7893L184.214 39.8266H187.057L186.78 45.7893L189.899 39.8266H193.158L187.473 49.5333H184.353L184.63 43.5706ZM177.905 39.6186L177.281 41.9066H177.143C176.172 41.9066 175.964 41.8373 175.063 42.184C173.745 42.9466 173.121 43.9866 172.705 45.5813L171.665 49.5333H168.199L171.388 39.8266H174.161L173.745 41.144C174.924 40.0346 176.38 39.6186 177.905 39.6186ZM166.604 38.44L167.159 36.152H170.209L169.585 38.44H166.604ZM169.169 39.8266L166.535 49.5333H163.554L166.258 39.8266H169.169ZM201.616 51.0587C203.558 51.0587 203.419 51.0587 204.459 49.3947L203.003 39.8266H206.539L206.955 45.8586L210.144 39.8266H213.264L207.302 50.088C205.707 52.6533 204.251 53 201.062 53L201.616 51.0587ZM211.878 46.344H214.72C214.581 46.968 214.581 47.2453 214.997 47.7307C216.037 48.5627 217.216 47.8693 217.771 46.8987C218.048 45.1653 214.651 45.72 213.472 44.5413C213.195 44.1946 213.056 43.9866 213.056 43.5013C213.056 42.5306 213.333 41.6293 213.957 40.8666C214.373 40.4506 214.859 40.1733 215.413 39.9653C216.315 39.6186 217.216 39.5493 218.117 39.5493C218.741 39.5493 219.227 39.5493 219.851 39.6186C221.584 39.896 221.584 41.144 221.584 42.4613H218.88L218.949 42.184C218.949 41.2826 218.256 41.2826 217.632 41.2826C216.8 41.2826 216.176 41.6293 216.037 42.5306C216.037 42.9466 216.245 43.1546 216.592 43.2933C219.088 43.7093 221.723 44.1946 220.683 46.968C220.197 48.1467 219.296 48.9787 218.117 49.464C217.355 49.7413 216.384 49.8107 215.552 49.8107C214.859 49.8107 214.165 49.8107 213.472 49.6027C212.848 49.3253 212.432 49.048 212.016 48.5627C211.6 47.7307 211.531 47.3147 211.67 46.344H211.878Z" fill="white"/>
</svg>
